<?xml version="1.0" encoding="utf-8"?>
<!-- Generator: Adobe Illustrator 23.0.1, SVG Export Plug-In . SVG Version: 6.00 Build 0)  -->
<svg version="1.1" id="Layer_1" xmlns="http://www.w3.org/2000/svg" xmlns:xlink="http://www.w3.org/1999/xlink" x="0px" y="0px"
	 viewBox="0 0 30.4 19.3" style="enable-background:new 0 0 30.4 19.3;" xml:space="preserve">
<path style="fill:#C1CCBF;" d="M25.9,0.8C14.7,2.3,6.6,8.5,0.4,17.5c-0.8,1.1-0.4,1.8,0.8,1.8c5.6,0.1,10.8-1.2,15.7-4
	c5-2.9,8.9-6.7,12-11.6c0.4-0.6,0.8-1.1,1.3-1.6c0-0.7,0.1-1.4,0.2-2.1C28.9,0.3,27.4,0.6,25.9,0.8z M26.4,4.6
	c0-0.1,0.1-0.2,0.2-0.1c0,0-0.1,0.2-0.1,0.3c-4.3,6.9-15.9,14-24.4,13.2C4.8,10.7,19.2,1.6,28.2,1.7C24.6,4.1,21,6,17.2,7.9
	c-3.6,1.8-7.4,3.5-10.3,6.5C13.3,10.8,20.1,8.4,26.4,4.6z"/>
</svg>
