<?xml version="1.0" encoding="utf-8"?>
<!-- Generator: Adobe Illustrator 23.0.1, SVG Export Plug-In . SVG Version: 6.00 Build 0)  -->
<svg version="1.1" id="Layer_1" xmlns="http://www.w3.org/2000/svg" xmlns:xlink="http://www.w3.org/1999/xlink" x="0px" y="0px"
	 viewBox="0 0 59.9 72.7" style="enable-background:new 0 0 59.9 72.7;" xml:space="preserve">
<path style="fill:#C1CCBF;" d="M59.9,47.2c-2.5-2.7-4.6-5.9-6.5-9.7c-1.5-3-3.1-6.2-4.6-9.4c-2.4-5.1-6.5-8.4-12.5-10.1
	c-2-0.6-4.1-1.2-6-1.7c-4.1-1.2-8.4-2.4-12.7-3.5c-1.1-0.3-2-0.6-2.6-1.5C11.9,7.1,8,3.4,3.4,0C3.2,0.1,2.2,1.9,2.5,1.8
	s0.8,1.1,0.8,2c0,2.5-0.4,5.1-1.2,8c-0.7,2.6-1,5.4-1.2,8c-0.1,1.1-0.2,2.3-0.4,3.5C-0.2,28.8-0.2,34,0.5,39.1l0,0.1
	c0.1,0.5,0.1,1.1,0.8,1.1c0,0,0,0,0,0c0.6,0,0.8-0.6,0.9-1c0,0,0-0.1,0-0.1c0.4-1.7,1-3.3,2-5.1c0.3-0.5,0.6-1.1,0.9-1.6
	c1-1.8,2.1-3.7,3.2-5.5c2.2-3.7,2.9-7.9,2.2-12.8c-0.4-2.9-1.8-5.5-3.1-8L7.1,5.5c0,0,0-0.1,0-0.1C7,5.4,7,5.3,7,5.3
	c0,0,0-0.1,0.1-0.1c0,0,0.1,0.1,0.1,0.1c0,0,0.1,0.1,0.1,0.1l0,0c0.3,0.1,0.5,0.3,0.7,0.5C8.2,6,8.3,6,8.3,6.1
	c2.8,2.5,5.1,5.4,7.4,8.2c1.3,1.6,2.6,3.2,4,4.8l0,0c0.2,0.2,0.4,0.5,0.5,0.7c0.6,1.7,1.3,3.4,1.9,5.1c0.4,1.1,0.8,2.3,1.3,3.4
	c1.7,4.5,2.7,9.5,3.2,15.2c0.1,1.5,1.7,6.1,1.7,6.1c0.2,0,0.3,0.1,0.5,0.1c-0.2,0-0.4,0-0.5-0.1c0.6,1.5,1.2,3.1,2.3,4.2
	c2.3,2.2,3.9,5,5.5,7.6c0.5,0.8,0.9,1.6,1.4,2.4c2.1,3.4,5,6.3,8.5,8.4c0.1,0,0.1,0.1,0.2,0.1c0.3,0.2,0.7,0.5,1.1,0.2
	c0.5-0.3,0.4-0.8,0.2-1.2c-0.3-0.7-0.5-1.5-0.8-2.2c-0.6-1.8-1.3-3.6-2-5.4c-1.6-3.7-4.1-6.1-7.7-7.3c0.2-0.3,0.5-0.4,0.8-0.4
	c0,0,0.1,0,0.1,0c2.3-0.4,4.6-1.2,7-2.3c0.6-0.3,0.9-0.7,0.8-1.1C45.8,52.1,45.4,52,45,52c-0.6,0-1.2-0.1-1.8-0.1
	c-1.4-0.1-2.9-0.2-4.3-0.1c-1.9,0.1-3.3,0.7-4.3,1.9c-0.7,0.9-1,1.3-1.4,1.3c-0.3,0-0.6-0.5-1.2-1.3c-0.1-0.1-0.1-0.1-0.1-0.2
	c-0.1-0.3-0.3-0.6-0.4-0.9c-1.2-2.7-2.5-5.5-3-8.5c-0.9-5.4-2-11.7-4.2-17.6c0,0,0-0.1,0.1-0.2c0,0,0-0.1,0.1-0.1
	c0.5,0.3,0.7,0.7,0.9,1.1c0.1,0.1,0.1,0.2,0.2,0.3c2.7,5,5.7,9,9.1,12.1c3.5,3.1,7.2,5.2,11.4,6.1c1.8,0.4,3.7,0.6,5.5,0.9
	c2.6,0.3,5.2,0.6,7.7,1.5c0.2,0.1,0.4,0,0.6,0c0.1,0,0.2,0,0.3,0l0,0L59.9,47.2L59.9,47.2z M4.8,8.2c0,0.1,0,0.1,0.1,0.2
	C5,8.9,5.1,9.3,4.5,9.7C4.4,9.2,4.5,8.7,4.8,8.2z M3.2,14.3C3.4,13,3.6,11.7,5,10.9c0.7,2.4,0.4,3.1-2.1,5
	C3.1,15.4,3.1,14.8,3.2,14.3z M5.1,16C5.6,18.5,5,19.6,2.6,21C1.9,18.7,3.1,17.3,5.1,16z M4.3,21.7c0,3.1-0.6,4.2-2.5,4.7
	C1.8,24.5,1.9,22.5,4.3,21.7z M1.5,31.9c-0.4-2.2,0.1-3.8,1.6-4.6L1.5,31.9z M4.8,30.2c-0.5,1.2-1.2,2.4-2.3,3.9
	c0-1.4,0.5-2.6,0.9-3.9c0.2-0.6,0.5-1.3,0.6-1.9C4.5,28.9,5,29.6,4.8,30.2z M7.6,25.4c-0.4,0.8-0.9,1.6-1.4,2.4l-0.5,1
	c-1.2-1.8-0.8-3.5-0.4-5.2c0.1-0.4,0.2-0.9,0.3-1.3l0.6,0.7c0.5,0.6,1,1.1,1.4,1.6C8,24.8,7.8,25.1,7.6,25.4z M9.3,20.4
	c-0.1,1.2-0.6,2.4-1,3.3c-2.4-1.9-3-4.2-1.8-6.8c0.2,0.2,0.4,0.4,0.6,0.6C7.8,18,8.4,18.6,9,19.1C9.4,19.5,9.4,19.8,9.3,20.4z
	 M9.4,17.2c0,0.1,0,0.1,0,0.2c0,0.1,0,0.2,0,0.3c0,0-0.1,0.1-0.2,0.1c0,0,0,0,0,0c-0.2,0-0.4-0.1-0.5-0.3c-0.3-0.5-0.5-0.9-0.9-1.3
	c-1.7-1.4-1.5-3.2-1.1-4.7C9.4,12.7,9.6,15.2,9.4,17.2z M7.9,10.3C6.4,9,6.4,8.9,6.1,6.7C6.2,6.9,6.3,7,6.4,7.2
	C7,8.1,7.6,9.1,7.9,10.3z M45.6,70.3c-4.2-2.6-6.3-6.6-8.6-10.7c-0.3-0.5-0.6-1-0.8-1.5C40.6,58.9,44.4,63.8,45.6,70.3z M40.1,53
	c1,0,2.1,0.1,3.3,0.2c-2.9,1.1-5.6,2.1-8.5,2.3C35.6,53.6,37.3,53,40.1,53z M43,27.4c0,1.6,0.3,3.2,0.6,4.7c0,0.2,0.1,0.4,0.1,0.6
	l0,0c0,0.2,0.1,0.4,0,0.5c0,0-0.1,0.1-0.2,0.1c-0.2,0-0.4,0.1-0.6,0.1c-0.8,0.2-1.7,0.3-2.4-0.4c-1.5-1.6-2.9-3.3-4.4-5
	c-0.6-0.7-1.2-1.4-1.8-2.1c2.1,0,4.2,0.2,6.1,0.5c0.8,0.1,1.5,0.2,2.3,0.3C43,26.8,43,27.1,43,27.4z M44.7,36
	c0.1,0.3,0.2,0.7,0.4,1.2l0,0l0,0c0.2,0.1,0.2,0.3,0.1,0.4l-0.3-0.2L42.3,35c0.1,0,0.2,0,0.3-0.1C44.3,34.6,44.3,34.6,44.7,36z
	 M24.2,25.9C24.2,25.9,24.2,25.9,24.2,25.9l-0.3-0.1c0,0,0,0,0,0c0,0,0-0.1,0-0.1C24.1,25.7,24.2,25.8,24.2,25.9
	C24.2,25.9,24.2,25.9,24.2,25.9z M25.2,21l0,0.1c0,0.5,0,1.1,0,1.7c0,0.3,0,0.6,0,0.9c-1-1.4-1.9-2.6-2.8-3.8
	c-1-1.3-1.9-2.5-2.8-3.8c0.4,0.3,0.8,0.6,1.3,0.9c1.3,0.9,2.6,1.9,4,2.9C25.3,20.2,25.2,20.6,25.2,21z M21.9,15.5
	c1.7,0.6,3.5,1,5.3,1.5c1.7,0.4,3.4,0.8,5.1,1.4C28.2,19.2,26,18.9,21.9,15.5z M26.8,26c-0.7-1.3-0.6-2.9-0.4-4.6c0-0.1,0-0.2,0-0.3
	c2.4,1.6,4.2,3.5,5.7,5.1c0.1,0.1,0.2,0.4,0.2,0.6c0.2,2.1,0.4,4.2,0.7,6.4l0.2,1.7C30.7,32.4,28.6,29.6,26.8,26z M31.4,22.9
	c-0.7-0.7-1.4-1.3-2.2-2c-0.3-0.3-0.6-0.6-1-0.9c1.3,0.1,2.6-0.1,3.8-0.2c2.1-0.2,4-0.4,6,0.2c2.5,0.6,4,2.2,4.6,4.6
	c0.1,0.3,0.2,0.8,0,0.9c-0.1,0.1-0.4,0.1-0.7,0c-1.5-0.5-3.1-0.7-4.7-0.9c-1.3-0.2-2.7-0.4-4-0.7C32.6,23.7,32,23.4,31.4,22.9z
	 M43.6,42.9c0,0-0.1,0-0.2,0c0,0-0.1,0-0.1,0c-2.9-1.3-5.6-3.2-8.3-5.8c-0.2-0.2-0.4-0.5-0.5-1c-0.6-3-0.9-5.4-0.8-7.7
	c5.1,4.8,8.2,9.2,9.8,14.2l0,0C43.6,42.7,43.7,42.8,43.6,42.9z M48.1,44.4c-0.8-0.2-1.7-0.4-2.5-0.6c-0.3-0.1-0.5-0.3-0.6-0.6l0-0.1
	c-0.3-0.6-0.5-1.1-0.8-1.7c-0.4-1-0.9-2-1.4-3c0-0.1-0.1-0.1-0.1-0.2c-0.1-0.2-0.2-0.3,0-0.4c0.1,0,0.1-0.1,0.2-0.1c0,0,0,0,0.1,0
	c0.1,0,0.2,0.1,0.3,0.2c0.6,0.8,1.5,1.3,2.3,1.7c0.9,0.5,1.9,1.1,2.5,2.1c0.6,1,1.7,1.6,2.8,2.1c0.3,0.2,0.6,0.3,0.9,0.5
	c0.4,0.2,0.8,0.4,1.2,0.6c0.1,0.1,0.2,0.1,0.4,0.2C51.5,45.2,49.7,44.8,48.1,44.4z M55.5,44.9c0,0-0.1,0-0.1-0.1c0,0-0.1,0-0.1-0.1
	c-0.1-0.1-0.2-0.1-0.3-0.2c-0.2-0.2-0.5-0.3-0.8-0.4c-3.5-1.3-7-3.8-9-12.6c-0.3-1.1-0.4-2.3-0.5-3.4c-0.2-1.5-0.3-3-0.8-4.4
	c0.7,0.1,1,0.7,1.3,1.2c0.1,0.1,0.1,0.2,0.2,0.3c1,1.7,1.8,3.5,2.6,5.3c0.1,0.3,0.3,0.6,0.4,1c1.6,3.8,3.9,8.7,7,13.2
	c0,0,0.1,0.1,0.1,0.1C55.5,44.8,55.5,44.8,55.5,44.9C55.5,44.9,55.5,44.9,55.5,44.9z"/>
</svg>
