<?xml version="1.0" encoding="utf-8"?>
<!-- Generator: Adobe Illustrator 23.0.1, SVG Export Plug-In . SVG Version: 6.00 Build 0)  -->
<svg version="1.1" id="Layer_1" xmlns="http://www.w3.org/2000/svg" xmlns:xlink="http://www.w3.org/1999/xlink" x="0px" y="0px"
	 viewBox="0 0 22.9 25.8" style="enable-background:new 0 0 22.9 25.8;" xml:space="preserve">
<g>
	<path style="fill:#C1CCBF;" d="M21.5,22.2c-0.7-2.4-1.2-4.9-2.3-7.2c-1.9-3.9-4.7-7-8-9.6c-2.9-2.4-6.3-4-9.9-5.2
		C0.9,0,0.4-0.1,0.1,0.3c-0.3,0.3-0.1,0.7,0.1,1C2.2,5,3.1,9.1,4.8,12.9c3,6.8,7,12.3,15.4,12.6c0.4,0,0.7,0.1,1.1,0.2
		c0.5-0.1,1-0.3,1.6-0.6C22.3,24.3,21.8,23.3,21.5,22.2z M15.9,19.4c-1.5-2-3.3-3.8-4.6-5.9c-1.4-2.1-2.7-4.1-4.2-6
		c3.5,5.7,6.4,11.8,11.6,16.6c-1,0.1-1.8-0.2-2.6-0.5c-1.4-0.5-2.6-1.4-3.8-2.3c-2.6-2.2-4.8-4.9-6.5-7.9C4.4,10.8,3.3,8,2.4,5.2
		c-0.5-1.4-1-2.7-1.6-4.3c10.8,4.6,17.7,12.2,20.3,23.6C19.1,23.1,17.4,21.3,15.9,19.4z"/>
</g>
</svg>
