<?xml version="1.0" encoding="utf-8"?>
<!-- Generator: Adobe Illustrator 23.0.1, SVG Export Plug-In . SVG Version: 6.00 Build 0)  -->
<svg version="1.1" id="Layer_1" xmlns="http://www.w3.org/2000/svg" xmlns:xlink="http://www.w3.org/1999/xlink" x="0px" y="0px"
	 viewBox="0 0 34.9 12.2" style="enable-background:new 0 0 34.9 12.2;" xml:space="preserve">
<path style="fill:#C1CCBF;" d="M34.9,6c-0.8,0-1.6-0.2-2.6-0.5C28.2,4.1,24.2,2.3,20.1,1C13.2-1.2,6.9,0.6,0.8,3.5
	C0.4,3.7,0,4,0,4.5C0,5,0.4,5.2,0.8,5.4c2.5,1,4.8,2.4,7.2,3.7c6.5,3.4,13.1,4.2,20,1.6c1-0.4,2-0.7,3.2-1C32.4,8.5,33.7,7.3,34.9,6
	z M17,10.5c-3.7-0.4-9.2-2.6-14.5-6c4.3-2.8,10.3-3.7,15.6-2.3c2.2,0.6,4.4,1.2,6.6,1.9c2.2,0.8,4.2,1.9,6.5,2.4
	c-4,0-7.9-0.9-11.9-1.5c-3.9-0.6-7.8-1.4-11.7-0.8C15.9,5,23.8,8.2,32.3,7.8C29.2,9.6,21.6,10.9,17,10.5z"/>
</svg>
