<?xml version="1.0" encoding="utf-8"?>
<!-- Generator: Adobe Illustrator 23.0.1, SVG Export Plug-In . SVG Version: 6.00 Build 0)  -->
<svg version="1.1" id="Layer_1" xmlns="http://www.w3.org/2000/svg" xmlns:xlink="http://www.w3.org/1999/xlink" x="0px" y="0px"
	 viewBox="0 0 54.2 55.1" style="enable-background:new 0 0 54.2 55.1;" xml:space="preserve">
<path style="fill:#C1CCBF;" d="M54.1,21.2c-0.4,0.2-0.8,0.4-1.3,0.6c-0.2,0.1-0.4,0.2-0.5,0.1c-0.1,0-0.2-0.2-0.3-0.4
	c-0.5-1.4-1-2.8-1.5-4.2c-2.2-5.7-6.1-10.1-11.4-13.1c-1.2-0.7-2.5-1.2-3.8-1.8C34.7,2.2,34,2,33.4,1.7C30.2,0.2,26.8-0.3,23,0.1
	c-1.5,0.2-3,0.6-4.4,1c-1.5,0.5-3.1,0.9-4.7,1c-0.5,0-0.7,0.3-0.7,0.7c0,0.5,0.4,0.7,0.8,0.8c2.7,0.8,4.9,2.5,7,4.4
	c2.1,1.8,4.2,3.5,6.2,5.2c1.5,1.3,3,2.5,4.5,3.8c4.7,4,9.8,6,15.3,6.1c0.1,0,0.2,0,0.3,0c0.3,0,0.6,0,0.9,0.2
	c-0.6,0.3-1.2,0.6-1.9,0.6l-2,0.1c-3.7,0.2-7.5,0.3-11.3,0.5c-4.3,0.2-9.3,0.9-13.9,3.6c-3.3,1.9-6.2,4.3-9.2,6.8
	c-1.8,1.5-3.4,2.8-4.5,4.7c-1.9,3.1-2.9,6.6-3.9,10c-0.4,1.4-0.8,2.8-1.3,4.2c-0.1,0.4-0.1,0.8,0.3,1.1c0.5,0.3,0.9,0,1.2-0.3
	c3.4-2.9,8.5-6.4,20.1-9.3c3.9-1,7.4-2,10.7-3.5c5.6-2.6,9.6-6.7,12-12c0.8-1.9,2-3.3,3.6-4.3c1.9-1.2,4-2.2,6.2-3.1
	C54.2,22,54.1,21.6,54.1,21.2z M15,33.2c5.1-3.6,10.3-5.9,14-6.1c-1.5,1.2-2.8,2.6-4.1,3.9c-1.9,2-3.7,3.9-6.1,5.2
	c-1.7,1-3.5,1.9-5.2,2.8c-1.2,0.6-2.4,1.2-3.5,1.8c-1.3,0.7-2.5,1.6-3.7,2.4l-0.1,0.1c-0.3,0.2-0.6,0.4-0.9,0.5
	C6.2,40.8,9.9,36.8,15,33.2z M25.3,33c2.4-3.5,4.5-4.3,8.5-3.4c-0.7,0.7-1.5,1.1-2.2,1.5c-0.6,0.3-1.2,0.7-1.8,1.1
	C28.6,33.2,27.2,33.4,25.3,33z M26.2,34.4c-0.9,0.5-1.7,1-2.5,1.5c-1.2,0.8-2.3,1.5-3.6,1.9c1.3-1,2.5-2.1,3.7-3.4
	c0.5-0.5,1-0.4,1.7-0.2C25.8,34.3,26,34.3,26.2,34.4z M18.5,39.1c-0.3,0.2-0.5,0.4-0.7,0.7c-1.5,1.4-2.9,2.7-5.3,1.6
	c0.2-0.1,0.4-0.2,0.7-0.3C14.8,40.2,16.5,39.4,18.5,39.1z M9,46.7c-1.8,1.5-3.6,3-5.4,4.6l-1.1,1c0.3-1.3,0.7-2.4,1.1-3.4
	c0.2-0.6,0.4-1.1,0.6-1.6c0.1-0.2,0.2-0.3,0.4-0.4c0.5-0.1,1-0.2,1.6-0.3c0.9-0.2,1.7-0.4,2.6-0.5c0,0,0.1,0,0.1,0
	c0.2,0,0.3,0,0.3,0.1c0,0,0,0,0,0.1C9.2,46.4,9.1,46.6,9,46.7z M10.1,45.4c-1.6-0.2-3.1,0-5,0.3c2.4-2.6,5.2-3.5,8.7-2.9
	c-0.3,0.2-0.5,0.4-0.8,0.6c-0.8,0.6-1.5,1.2-2.3,1.8C10.6,45.4,10.3,45.4,10.1,45.4z M12.1,46.9c0-1,0.2-1.2,2.5-2.6
	C14.1,46.3,14,46.4,12.1,46.9z M19.3,44.1c0,0.4-0.2,0.6-0.7,0.7c-0.8,0.2-1.5,0.4-2.3,0.6l-0.9,0.2c0.3-2.2,1.8-3.3,3.3-4.5
	c0.4-0.3,0.9-0.7,1.3-1.1c0,0,0.2,0,0.3,0c0.1,0,0.1,0.1,0.1,0.1l0,0c0,0.1,0,0.2-0.1,0.2C19.6,41.6,19.5,42.8,19.3,44.1z
	 M25.9,42.3c-0.1,0.3-0.3,0.4-0.6,0.5l-0.2,0.1c-1.3,0.4-2.6,0.8-3.8,1.3c-0.4,0.1-0.6,0.1-0.7,0.1c-0.1-0.1-0.1-0.3-0.1-0.8
	c0.4-3,1.6-4.9,4-6c0.4-0.2,0.8-0.4,1.2-0.7c0.5-0.3,1-0.7,1.7-0.9c-0.1,0.5-0.2,1.1-0.4,1.6C26.6,39.1,26.2,40.7,25.9,42.3z
	 M33,39.9c-0.1,0-0.2,0.1-0.3,0.1c-1.7,0.9-3.6,1.5-5.4,2.1c0.3-3.3,1-5.6,2.4-7.4c1.4-1.8,3.5-3.1,6.7-4.3
	c-0.3,0.8-0.5,1.6-0.8,2.4c-0.7,2-1.3,3.9-1.6,5.9C34,39.5,33.5,39.7,33,39.9z M35.5,38c-0.3-0.4-0.2-0.7,0-1.1
	c0.1-0.4,0.3-0.7,0.4-1.1c0.6-1.6,1.3-3.2,1.8-4.9c0.4-1.1,1.1-1.8,2.2-2.1c0.4-0.1,0.7-0.2,1.1-0.4c0.8-0.3,1.6-0.6,2.4-0.6
	C41.8,31.7,39.2,35,35.5,38z M29.5,28.3l0.1-0.1c1-0.8,1.9-1.6,3.2-1.7c2.8-0.2,5.7-0.4,8.4-0.5c0.9,0,1.8-0.1,2.7-0.1c0,0,0,0,0,0
	c0.1,0,0.2,0,0.2,0.1c0,0,0,0.1,0,0.1C38.8,27.8,34.1,28.6,29.5,28.3z M42.7,9.1c1.2,1,2.1,2.2,3.1,3.3c0.2,0.3,0.5,0.6,0.7,0.9
	c0.2,0.3,0.1,0.6,0.1,0.9l0,0.1c-0.2,0.8-0.4,1.6-0.7,2.5l-0.2,0.9C42.7,15.4,42.1,13.7,42.7,9.1z M40.9,7.5c0.4,0.3,0.4,0.6,0.4,1
	c0,1.3,0.1,2.6,0.1,3.9c0,0.5,0,0.9,0.1,1.4l-0.1,0c-1.6-1.2-3-2.2-3-4.4c0-0.6-0.2-1.2-0.4-1.8c-0.2-0.6-0.4-1.3-0.4-2
	C38.7,6.1,39.7,6.7,40.9,7.5z M33.3,3.7c0.1,0,0.1,0,0.1,0c2.5,0.3,2.9,2.1,3.4,4c0.1,0.2,0.1,0.4,0.2,0.7c0.1,0.4,0.2,0.9,0.3,1.3
	c0,0.2,0.1,0.3,0.1,0.5c-2.9-0.9-3.4-3.3-4-5.8C33.3,4.2,33.3,3.9,33.3,3.7L33.3,3.7z M26.2,1.9c0.1-0.2,0.3-0.2,0.5-0.2
	c0,0,0.1,0,0.1,0c1.6,0.1,3.1,0.5,4.3,0.9c0.3,0.1,0.5,0.3,0.6,0.6c0,0.1,0.1,0.2,0.1,0.4c0.1,0.3,0.2,0.7,0.2,1
	c0.2,0.7,0.3,1.5,0.6,2.2c-1.4-0.8-3.1-1.6-5.1-2c-0.2-0.1-0.6-0.5-0.9-1.2C26.3,2.8,26.1,2.1,26.2,1.9z M24.2,1.7
	c0.4,0,0.7,0.1,0.8,0.5c0,0,0,0,0,0.1c0.1,0.4,0.3,0.8,0.5,1.3c0.1,0.2,0.2,0.4,0.2,0.6l-6.4-1.7C21.2,2.1,22.7,1.8,24.2,1.7z
	 M18.9,4.7c-0.3-0.2-0.6-0.4-0.9-0.6c-0.1-0.1-0.3-0.2-0.4-0.3l-0.3-0.2c0.1-0.1,0.3-0.1,0.4,0l0,0l0,0c1.5-0.1,2.8,0.3,4.2,0.8
	c0.7,0.3,1.5,0.5,2.3,0.7C22,6.1,20.6,6,18.9,4.7z M24.2,9c-0.6-0.5-1.2-1-1.9-1.6C22,7.2,21.8,7,21.5,6.8c0.9-0.2,1.8-0.2,2.6-0.2
	c0.7,0,1.4,0,2.1-0.1c1.7-0.3,3.1,0.4,4.7,1.1c0.2,0.1,0.4,0.2,0.6,0.3c-1,0.4-1.9,0.5-2.7,0.7c-0.3,0-0.7,0.1-1,0.2
	c-0.3,0.1-0.6,0.1-0.9,0.1c-0.6,0.1-1.1,0.1-1.7,0.3C24.8,9.3,24.5,9.2,24.2,9z M27.8,12c-0.1-0.1-0.1-0.1-0.2-0.2
	c-0.4-0.4-0.9-0.7-1.3-1.1c-0.2-0.2-0.4-0.3-0.5-0.5c0.4-0.3,0.9-0.3,1.3-0.3c0.2,0,0.4,0,0.6,0c0.2,0,0.5-0.1,0.7-0.1
	c0.4,0,0.8-0.1,1.1-0.2c2.8-1,5.2-0.2,7.1,2.2c-1.5-0.1-2.9,0.1-4.3,0.4c-1,0.2-2.1,0.3-3.1,0.4C28.5,12.6,28.1,12.3,27.8,12z
	 M33,16.2c-0.3-0.3-0.7-0.6-1.1-0.9c-0.6-0.5-1.2-0.9-1.7-1.5c2.1-0.4,4.8-0.9,7.6-0.7c0.6,0,0.9,0.4,1.2,0.7
	c0.1,0.1,0.3,0.3,0.4,0.4c0.4,0.3,0.8,0.7,1.1,1c0.2,0.1,0.3,0.3,0.5,0.4c-0.3,0.2-0.6,0.2-0.9,0.2c-0.1,0-0.2,0-0.3,0
	c-1.8-0.1-3.4,0.2-5,0.8C34.1,16.8,33.6,16.7,33,16.2z M39.6,19.9c-0.4,0.1-0.7-0.1-1.1-0.3c-0.1-0.1-0.2-0.1-0.3-0.2
	c-0.7-0.4-1.3-0.7-2-1.2c-0.3-0.2-0.6-0.3-0.9-0.5c1.4-0.6,2.8-0.6,4.2-0.6c0.4,0,0.9,0,1.3,0c1.6-0.1,2.8,0.5,3.7,1.7l0.1,0.2
	L44.4,19l0,0c-0.7,0.2-1.4,0.3-2.1,0.4C41.3,19.5,40.4,19.6,39.6,19.9z M46.4,21.6c-1.4-0.1-2.8-0.3-4-0.9c0.4,0,0.9-0.1,1.3-0.1
	c1.5-0.2,3.1-0.4,4.4,1.3C47.5,21.7,47,21.6,46.4,21.6z M49.5,20.8c-0.8-0.5-1.5-1.1-2.3-1.6c-0.3-0.2-0.3-0.5-0.3-0.8
	c0-0.1,0-0.1,0-0.2c0-1.1,0.2-2.2,0.6-3.3c1.1,1.8,2.2,3.9,2.8,6.5C50.1,21.2,49.8,21,49.5,20.8z"/>
</svg>
