<?xml version="1.0" encoding="utf-8"?>
<!-- Generator: Adobe Illustrator 23.0.1, SVG Export Plug-In . SVG Version: 6.00 Build 0)  -->
<svg version="1.1" id="Layer_1" xmlns="http://www.w3.org/2000/svg" xmlns:xlink="http://www.w3.org/1999/xlink" x="0px" y="0px"
	 viewBox="0 0 24.6 38.6" style="enable-background:new 0 0 24.6 38.6;" xml:space="preserve">
<path style="fill:#C1CCBF;" d="M19.6,4.5C16.8,7,14,9.6,11.2,12.2c-1.7,1.6-3.1,3.4-4.2,5.5c-0.9,1.8-1.7,3.7-2.4,5.6
	c-1.8,4.4-2.4,9.2-4.5,13.5C0,36.9,0,37.2,0,37.5c0,1.1,0.4,1.4,1.4,0.9c3.3-1.9,6.7-3.6,9.9-5.6c4.3-2.7,7.8-6.3,10.1-11
	c2.1-4.4,2.6-9,2.6-13.7c0-1.8,0.2-3.6,0.6-5.6c-0.4-0.8-1-1.6-1.6-2.4C22.1,1.7,21,3.2,19.6,4.5z M20.8,4.9
	C20.8,4.9,20.8,5,20.8,4.9c0.1,0.1,0.1,0.1,0,0.2C20.8,5.1,20.7,5.1,20.8,4.9C20.7,5,20.7,4.9,20.8,4.9z M4.3,29.3
	c2.2-6.5,4.3-13,9.9-17.5c0.1-0.1,0.2-0.1,0.2-0.1c-1.2,7.1-5.1,12.7-10.1,17.7c-0.1,0.1-0.1,0.4-0.3,0.2
	C4.1,29.6,4.1,29.4,4.3,29.3z M18.1,25c-1.5,2.2-3.4,3.9-5.5,5.4C9.2,33,5.4,35.1,1.1,37.2c1-2.4,1.9-4.5,3.5-6.1
	c2-1.9,3.6-4.1,5.4-6.1c2.2-2.5,3.5-5.3,4.4-8.5c1.1-3.7,2.5-7.2,4.9-10.2c0.3-0.3,0.6-0.7,0.9-1c0.1-0.1,0.2-0.1,0.4-0.1
	C19.7,12,17,17.9,13,23.3c1.4-0.4,4.4-5.4,6.1-8.7c1.7-3.2,1.8-6.9,3.5-10.2C23.5,11.5,21.7,19.8,18.1,25z"/>
</svg>
