<?xml version="1.0" encoding="utf-8"?>
<!-- Generator: Adobe Illustrator 23.0.1, SVG Export Plug-In . SVG Version: 6.00 Build 0)  -->
<svg version="1.1" id="Layer_1" xmlns="http://www.w3.org/2000/svg" xmlns:xlink="http://www.w3.org/1999/xlink" x="0px" y="0px"
	 viewBox="0 0 33.2 38.6" style="enable-background:new 0 0 33.2 38.6;" xml:space="preserve">
<g>
	<path style="fill:#C1CCBF;" d="M30.8,3.5c-0.5-1.4-1.2-2.6-2.2-3.5l0,0L28,0l0,0.1c-0.1,0.2-0.2,0.4-0.3,0.6
		C27.4,1,27.2,1.4,27,1.7c-1.6,3.5-2.6,7.2-3.2,10.8c-0.7,4.1-1.2,9.5,0.6,14.9c0.1,0.3,0.2,0.6,0.3,0.8c0.2,0.5,0.4,1.1,0.5,1.7
		c-0.1-0.1-0.2-0.2-0.4-0.3c-0.3-0.2-0.5-0.5-0.8-0.7c-0.9-0.9-1.8-1.8-2.8-2.6c-1.1-0.9-1.7-2-2-3.3c-0.7-3.8-2.4-7.3-5.3-11.6
		C11.1,7.2,7.3,3.9,2.4,1.2C2.1,1,1.7,0.8,1.4,1.1C0.9,1.5,1.1,2,1.1,2.2c0.2,0.7,0.4,1.4,0.7,2.1c1.5,4.9,3.1,10,6.6,14.2
		c3.1,3.6,6.5,6.1,10.6,7.6c0.5,0.2,0.9,0.4,1.2,0.7c0.6,0.6,1.2,1.3,1.8,1.9c0.9,1,1.8,2,2.8,2.9c0.5,0.5,1,1,1.4,1.5
		c0.2,0.2,0.4,0.5,0.6,0.7c0.2,0.2,0.2,0.3,0.1,0.3c0,0,0,0-0.2,0c0,0-0.1,0-0.1-0.1c-0.7-0.2-1.3-0.6-2-0.9c-0.8-0.4-1.6-0.8-2.4-1
		c-2.8-0.8-5.8-1.4-8.9-1.8c-4-0.5-7.8,0.6-11.1,3l-0.3,0.2c-0.6,0.5-1.3,0.9-1.8,1.5C0.1,35.4-0.1,35.7,0,36
		c0.1,0.3,0.3,0.5,0.7,0.6c0.3,0.1,0.5,0.1,0.8,0.2c0.3,0.1,0.7,0.2,1,0.3c3.9,1.4,7.9,1.5,11.7,1.5c4.7,0,9.6-0.9,14.5-2.6
		c0.3-0.1,0.3-0.1,0.5,0c0.2,0.2,0.5,0.5,0.7,0.7c0.3-0.5,0.6-1,0.9-1.5c-0.5-0.5-1-0.9-1.4-1.3l-0.1-0.1c-0.7-0.6-1.1-1-0.4-1.8
		c0.2-0.2,0.4-0.6,0.6-1.1c1.6-4,2.8-8.2,3.5-12.4C33.8,13,32.4,8.1,30.8,3.5z M17.5,24.5c-0.1,0.1-0.2,0-0.4-0.1
		c-0.1,0-0.1-0.1-0.2-0.1c-2.7-1.4-5.1-3.2-7-5.3C6,14.6,4.1,9.4,2.4,2.9c3.1,1.9,5.8,4.3,8.1,7.1c2.7,3.3,4.8,6.8,6.4,10.6
		c0.2,0.5,0.4,1,0.5,1.6c-0.1-0.1-0.2-0.2-0.3-0.3c-0.4-0.5-0.8-0.9-1.1-1.4c-0.8-1-1.6-2-2.4-2.9c-1.3-1.6-2.7-3.2-3.9-4.9
		c-0.2-0.3-0.5-0.7-0.7-1c-0.7-1-1.4-2.1-2.2-3.1l0-0.1C6.5,8.3,6.3,8,5.9,8.2C5.7,8.3,5.7,8.4,5.7,8.5c0,0.2,0.1,0.3,0.3,0.4
		C6,9,6,9,6,9c4.2,6.2,7.6,10.8,11.2,14.9c0,0,0.1,0.1,0.1,0.1C17.6,24.3,17.6,24.4,17.5,24.5z M6.1,35.6c5.6,0,11.8,0.1,19.3,0.3
		c-1.4,0.9-6.2,1.8-11.9,1.7c-4.4,0-8.3-0.2-12-1.9c2.4-1.8,5.7-3.9,9.8-4c4.7-0.2,9.5,0.8,14.1,2.9c0,0,0,0,0,0
		c-1.6,0-3.1,0-4.6-0.1c-5.1-0.1-9.9-0.2-14.7,0.8l-1.6,0.3L6.1,35.6z M31.3,17.5c-0.5,3.9-1.5,7.7-2.6,11.2
		c-0.1,0.2-0.1,0.3-0.1,0.5c-0.2,0.6-0.3,1.2-0.6,1.8c0-3,0.1-6.1,0.2-9.1c0.2-4.9,0.4-10,0.2-15l0-0.4l-0.3,0.3
		c-0.6,0.8-0.7,1.8-0.7,2.6l0,0.1c-0.1,2.3-0.2,4.6-0.3,6.8c-0.2,3.9-0.5,7.9-0.4,11.9c0,0.5,0,1-0.1,1.5c0,0,0,0.1,0,0.1
		c-1.1-2-2.1-4.5-2.2-7.3c-0.1-2.4,0-4.7,0.1-6.9c0.1-2.5,0.6-4.8,1.3-7C25.9,8.3,26,8,26.1,7.6c0.6-1.8,1.2-3.7,2.2-5.5
		c0,0.1,0.1,0.2,0.1,0.3c0.2,0.3,0.4,0.6,0.5,1C30.6,7.8,32,12.5,31.3,17.5z"/>
</g>
</svg>
