<?xml version="1.0" encoding="utf-8"?>
<!-- Generator: Adobe Illustrator 23.0.1, SVG Export Plug-In . SVG Version: 6.00 Build 0)  -->
<svg version="1.1" id="Layer_1" xmlns="http://www.w3.org/2000/svg" xmlns:xlink="http://www.w3.org/1999/xlink" x="0px" y="0px"
	 viewBox="0 0 35.4 30.1" style="enable-background:new 0 0 35.4 30.1;" xml:space="preserve">
<path style="fill:#C1CCBF;" d="M35.1,27.8c-1.5-4.9-3.7-9.4-6.3-13.8c-1.4-2.3-3.1-4.3-5.2-6.1c-4.8-4-10.6-6-16.5-7.4
	c-2-0.5-4-0.4-5.9-0.2C0.5,0.5,0.2,0.3,0,0c0.5,1.9,1.5,3.6,2.4,5.4c0,0,0.1,0,0.1-0.1c0.4,0.5,0.8,1,1.2,1.6
	c2.5,3.6,4.9,7.4,8.1,10.5c6,6,12.7,10.9,21.3,12.6C35.2,30.4,35.8,29.9,35.1,27.8z M3.4,4.3c8.7,4.1,16.4,9.7,23.8,15.8
	C19.9,12,11,6.2,1.3,1.6c6.8-0.8,12.7,1.8,18.2,5c8.4,4.8,11.2,13.4,14.2,21.8C19.9,25.2,11.1,15.5,3.4,4.3z"/>
</svg>
