<?xml version="1.0" encoding="utf-8"?>
<!-- Generator: Adobe Illustrator 23.0.1, SVG Export Plug-In . SVG Version: 6.00 Build 0)  -->
<svg version="1.1" id="Layer_1" xmlns="http://www.w3.org/2000/svg" xmlns:xlink="http://www.w3.org/1999/xlink" x="0px" y="0px"
	 viewBox="0 0 36.9 43.7" style="enable-background:new 0 0 36.9 43.7;" xml:space="preserve">
<path style="fill:#C1CCBF;" d="M36.8,27c-0.1,0-0.2-0.1-0.3-0.1c-0.2-0.1-0.4-0.2-0.7-0.1c-2.8,1.1-5.9,1.6-9.7,1.7
	c-4.4,0.1-8.3,1.5-11.6,4.4c0,0-0.1,0.1-0.1,0.1c-0.1,0.1-0.2,0.3-0.5,0.2c0.3-1.1,0.6-2.1,1-3.1c0.5-1.3,0.9-2.6,1.2-4
	c0-0.1,0.1-0.2,0.1-0.3c0.1,0,0.2,0,0.3,0c1.5,0.3,3,0.3,4.7,0c1.3-0.3,2.7-0.8,4.4-1.6c2.7-1.3,5-3.4,7.1-5.4
	c0.2-0.2,0.4-0.4,0.6-0.6c0.7-0.6,1.2-1.5,1.5-2.6c0.2-0.8,0.1-1.6-0.4-2.3c-0.5-0.7-1.2-1.1-2-1.1c-0.3,0-0.6,0-0.9,0
	c-0.1,0-0.3,0-0.4,0c0.1-0.2,0.3-0.5,0.4-0.7c0.5-0.7,1-1.4,0.4-2.3c-0.6-0.9-1.5-0.7-2.4-0.5c-0.2,0-0.5,0.1-0.7,0.1
	c0.1-0.3,0.2-0.6,0.3-0.9c0.3-0.8,0.6-1.6,0-2.4c-0.7-0.9-1.7-0.6-2.5-0.3c-0.2,0.1-0.5,0.1-0.7,0.2c0-0.1,0-0.2,0-0.4
	c0-0.3,0-0.5,0-0.8c0-0.8-0.1-1.7-1-2.1c-0.9-0.4-1.5,0.2-2.1,0.7l0,0c-0.3,0.3-0.6,0.6-0.9,1c-0.1,0.2-0.3,0.3-0.4,0.5
	c0-0.2-0.1-0.4-0.1-0.6c-0.2-0.9-0.3-1.8-0.6-2.7c-0.2-0.6-0.5-1-0.9-1c-0.4-0.1-0.8,0.1-1.3,0.5c-0.4,0.4-0.7,0.8-0.9,1.2
	c-0.3,0.5-0.5,1-0.8,1.5c-0.1,0.2-0.2,0.4-0.3,0.6l-0.1-0.2c-0.1-0.2-0.2-0.4-0.3-0.5l0,0C15.8,2.6,15.5,2,14.7,2
	c-0.7,0-1,0.6-1.2,1.2c-0.2,0.5-0.3,1-0.5,1.4c-0.1,0.2-0.1,0.4-0.2,0.6c-0.2-0.2-0.3-0.4-0.5-0.6c-0.4-0.4-0.7-0.8-1.1-1.2
	l-0.1-0.1C10.4,2.7,9.7,2,8.6,2.5C7.7,2.8,7.3,4,7.5,5.5c0,0,0,0.1,0,0.1c0,0,0,0,0,0.1c1,4.9,2.8,9.7,5.6,14.7
	c0.1,0.2,0.2,0.4,0.4,0.6c0.7,1.2,1.3,2.4,1.9,3.7c0.1,0.3,0.2,0.7,0.1,1.1c-0.4,1.4-0.8,2.7-1.2,4c-0.6,1.8-1.2,3.6-1.6,5.4
	c0,0.2-0.2,0.4-0.3,0.5c-0.1,0.2-0.3,0.4-0.3,0.7c-0.1,1.2-0.7,2.2-1.3,3.2c-0.1,0.2-0.2,0.4-0.4,0.6c0-0.9,0-1.7,0-2.6
	c0-1.4,0-2.8-0.2-4.2C9.7,29.6,8.8,26,7.3,22.7c-1.5-3.4-3.5-6.5-5.9-9.3c0,0-0.1-0.1-0.1-0.1c-0.2-0.3-0.5-0.6-0.9-0.4
	c-0.5,0.2-0.4,0.6-0.3,1c0,0.1,0,0.1,0,0.2c0.1,0.7,0.2,1.4,0.4,2.2c0.1,0.3,0.1,0.7,0.2,1c0.3,1.9,0.5,3.9,0.7,5.8
	c0.1,1.4,0.2,2.9,0.4,4.3c0.7,5.1,2.9,9.6,7,13.9c0.6,0.6,0.7,1.3,0.4,2c0,0,0,0,0,0c0.4,0,0.7,0.1,1,0.3c0.6-1.3,1.3-2.7,1.9-4
	c0.3-0.6,0.5-1.2,0.8-1.8c0.5-1.2,0.7-1.3,2-1.2c0.5,0,0.9,0.1,1.4,0.1c1.3,0.1,2.6,0.3,3.9,0.2c6.6-0.3,11.9-3,15.8-7.9
	c0.3-0.4,0.5-0.8,0.8-1.2c0.1-0.2,0.2-0.4,0.3-0.6l0,0L36.8,27L36.8,27z M32.2,13.5l0.2,0c0,0,0.1,0,0.1,0c0.3,0,0.6,0.1,0.8,0.4
	c0.3,0.4,0.3,0.9,0.2,1.4c-0.3,0.9-0.8,1.5-1.3,2c-0.2,0.2-0.5,0.4-0.7,0.6c-2.2,1.9-4.5,3.8-7.2,5c-1.7,0.8-3.5,1.2-5.7,1.4
	c1.5-1.6,3-3.1,4.8-4.4c1.8-1.4,3.5-3,5.4-5.1C29.6,13.8,30.9,13.6,32.2,13.5z M30.9,9.9c-0.3,0.8-0.9,1.4-1.4,2
	c-0.1,0.1-0.2,0.2-0.3,0.4c-0.1,0.1-0.1,0.1-0.2,0.2c-0.3,0.3-0.7,0.7-0.5,1.3c0,0.2-0.1,0.3-0.2,0.4c0,0-0.1,0.1-0.1,0.1
	c-1.8,2-4,4-7.1,6.3c-0.2,0.1-0.3,0.2-0.6,0.1c0.6-0.8,1.2-1.7,1.8-2.5c1.6-2.2,3.2-4.5,4.9-6.8C27.7,10.6,29.7,9.8,30.9,9.9z
	 M25.1,8c0.6-0.8,1.2-1.5,2.3-1.8c0.2,0,0.3-0.1,0.5-0.1c0.2,0,0.3,0,0.3,0.1c0.1,0.1,0.1,0.4,0,0.8L28,7.3c-0.5,1.4-1.1,2.9-2,4.1
	c-0.6,0.8-1.1,1.5-1.7,2.3c-2.1,2.9-4.4,5.8-6.4,8.8c0,0-0.1,0.1-0.1,0.1c0,0,0,0.1-0.1,0.1c0,0-0.1,0-0.1,0c0,0,0,0,0-0.1
	c0-0.1,0.1-0.2,0.1-0.2l0,0l0,0c0.8-2.8,2.2-5.4,3.6-8c0.4-0.7,0.8-1.5,1.2-2.3l0.1-0.2c0.6-1.2,1.3-2.5,2.1-3.5
	C24.8,8.3,24.9,8.2,25.1,8z M20.9,8.9c0.4-1.7,1.1-3.2,2.2-4.7c0.2-0.2,0.4-0.4,0.6-0.6c0,0,0.1-0.1,0.1-0.1
	c0.2-0.2,0.4-0.4,0.7-0.3c0.3,0.2,0.4,0.6,0.4,0.9c0,0.3-0.1,0.6-0.1,0.8C24.6,5.9,24.4,7,23.8,8c-2,3.3-4,6.9-5.6,10.7L18,18.7
	c0.1-0.2,0.1-0.4,0.2-0.6c0.1-0.5,0.3-1,0.4-1.4c0.2-0.8,0.5-1.6,0.8-2.4C19.9,12.5,20.5,10.7,20.9,8.9z M16.9,5.7
	c0.3-0.2,0.4-0.6,0.5-0.9c0-0.1,0-0.2,0.1-0.3c0.4-1.2,0.9-2.1,1.6-3c0,0,0-0.1,0.1-0.1c0.1-0.1,0.2-0.3,0.4-0.2
	c0.2,0,0.2,0.2,0.2,0.4c0,0,0,0.1,0,0.1c0,0.3,0.1,0.5,0.2,0.8c0.1,0.6,0.2,1.2,0.3,1.8c0.2,1.8,0.2,3.7-0.6,5.5
	c-1,2.3-1.8,4.8-2.6,8.2c0,0.1-0.1,0.2-0.1,0.3c0,0,0,0.1,0,0.1c0,0-0.1,0-0.1,0l0-2.5c0-2.3,0-4.8,0-7.1c0-0.1,0-0.2,0-0.3
	c0-0.6,0-1.2-0.1-1.8C16.6,6.2,16.5,5.9,16.9,5.7z M15.2,21.5c-0.1-0.2-0.2-0.3-0.3-0.5c-0.2-0.4-0.5-0.8-0.7-1.2
	c-2.3-4-4-8.3-5.4-13.2C8.5,5.7,8.5,4.9,8.6,4.1C8.7,3.7,8.8,3.5,9,3.5c0.1,0,0.1,0,0.2,0c0.1,0,0.3,0.1,0.5,0.2
	c0.6,0.3,1.1,0.8,1.5,1.3c1.1,1.5,2,2.9,2.1,4.8c0.1,1.8,0.5,3.6,0.8,5.3c0.1,0.8,0.3,1.5,0.4,2.3c0.2,1.1,0.5,2.3,0.8,3.4
	c0.1,0.3,0.1,0.5,0.2,0.8L15.2,21.5z M15.2,16c-0.2-0.8-0.4-1.6-0.5-2.4c-0.2-1.4-0.5-2.8-0.9-4C13.5,8.3,13.8,7,14,5.8
	c0-0.1,0-0.2,0.1-0.3l0,0c0.1-0.7,0.3-1.5,0.8-2.3c0.1,0.2,0.2,0.3,0.3,0.5C15.5,4.5,16,5.2,16,6.1c0,3.1-0.1,6.3-0.1,9.4
	c0,1,0,2.1-0.1,3.1c0,0,0,0,0,0.1C15.7,17.8,15.4,16.9,15.2,16z M9,36.9c0,0,0-0.1,0-0.1c-0.3-0.9-0.5-1.8-0.8-2.7
	C7.6,32,7,29.9,6.4,27.8c-0.2-0.6-0.4-1.2-0.6-1.7c0,0,0-0.1,0-0.1c-0.1-0.2-0.1-0.4-0.3-0.4c-0.1,0-0.2,0-0.3,0
	C4.9,25.7,5,26,5,26.3c0,0,0,0.1,0,0.1c0.1,0.6,0.3,1.2,0.4,1.8c0.5,2.1,1,4.3,1.7,6.4c0.2,0.8,0.5,1.6,0.7,2.4
	c0.1,0.5,0.3,1,0.4,1.5l0,0c0.1,0.3,0.2,0.5,0.1,0.8c-2.1-2.6-4.3-5.7-5.1-9.6c-0.5-2.5-0.8-5-1-7.4c-0.2-2.3-0.4-4.7-0.9-7
	c4.7,5.9,7.3,13.1,8,22.1C9.1,37.2,9.1,37,9,36.9z M26.8,34.2c-3.8,1.5-8.1,2-12.2,1.5c1.1-0.3,2.3-0.6,3.4-0.8
	c2.2-0.4,4.2-0.8,6-2.1l0.1-0.1l-8.7,1.5c3-2.8,5.8-4.3,8.8-4.5c3.5-0.3,7.3-0.7,10.9-2c0,0,0.1,0,0.2,0c0,0,0,0,0,0
	C33.5,30.5,30.4,32.7,26.8,34.2z"/>
</svg>
