<?xml version="1.0" encoding="utf-8"?>
<!-- Generator: Adobe Illustrator 23.0.1, SVG Export Plug-In . SVG Version: 6.00 Build 0)  -->
<svg version="1.1" id="Layer_1" xmlns="http://www.w3.org/2000/svg" xmlns:xlink="http://www.w3.org/1999/xlink" x="0px" y="0px"
	 viewBox="0 0 262.5 239.3" style="enable-background:new 0 0 262.5 239.3;" xml:space="preserve">
<g>
	<g>
		<path style="fill:#C4CCBF;" d="M211.7,239.3c-0.2,0-0.3,0-0.5-0.1c-0.9-0.3-1.4-1.2-1.1-2.1c0.3-0.9,27-86.5,27.3-116.6
			c0.3-30-20.3-75.4-20.5-75.9c-0.4-0.8,0-1.8,0.8-2.2c0.8-0.4,1.8,0,2.2,0.8c0.9,1.9,21.2,46.6,20.8,77.3
			c-0.4,30.6-26.3,114-27.5,117.5C213,238.8,212.4,239.3,211.7,239.3z"/>
	</g>
	<g>
		<path style="fill:#C4CCBF;" d="M218.7,44.9c0,0,1.1-7.9-3.3-12c-4.4-4.1-5.6-2.6-6.5-1.8c-2.8,2.5-0.8,5.2,1,8
			C211.7,41.9,218.7,44.9,218.7,44.9z"/>
		<path style="fill:#C4CCBF;" d="M218.7,46.6c-0.2,0-0.5,0-0.7-0.1c-0.8-0.3-7.5-3.3-9.5-6.4l-0.3-0.4c-1.8-2.7-4.2-6.5-0.5-9.8
			c2.5-2.2,5-1.7,8.8,1.8c5,4.7,3.9,13.1,3.8,13.5c-0.1,0.5-0.4,1-0.8,1.2C219.2,46.5,218.9,46.6,218.7,46.6z M210.8,31.9
			c-0.3,0-0.5,0.2-0.7,0.3l-0.2,0.1c-1.4,1.2-1,2.3,1,5.5l0.3,0.4c0.8,1.3,3.5,2.9,5.8,4.1c0-2.4-0.5-6-2.9-8.2
			C212.3,32.3,211.4,31.9,210.8,31.9z"/>
	</g>
	<g>
		<path style="fill:#C4CCBF;" d="M227.3,62.1c0,0,8.3-7.3,8.7-10.7c0.4-3.4,0.1-8.7-1.7-9.5s-5.8,3-5.7,8
			C228.7,55,227.3,62.1,227.3,62.1z"/>
		<path style="fill:#C4CCBF;" d="M227.3,63.8c-0.3,0-0.6-0.1-0.8-0.2c-0.6-0.4-1-1.1-0.8-1.8c0-0.1,1.3-7.1,1.2-11.8
			c-0.1-4.1,2.2-7.5,4.4-9c1.3-0.9,2.6-1.1,3.7-0.6c3.6,1.6,2.8,10.2,2.7,11.2c-0.4,3.8-7.2,9.9-9.3,11.8
			C228.1,63.7,227.7,63.8,227.3,63.8z M233.7,43.6c-0.9,0.3-3.4,2.7-3.4,6.4c0,2.4-0.2,5.2-0.5,7.6c2.5-2.5,4.5-5.1,4.6-6.2
			C234.8,47.6,234.2,44.4,233.7,43.6z"/>
	</g>
	<g>
		<path style="fill:#C4CCBF;" d="M225.7,61.9c0,0-8.7,2.2-11.7,0.6c-3-1.6-7.2-4.8-6.9-6.7c0.4-1.9,5.8-3.1,9.8-0.2
			S225.7,61.9,225.7,61.9z"/>
		<path style="fill:#C4CCBF;" d="M217.4,64.8c-1.6,0-3.1-0.2-4.2-0.8c-0.9-0.5-8.5-4.6-7.8-8.5c0.2-1.2,1.1-2.1,2.6-2.7
			c2.4-1,6.5-1,9.9,1.4c4,2.8,8.8,6.4,8.8,6.4c0.5,0.4,0.8,1,0.7,1.7c-0.1,0.6-0.6,1.1-1.2,1.3C225,63.8,220.9,64.8,217.4,64.8z
			 M208.7,56.2c0.3,0.9,2.7,3.1,6,4.9c1.1,0.6,4.1,0.4,6.9,0c-1.7-1.2-3.8-2.7-5.7-4.1C212.9,54.8,209.5,55.6,208.7,56.2z"/>
	</g>
	<g>
		<path style="fill:#C4CCBF;" d="M236,89.2c0,0,9.4-6.9,10.5-10.6c1.1-3.7,2-9.6,0.1-10.8c-1.8-1.3-7,2.1-8,7.6
			C237.7,80.9,236,89.2,236,89.2z"/>
		<path style="fill:#C4CCBF;" d="M236,90.9c-0.3,0-0.6-0.1-0.9-0.3c-0.6-0.4-0.9-1.1-0.7-1.8c0-0.1,1.7-8.3,2.7-13.8
			c0.8-4.5,4-7.7,6.6-8.8c1.5-0.6,3-0.6,4,0.1c3.5,2.5,0.8,11.7,0.5,12.7c-1.2,4-9.5,10.2-11.2,11.4C236.7,90.8,236.3,90.9,236,90.9
			z M245.7,69.2c0,0-0.6,0.1-1.6,0.7c-1.5,1-3.3,3-3.8,5.8c-0.5,2.9-1.2,6.5-1.8,9.4c3-2.5,5.9-5.4,6.4-6.9
			C246.2,73.9,246.3,69.8,245.7,69.2z"/>
	</g>
	<g>
		<path style="fill:#C4CCBF;" d="M234.4,89c0,0-11.7-0.5-14.6-2.9s-7-6.9-6.1-8.9c0.8-2.1,7-2.2,10.9,1.8S234.4,89,234.4,89z"/>
		<path style="fill:#C4CCBF;" d="M234.4,90.7C234.4,90.7,234.3,90.7,234.4,90.7c-2.1-0.1-12.5-0.6-15.7-3.3
			c-0.8-0.7-8.2-6.8-6.7-10.8c0.5-1.2,1.6-2,3.3-2.3c2.8-0.6,7.3,0.3,10.4,3.6c3.8,4,9.8,9.9,9.9,9.9c0.5,0.5,0.6,1.2,0.4,1.9
			C235.7,90.3,235.1,90.7,234.4,90.7z M217,77.5c0,0-0.1,0-0.1,0c-1.2,0-1.7,0.3-1.7,0.4c-0.1,0.8,2.2,4.1,5.7,6.9
			c1.2,1,5.3,1.8,9.2,2.2c-2-2-4.7-4.7-6.7-6.8C221.3,78.2,218.8,77.5,217,77.5z"/>
	</g>
	<g>
		<path style="fill:#C4CCBF;" d="M239.7,115.7c0,0,11.2-5.8,13-9.6c1.8-3.7,3.6-9.9,1.9-11.5c-1.7-1.6-7.9,1.1-9.8,6.8
			C242.9,107.2,239.7,115.7,239.7,115.7z"/>
		<path style="fill:#C4CCBF;" d="M239.7,117.4c-0.4,0-0.8-0.1-1.1-0.4c-0.5-0.5-0.7-1.2-0.5-1.8c0-0.1,3.2-8.6,5.1-14.3
			c1.6-4.6,5.5-7.5,8.4-8.2c1.7-0.4,3.2-0.2,4.1,0.7c3.4,3.2-1.3,13.1-1.5,13.5c-1.9,4-11.8,9.3-13.7,10.3
			C240.2,117.4,240,117.4,239.7,117.4z M253.2,95.8c-0.3,0-0.8,0.1-1.5,0.4c-1.8,0.7-4.2,2.7-5.3,5.8c-1.1,3.1-2.5,7.1-3.5,10
			c3.6-2.2,7.5-4.9,8.3-6.6c2.2-4.5,2.8-8.8,2.2-9.6C253.4,95.9,253.3,95.8,253.2,95.8z"/>
	</g>
	<g>
		<path style="fill:#C4CCBF;" d="M238,115.3c0,0-12.4-2.4-15.2-5.5c-2.8-3.1-6.3-8.4-5.1-10.5s7.8-1.2,11.3,3.7
			C232.6,107.9,238,115.3,238,115.3z"/>
		<path style="fill:#C4CCBF;" d="M238,117c-0.1,0-0.2,0-0.3,0c-2.2-0.4-13.1-2.7-16.1-6c-0.3-0.3-7.7-8.5-5.3-12.5
			c0.7-1.1,2-1.8,3.7-1.9c3-0.1,7.6,1.5,10.4,5.5c3.4,4.8,8.9,12.1,8.9,12.2c0.4,0.6,0.4,1.3,0.1,1.9C239.2,116.7,238.6,117,238,117
			z M220.4,99.9c-0.8,0-1.2,0.2-1.2,0.2c-0.3,0.8,1.6,4.8,4.9,8.5c1.3,1.4,5.7,2.9,9.9,3.9c-1.9-2.5-4.4-6-6.3-8.6
			c-1.9-2.7-4.8-3.9-6.7-4C220.8,99.9,220.6,99.9,220.4,99.9z"/>
	</g>
	<g>
		<path style="fill:#C4CCBF;" d="M235.9,146.4c0,0,15.6-1.1,18.7-4.7c3.2-3.6,7.2-9.9,5.8-12.3c-1.4-2.4-9.1-1.2-13.1,4.5
			C243.4,139.6,235.9,146.4,235.9,146.4z"/>
		<path style="fill:#C4CCBF;" d="M235.9,148.1c-0.7,0-1.3-0.4-1.5-1c-0.3-0.7-0.1-1.4,0.4-1.9c0.1-0.1,7.4-6.7,11.2-12.2
			c3.2-4.6,8.4-6.5,11.8-6.4c2,0.1,3.4,0.8,4.2,2c2.7,4.5-5.6,13.9-6,14.3c-3.5,3.9-17.2,5.1-19.9,5.3
			C236,148.1,236,148.1,235.9,148.1z M257.5,129.9C257.5,129.9,257.4,129.9,257.5,129.9c-2.6,0-6.4,1.6-8.7,5
			c-2.3,3.3-5.6,6.8-8.1,9.4c5.5-0.7,11.3-2,12.8-3.7c4-4.5,6.2-9.4,5.6-10.3C259,130.1,258.5,129.9,257.5,129.9z"/>
	</g>
	<g>
		<path style="fill:#C4CCBF;" d="M235.4,147.2c0,0-13.1-6.6-15.2-10.9c-2.1-4.3-4.4-11.4-2.4-13.4s9.1,1.2,11.5,7.8
			C231.7,137.2,235.4,147.2,235.4,147.2z"/>
		<path style="fill:#C4CCBF;" d="M235.4,148.9c-0.3,0-0.5-0.1-0.8-0.2c-1.4-0.7-13.6-7-16-11.7c-0.2-0.5-5.8-11.7-2-15.4
			c1-1,2.6-1.3,4.5-0.8c3.4,0.8,7.9,4,9.7,9.3c2.3,6.5,6.1,16.4,6.1,16.5c0.2,0.7,0.1,1.4-0.4,1.9
			C236.3,148.7,235.8,148.9,235.4,148.9z M219.6,124c-0.3,0-0.5,0.1-0.6,0.1c-0.8,0.8,0,6,2.7,11.4c1,2.1,6.1,5.5,10.5,8
			c-1.3-3.5-3.2-8.5-4.5-12.3c-1.4-3.8-4.6-6.3-7-7C220.2,124,219.8,124,219.6,124z"/>
	</g>
	<g>
		<path style="fill:#C4CCBF;" d="M230.2,174.1c0,0,16.8-2.1,20.8-6c4-3.9,9.2-10.8,7.8-13.7c-1.4-2.9-10.4-2.3-15.5,4
			C238.2,164.8,230.2,174.1,230.2,174.1z"/>
		<path style="fill:#C4CCBF;" d="M230.2,175.8c-0.6,0-1.2-0.3-1.5-0.9c-0.3-0.6-0.3-1.4,0.2-1.9c0.1-0.1,8-9.4,13.1-15.6
			c4-4.9,10-6.7,14-6.2c2.1,0.2,3.7,1.1,4.4,2.5c2.6,5.2-7.7,15.2-8.1,15.6c-4.3,4.1-20,6.2-21.8,6.5
			C230.4,175.8,230.3,175.8,230.2,175.8z M254.7,154.5c-3.1,0-7.3,1.6-10.1,5.1c-3.1,3.9-7.4,8.9-10.2,12.2
			c6.1-1.1,13.4-2.9,15.5-4.9c4.8-4.7,8.1-10.3,7.5-11.7c-0.1-0.2-0.7-0.6-1.8-0.7C255.3,154.5,255,154.5,254.7,154.5z"/>
	</g>
	<g>
		<path style="fill:#C4CCBF;" d="M228.3,172.8c0,0-14.5-8.8-16.6-14c-2.1-5.2-4-13.6-1.5-15.7c2.5-2.1,10.4,2.2,12.5,10
			C224.9,161,228.3,172.8,228.3,172.8z"/>
		<path style="fill:#C4CCBF;" d="M228.3,174.5c-0.3,0-0.6-0.1-0.9-0.2c-1.5-0.9-15-9.3-17.2-14.8c-0.2-0.6-5.5-13.9-1-17.6
			c1.2-1,3-1.2,5.1-0.5c3.8,1.2,8.5,5.3,10.2,11.4c2.1,7.7,5.5,19.5,5.5,19.6c0.2,0.7,0,1.4-0.6,1.8
			C229.1,174.3,228.7,174.5,228.3,174.5z M211.9,144.3c-0.3,0-0.5,0.1-0.6,0.1c-1.2,1-0.5,7.5,2,13.7c1.1,2.7,7,7.3,12.1,10.8
			c-1.2-4.2-3-10.5-4.3-15.3c-1.3-4.7-4.9-8.1-8-9.1C212.7,144.3,212.2,144.3,211.9,144.3z"/>
	</g>
	<g>
		<path style="fill:#C4CCBF;" d="M222.5,203.2c0,0,16.8-2.1,20.8-6s9.2-10.8,7.8-13.7s-10.4-2.3-15.5,4
			C230.5,193.9,222.5,203.2,222.5,203.2z"/>
		<path style="fill:#C4CCBF;" d="M222.5,204.9c-0.6,0-1.2-0.3-1.5-0.9c-0.3-0.6-0.3-1.4,0.2-1.9c0.1-0.1,8-9.4,13.1-15.6
			c4-4.9,10-6.7,13.9-6.2c2.1,0.2,3.7,1.1,4.4,2.5c2.6,5.2-7.7,15.2-8.1,15.6c-4.3,4.1-20,6.2-21.8,6.5
			C222.6,204.9,222.6,204.9,222.5,204.9z M247,183.6c-3.1,0-7.3,1.6-10.1,5.1c-3.1,3.9-7.4,8.9-10.2,12.2c6.1-1.1,13.4-2.9,15.5-4.9
			c4.8-4.7,8.1-10.3,7.5-11.7c-0.1-0.2-0.7-0.6-1.8-0.7C247.6,183.6,247.3,183.6,247,183.6z"/>
	</g>
	<g>
		<path style="fill:#C4CCBF;" d="M222,203.1c0,0-15.8-10.1-17.9-15.2c-2.1-5.2-4-13.6-1.5-15.7c2.5-2.1,10.4,2.2,12.5,10
			C217.2,190,222,203.1,222,203.1z"/>
		<path style="fill:#C4CCBF;" d="M222,204.8c-0.3,0-0.6-0.1-0.9-0.3c-1.7-1.1-16.3-10.5-18.6-16c-0.2-0.6-5.5-13.9-1-17.6
			c1.2-1,3-1.2,5.1-0.5c3.8,1.2,8.5,5.3,10.2,11.4c2.1,7.7,6.8,20.6,6.8,20.7c0.3,0.7,0,1.4-0.5,1.9
			C222.7,204.6,222.3,204.8,222,204.8z M204.2,173.4c-0.3,0-0.5,0.1-0.6,0.1c-1.2,1-0.6,7.3,2,13.7c1.1,2.7,7.5,7.7,13,11.6
			c-1.6-4.5-3.9-11.3-5.2-16.2c-1.3-4.7-4.9-8.1-8-9.1C204.9,173.4,204.5,173.4,204.2,173.4z"/>
	</g>
	<g>
		<path style="fill:#C4CCBF;" d="M67.1,81.7c0,0,2.9-15,8.1-10.4C80.3,75.9,67.1,81.7,67.1,81.7z"/>
		<path style="fill:#C4CCBF;" d="M67.1,83.3c-0.4,0-0.7-0.1-1.1-0.4c-0.5-0.4-0.7-1-0.6-1.6c0.5-2.6,2.5-11.1,6.6-12.5
			c1-0.3,2.6-0.4,4.3,1.1c1.7,1.5,1.9,3.2,1.7,4.3c-0.7,4.6-8.6,8.2-10.2,8.9C67.6,83.3,67.3,83.3,67.1,83.3z M73.3,72.1
			c-0.1,0-0.1,0-0.1,0c-1.1,0.4-2.5,3.2-3.5,6.4c2.5-1.5,4.8-3.3,5-4.7c0-0.2,0.1-0.6-0.6-1.2C73.6,72.1,73.4,72.1,73.3,72.1z"/>
	</g>
	<g>
		<path style="fill:#C4CCBF;" d="M75.5,97.6c0,0,4.8-10.4,7.3-5.2C85.4,97.6,75.5,97.6,75.5,97.6z"/>
		<path style="fill:#C4CCBF;" d="M75.5,99.3c-0.6,0-1.1-0.3-1.4-0.8c-0.3-0.5-0.4-1.1-0.1-1.6c1-2.3,3.8-7.6,7.1-7.6
			c1,0,2.3,0.4,3.3,2.4c1,2,0.6,3.5,0,4.4C82.4,99.1,76.6,99.3,75.5,99.3C75.5,99.3,75.5,99.3,75.5,99.3z M80.9,92.6
			c-0.4,0.1-1.5,1.4-2.5,3c1.4-0.3,2.6-0.7,3-1.3c0.1-0.1,0.2-0.4-0.2-1.2C81.1,92.7,80.9,92.6,80.9,92.6z"/>
	</g>
	<g>
		<path style="fill:#C4CCBF;" d="M52.7,63.4c0,0-7.4-17.9,1.3-15.8C62.7,49.6,52.7,63.4,52.7,63.4z"/>
		<path style="fill:#C4CCBF;" d="M52.7,65c-0.1,0-0.1,0-0.2,0c-0.6-0.1-1.1-0.5-1.4-1c-0.9-2.1-5.1-13-1.8-16.9
			c0.8-0.9,2.3-1.9,5-1.2c2.8,0.7,4,2.3,4.4,3.6c2,5.3-4.1,13.9-4.8,14.9C53.8,64.8,53.3,65,52.7,65z M52.8,49
			c-0.4,0-0.6,0.1-0.8,0.3c-1,1.2-0.3,5.8,1.2,10.3c1.8-3.1,3.3-6.9,2.6-8.9c-0.2-0.5-0.6-1.2-2.1-1.5C53.3,49.1,53,49,52.8,49z"/>
	</g>
	<g>
		<path style="fill:#C4CCBF;" d="M41.6,68.2c0,0-1.7-12.8-5-7.8S41.6,68.2,41.6,68.2z"/>
		<path style="fill:#C4CCBF;" d="M41.6,69.9c-0.2,0-0.4,0-0.6-0.1c-0.6-0.2-5.4-2-6.6-5.5c-0.4-1.1-0.5-2.8,0.8-4.8
			c1.3-1.9,2.6-2,3.5-1.8c2.7,0.6,4,6,4.6,10.4c0.1,0.6-0.2,1.2-0.6,1.5C42.4,69.8,42,69.9,41.6,69.9z M38.1,61.3
			C38.1,61.3,38.1,61.3,38.1,61.3c-0.7,1-0.6,1.6-0.4,1.9c0.2,0.7,0.9,1.4,1.7,1.9C39,63.5,38.5,62,38.1,61.3z M38.5,60.9L38.5,60.9
			L38.5,60.9z"/>
	</g>
	<g>
		<path style="fill:#C4CCBF;" d="M24.4,68.4c0,0,3.4-14.4-1.4-12.5C18.1,57.9,24.4,68.4,24.4,68.4z"/>
		<path style="fill:#C4CCBF;" d="M24.4,70.1c-0.6,0-1.1-0.3-1.4-0.8c-0.5-0.8-4.6-8-3.2-12.2c0.4-1.3,1.3-2.2,2.6-2.7
			c1.7-0.7,2.9,0,3.4,0.4c2.7,2.4,1.1,10.6,0.3,14c-0.2,0.7-0.7,1.2-1.4,1.3C24.6,70.1,24.5,70.1,24.4,70.1z M23.7,57.5
			C23.6,57.5,23.6,57.5,23.7,57.5c-0.4,0.1-0.6,0.3-0.7,0.7c-0.4,1,0,2.9,0.7,4.8C24,60.4,24,58.3,23.7,57.5z"/>
	</g>
	<g>
		<path style="fill:#C4CCBF;" d="M18.3,81.2c0,0-9.5-10.3-10.6-6.1C6.6,79.4,18.3,81.2,18.3,81.2z"/>
		<path style="fill:#C4CCBF;" d="M18.3,82.9c-0.1,0-0.2,0-0.3,0c-1.5-0.2-9.1-1.6-11.4-5c-0.6-1-0.8-2.1-0.6-3.1
			c0.3-1.1,1-1.9,2.1-2.2c3.1-0.8,8.5,4.4,11.4,7.6c0.5,0.5,0.6,1.3,0.2,1.9C19.4,82.6,18.9,82.9,18.3,82.9z M9.4,76
			C9.4,76,9.4,76,9.4,76c0.5,0.7,1.5,1.3,2.8,1.9C11,76.9,10,76.2,9.4,76z"/>
	</g>
	<g>
		<path style="fill:#C4CCBF;" d="M27.7,104.5c0,0,4.6-10.9-1.4-9.2S27.7,104.5,27.7,104.5z"/>
		<path style="fill:#C4CCBF;" d="M27.7,106.2c-0.4,0-0.9-0.2-1.2-0.5c-0.9-0.8-5-5.3-4.1-8.8c0.3-1.1,1.1-2.5,3.4-3.1
			c2.3-0.7,3.6,0.1,4.3,0.9c2.3,2.6,0,8.8-0.8,10.6c-0.2,0.5-0.7,0.9-1.2,1C27.9,106.2,27.8,106.2,27.7,106.2z M27.6,96.8
			c0,0-0.3,0-0.8,0.1c-0.5,0.1-1,0.4-1.1,0.7c-0.2,0.8,0.5,2.1,1.4,3.5C27.7,99.1,27.9,97.3,27.6,96.8z"/>
	</g>
	<g>
		<path style="fill:#C4CCBF;" d="M16.6,109.9c0,0-6.4-10.8-8.9-5.3S16.6,109.9,16.6,109.9z"/>
		<path style="fill:#C4CCBF;" d="M16.1,111.6c-2,0-7.9-0.3-9.9-3.3c-0.6-0.9-1.1-2.4-0.1-4.4c0.9-2,2.3-2.5,3.3-2.6
			c3.7-0.2,7.5,5.8,8.6,7.7c0.3,0.5,0.3,1.2,0,1.7c-0.3,0.5-0.8,0.9-1.4,0.9C16.5,111.6,16.3,111.6,16.1,111.6z M9.6,104.7
			C9.6,104.7,9.6,104.7,9.6,104.7c-0.1,0-0.3,0.2-0.5,0.6c-0.4,0.8-0.2,1-0.1,1.1c0.5,0.8,2.3,1.3,4.2,1.5
			C11.7,106.1,10.3,104.7,9.6,104.7z"/>
	</g>
	<g>
		<path style="fill:#C4CCBF;" d="M64.2,120.6c0,0,5.5-6.8,6.8-2.3C72.4,122.8,64.2,120.6,64.2,120.6z"/>
		<path style="fill:#C4CCBF;" d="M68,122.9c-1.7,0-3.5-0.4-4.2-0.6c-0.5-0.1-1-0.6-1.2-1.1c-0.2-0.5-0.1-1.1,0.3-1.6
			c1-1.2,4.3-5,7.2-4.4c0.7,0.1,2,0.7,2.6,2.7c0.6,2-0.2,3.2-0.7,3.7C71,122.6,69.5,122.9,68,122.9z M67.7,119.5
			c0.9,0,1.6,0,1.8-0.2c0,0,0-0.2-0.1-0.4c0-0.2-0.1-0.3-0.1-0.3C69,118.5,68.4,118.9,67.7,119.5z"/>
	</g>
	<g>
		<path style="fill:#C4CCBF;" d="M57,114c0,0-0.6-10.3,2.4-7.9C62.3,108.3,57,114,57,114z"/>
		<path style="fill:#C4CCBF;" d="M57,115.7c-0.2,0-0.4,0-0.6-0.1c-0.6-0.2-1.1-0.8-1.1-1.5c-0.3-5.6,0.4-8.9,2.1-9.8
			c0.4-0.2,1.6-0.7,3,0.4c0.9,0.7,1.5,1.7,1.5,2.9c0.2,3.2-3,6.9-3.7,7.6C57.9,115.5,57.4,115.7,57,115.7z"/>
	</g>
	<g>
		<path style="fill:#C4CCBF;" d="M59.8,149.3c0,0-3.8-9.7-0.1-9.3C63.4,140.4,59.8,149.3,59.8,149.3z"/>
		<path style="fill:#C4CCBF;" d="M59.8,151C59.8,151,59.8,151,59.8,151c-0.7,0-1.3-0.4-1.6-1.1c-0.9-2.4-2.9-8.1-1.1-10.5
			c0.6-0.8,1.6-1.2,2.7-1.1c1.1,0.1,2,0.7,2.5,1.6c1.7,2.8-0.4,8.4-1.1,10C61.1,150.6,60.5,151,59.8,151z"/>
	</g>
	<g>
		<path style="fill:#C4CCBF;" d="M71.7,149.8c0,0-3.8-11.6,0.8-9.4C77,142.5,71.7,149.8,71.7,149.8z"/>
		<path style="fill:#C4CCBF;" d="M71.7,151.5c-0.1,0-0.2,0-0.3,0c-0.6-0.1-1.1-0.5-1.3-1.1c-1.3-4.1-2.5-9.4-0.4-11.2
			c0.5-0.5,1.7-1.1,3.5-0.3c1.4,0.6,2.3,1.7,2.7,3.1c0.9,3.6-2.4,8.3-2.8,8.8C72.7,151.2,72.2,151.5,71.7,151.5z M71.9,141.9
			c-0.1,0.7,0.1,1.9,0.3,3.3c0.3-0.9,0.5-1.8,0.3-2.4C72.5,142.5,72.4,142.2,71.9,141.9z"/>
	</g>
	<g>
		<path style="fill:#C4CCBF;" d="M73.1,158.7c0,0,7.2-6.5,8.2-2.7C82.3,159.7,73.1,158.7,73.1,158.7z"/>
		<path style="fill:#C4CCBF;" d="M75.7,160.5c-1.2,0-2.3-0.1-2.8-0.2c-0.7-0.1-1.2-0.5-1.4-1.2c-0.2-0.6,0-1.3,0.5-1.8
			c1.7-1.6,6-5.1,8.8-4.2c1.1,0.3,1.8,1.1,2.1,2.3c0.3,1.2,0.1,2.3-0.7,3.1C80.9,160.1,78,160.5,75.7,160.5z M79.7,156.4
			c-0.3,0-0.7,0.2-1.2,0.5C79,156.8,79.5,156.6,79.7,156.4z"/>
	</g>
	<g>
		<path style="fill:#C4CCBF;" d="M36.4,151c0,0,0-9-2.7-8.1C31,143.8,36.4,151,36.4,151z"/>
		<path style="fill:#C4CCBF;" d="M36.4,152.7c-0.5,0-1-0.2-1.3-0.7c-1.4-1.8-4.5-6.3-3.6-8.9c0.3-0.9,0.9-1.5,1.8-1.8
			c0.9-0.3,1.7-0.2,2.5,0.4c2.2,1.6,2.4,7,2.5,9.3c0,0.7-0.5,1.4-1.1,1.6C36.8,152.7,36.6,152.7,36.4,152.7z"/>
	</g>
	<g>
		<path style="fill:#C4CCBF;" d="M21.8,146.2c0,0,2.4-15.4-2.8-13.4S21.8,146.2,21.8,146.2z"/>
		<path style="fill:#C4CCBF;" d="M21.8,147.9c-0.5,0-1.1-0.3-1.4-0.7c-1-1.4-5.9-8.8-4.6-13.2c0.4-1.3,1.3-2.3,2.6-2.8
			c1.8-0.7,3,0,3.5,0.4c3.2,2.5,2,12,1.5,14.8c-0.1,0.7-0.6,1.2-1.3,1.4C22,147.9,21.9,147.9,21.8,147.9z M19.8,134.3
			c0,0-0.1,0-0.2,0.1c-0.4,0.1-0.5,0.3-0.6,0.6c-0.4,1.2,0.4,3.6,1.6,5.9C20.7,137.6,20.5,134.9,19.8,134.3z"/>
	</g>
	<g>
		<path style="fill:#C4CCBF;" d="M10.6,145.5c0,0-8.9-6.1-8.9-1.1S10.6,145.5,10.6,145.5z"/>
		<path style="fill:#C4CCBF;" d="M4.8,148.5c-1.1,0-2.2-0.2-3.1-0.8c-0.8-0.5-1.7-1.5-1.7-3.4c0-2,1.1-2.9,1.7-3.2
			c2.8-1.5,7.8,1.6,9.8,3c0.5,0.3,0.8,0.9,0.7,1.6c-0.1,0.6-0.4,1.1-1,1.4C10.5,147.3,7.5,148.5,4.8,148.5z M3.4,144.1
			c0,0.1,0,0.1,0,0.3c0,0.5,0.1,0.6,0.2,0.6c0.5,0.3,1.6,0.3,2.8,0C5.1,144.4,3.9,144,3.4,144.1z"/>
	</g>
	<g>
		<path style="fill:#C4CCBF;" d="M31.3,166c0,0-3.2-8.2-6-5.7S31.3,166,31.3,166z"/>
		<path style="fill:#C4CCBF;" d="M31.3,167.7c-0.2,0-0.4,0-0.6-0.1c-2.1-0.7-7-2.8-7.6-5.6c-0.1-0.6-0.2-1.8,1.1-2.9
			c0.9-0.8,2-1.1,3-0.8c3,0.7,5.1,5.6,5.6,7.1c0.2,0.6,0.1,1.3-0.4,1.8C32.2,167.6,31.8,167.7,31.3,167.7z M26.7,161.7
			c0.1,0.1,0.3,0.2,0.4,0.4C27,161.9,26.8,161.7,26.7,161.7z M26.5,161.6C26.5,161.6,26.5,161.6,26.5,161.6
			C26.5,161.6,26.5,161.6,26.5,161.6C26.5,161.6,26.5,161.6,26.5,161.6z"/>
	</g>
	<g>
		<path style="fill:#C4CCBF;" d="M24,173.3c0,0-10-10.5-9.9-4.2C14.3,175.3,24,173.3,24,173.3z"/>
		<path style="fill:#C4CCBF;" d="M20.7,175.3c-2,0-4.4-0.3-6.1-1.7c-1.4-1.1-2.1-2.6-2.1-4.5c0-2.3,1-3.2,1.8-3.5
			c2.8-1.2,7.5,2.9,11,6.5c0.4,0.4,0.6,1.1,0.4,1.7c-0.2,0.6-0.7,1-1.3,1.2C24.1,175,22.5,175.3,20.7,175.3z M15.8,168.8
			c0,0.1,0,0.1,0,0.2c0,1.2,0.5,1.7,0.8,1.9c0.8,0.7,2.2,0.9,3.5,0.9C18.4,170.3,16.7,169.1,15.8,168.8z"/>
	</g>
	<g>
		<path style="fill:#C4CCBF;" d="M35.9,181c0,0-8.9,1.9-6.1,4.5C32.6,188.2,35.9,181,35.9,181z"/>
		<path style="fill:#C4CCBF;" d="M31.1,187.8c-0.9,0-1.8-0.4-2.5-1c-1.3-1.2-1.2-2.4-1-3c0.7-2.5,5.2-3.8,7.9-4.4
			c0.6-0.1,1.3,0.1,1.7,0.6c0.4,0.5,0.5,1.2,0.2,1.8c-0.4,0.9-2.6,5.4-5.6,6C31.6,187.8,31.4,187.8,31.1,187.8z M31.5,184.3
			c0,0-0.1,0.1-0.1,0.1C31.4,184.4,31.5,184.3,31.5,184.3z"/>
	</g>
	<g>
		<path style="fill:#C4CCBF;" d="M56,182.3c-0.3,0-0.5-0.1-0.7-0.2c-0.8-0.4-1.2-1.4-0.8-2.3l8.5-17.3l7.2-13.7
			c0.4-0.8,1.5-1.1,2.3-0.7c0.8,0.4,1.1,1.5,0.7,2.3L66,164.2l-8.5,17.2C57.2,182,56.6,182.3,56,182.3z"/>
	</g>
	<g>
		<path style="fill:#C4CCBF;" d="M64.5,165.1c-0.6,0-1.2-0.3-1.5-0.9c-1.8-3.7-4.7-13.9-4.8-14.3c-0.2-0.9,0.3-1.8,1.2-2.1
			c0.9-0.2,1.8,0.3,2.1,1.2c0,0.1,2.9,10.3,4.6,13.7c0.4,0.8,0.1,1.8-0.8,2.3C65,165,64.7,165.1,64.5,165.1z"/>
	</g>
	<g>
		<path style="fill:#C4CCBF;" d="M57.3,186c-0.5,0-1-0.2-1.4-0.7c-2.1-2.9-9-5-13.6-6.3c-3.9-1.2-10.3-2.6-18.5-4.1
			c-0.9-0.2-1.5-1-1.4-2c0.2-0.9,1-1.5,2-1.4c8.5,1.5,14.8,2.9,18.9,4.1c5.6,1.7,12.7,3.8,15.4,7.6c0.5,0.8,0.4,1.8-0.4,2.4
			C57.9,185.9,57.6,186,57.3,186z"/>
	</g>
	<g>
		<path style="fill:#C4CCBF;" d="M36.6,177.5c-0.6,0-1.2-0.3-1.5-0.9l-5.3-9.7c-0.4-0.8-0.1-1.8,0.7-2.3c0.8-0.4,1.8-0.1,2.3,0.7
			l5.3,9.7c0.4,0.8,0.1,1.8-0.7,2.3C37.2,177.4,36.9,177.5,36.6,177.5z"/>
	</g>
	<g>
		<path style="fill:#C4CCBF;" d="M74.3,234.3c-0.7,0-1.3-0.4-1.6-1.1c-1.1-3-27.6-74.3-28.5-86.7c-0.5-7-3-42-1-48.2
			c1.7-5.1,7.7-34.9,7.8-35.2c0.2-0.9,1.1-1.5,2-1.3c0.9,0.2,1.5,1.1,1.3,2c-0.3,1.2-6.2,30.3-7.9,35.6c-1.3,4.1-0.3,27.2,1.1,46.9
			c0.9,12,28,85.1,28.3,85.8c0.3,0.9-0.1,1.8-1,2.2C74.7,234.2,74.5,234.3,74.3,234.3z"/>
	</g>
	<g>
		<path style="fill:#C4CCBF;" d="M45.3,139.1c-0.4,0-0.9-0.2-1.2-0.5c-1.2-1.2-11.4-11.5-13.3-14.3c-1.2-1.8-10.1-9-15.3-13.1
			c-0.7-0.6-0.9-1.6-0.3-2.4c0.6-0.7,1.6-0.9,2.4-0.3c1.4,1.1,14.1,11,16,13.8c1.5,2.1,9.8,10.7,12.9,13.8c0.7,0.7,0.6,1.7,0,2.4
			C46.2,138.9,45.7,139.1,45.3,139.1z"/>
	</g>
	<g>
		<path style="fill:#C4CCBF;" d="M29.9,122.3c-0.8,0-1.6-0.6-1.7-1.5L26,104.7c-0.1-0.9,0.5-1.8,1.4-1.9c0.9-0.1,1.8,0.5,1.9,1.4
			l2.2,16.1c0.1,0.9-0.5,1.8-1.4,1.9C30.1,122.3,30,122.3,29.9,122.3z"/>
	</g>
	<g>
		<path style="fill:#C4CCBF;" d="M44.2,109.8c-0.7,0-1.3-0.4-1.6-1.1c-0.1-0.1-5.4-14-9.9-19.5c-4.3-5.3-7-12.6-9-17.9
			c-0.3-0.8-0.6-1.5-0.8-2.1c-0.3-0.9,0.1-1.8,1-2.2c0.9-0.3,1.8,0.1,2.2,1c0.3,0.7,0.5,1.4,0.8,2.2c1.9,5.1,4.6,12.1,8.5,17
			c4.8,6,10.2,19.9,10.4,20.4c0.3,0.9-0.1,1.8-1,2.2C44.6,109.7,44.4,109.8,44.2,109.8z"/>
	</g>
	<g>
		<path style="fill:#C4CCBF;" d="M32.1,87c-0.2,0-0.3,0-0.5-0.1l-13.8-4.1c-0.9-0.3-1.4-1.2-1.1-2.1c0.3-0.9,1.2-1.4,2.1-1.1
			l13.8,4.1c0.9,0.3,1.4,1.2,1.1,2.1C33.5,86.5,32.8,87,32.1,87z"/>
	</g>
	<g>
		<path style="fill:#C4CCBF;" d="M48.9,82.1c-0.6,0-1.1-0.3-1.5-0.8l-7.2-12.2c-0.5-0.8-0.2-1.8,0.6-2.3c0.8-0.5,1.8-0.2,2.3,0.6
			l7.2,12.2c0.5,0.8,0.2,1.8-0.6,2.3C49.5,82.1,49.2,82.1,48.9,82.1z"/>
	</g>
	<g>
		<path style="fill:#C4CCBF;" d="M46,100c-0.7,0-1.4-0.4-1.6-1.2c-0.3-0.9,0.2-1.8,1.1-2.1l13.7-4.6l6.4-11.3
			c0.5-0.8,1.5-1.1,2.3-0.6c0.8,0.5,1.1,1.5,0.6,2.3l-6.7,11.9c-0.2,0.4-0.5,0.6-0.9,0.8L46.6,100C46.4,100,46.2,100,46,100z"/>
	</g>
	<g>
		<path style="fill:#C4CCBF;" d="M75.5,99.3c-0.1,0-0.3,0-0.4-0.1l-15.1-4c-0.9-0.2-1.4-1.2-1.2-2.1c0.2-0.9,1.2-1.4,2.1-1.2l15.1,4
			c0.9,0.2,1.4,1.2,1.2,2.1C76.9,98.8,76.2,99.3,75.5,99.3z"/>
	</g>
	<g>
		<path style="fill:#C4CCBF;" d="M45.1,135.6c-0.3,0-0.6-0.1-0.9-0.3c-0.8-0.5-1-1.5-0.5-2.3c1.7-2.7,6.3-10.2,7.2-12.4
			c1.2-3,4.6-7.5,4.8-7.7c0.6-0.7,1.6-0.9,2.4-0.3c0.7,0.6,0.9,1.6,0.3,2.4c0,0-3.3,4.3-4.3,6.9c-1.2,3-7.2,12.6-7.5,13
			C46.2,135.4,45.7,135.6,45.1,135.6z"/>
	</g>
	<g>
		<path style="fill:#C4CCBF;" d="M51,125.7c-0.7,0-1.4-0.5-1.6-1.3c-0.2-0.9,0.3-1.8,1.2-2.1l13.2-3.4c0.9-0.2,1.8,0.3,2.1,1.2
			c0.2,0.9-0.3,1.8-1.2,2.1l-13.2,3.4C51.3,125.7,51.2,125.7,51,125.7z"/>
	</g>
	<g>
		<path style="fill:#C4CCBF;" d="M48,161c-0.3,0-0.6-0.1-0.8-0.2c-0.4-0.2-1.1-0.6-1.9-1.1c-4-2.3-12.5-7.2-15.8-8.3
			c-4.2-1.3-18.2-4.4-18.4-4.4c-0.9-0.2-1.5-1.1-1.3-2c0.2-0.9,1.1-1.5,2-1.3c0.6,0.1,14.3,3.2,18.6,4.4c3.8,1.1,12.1,6,16.6,8.6
			c0.8,0.5,1.4,0.8,1.9,1.1c0.8,0.5,1.1,1.5,0.6,2.3C49.2,160.7,48.6,161,48,161z"/>
	</g>
	<g>
		<path style="fill:#C4CCBF;" d="M73.1,160.3C73.1,160.3,73.1,160.3,73.1,160.3l-5.3-0.1c-0.9,0-1.7-0.8-1.7-1.7
			c0-0.9,0.7-1.7,1.7-1.7l5.3,0.1c0.9,0,1.7,0.8,1.7,1.7C74.8,159.6,74,160.3,73.1,160.3z"/>
	</g>
	<g>
		<path style="fill:#C4CCBF;" d="M35.9,182.7c-0.5,0-1-0.2-1.4-0.7c-0.5-0.8-0.4-1.8,0.4-2.4l5.6-4.1c0.8-0.5,1.8-0.4,2.4,0.4
			c0.5,0.8,0.4,1.8-0.4,2.4l-5.6,4.1C36.6,182.6,36.2,182.7,35.9,182.7z"/>
	</g>
	<g>
		<path style="fill:#C4CCBF;" d="M124.5,7.4c0,3.4,5.6,14.4,8.8,19.1c3.1,4.7,9.7,8.5,9.7,8.5s-0.3-18.2-1.4-22.2
			c-1.4-5.2-2.8-10.7-7.1-10C130.1,3.4,124.5,4,124.5,7.4z"/>
		<path style="fill:#C4CCBF;" d="M143,36.7c-0.3,0-0.6-0.1-0.8-0.2c-0.3-0.2-7-4-10.3-9c-2.7-4.1-9.1-15.8-9.1-20
			c0-4.7,6.2-5.6,10.7-6.3l0.7-0.1c5.7-0.8,7.5,5.8,9,11.1c1.2,4.3,1.5,20.9,1.5,22.8c0,0.6-0.3,1.2-0.8,1.5
			C143.6,36.6,143.3,36.7,143,36.7z M135.1,4.4c-0.1,0-0.2,0-0.4,0L134,4.5c-3.1,0.4-7.8,1.1-7.8,2.9c0,2.6,5,12.9,8.5,18.2
			c1.7,2.5,4.5,4.8,6.6,6.2c-0.2-6.1-0.6-16-1.3-18.6C138.5,7.9,137.4,4.4,135.1,4.4z"/>
	</g>
	<g>
		<path style="fill:#C4CCBF;" d="M144.8,34.4c0,0,20.5-17,19.2-21.8c-1.3-4.8-8.1-11.3-10.4-10.9s-8.8,19.6-8.8,23.8
			S144.8,34.4,144.8,34.4z"/>
		<path style="fill:#C4CCBF;" d="M144.8,36c-0.2,0-0.5-0.1-0.7-0.2c-0.6-0.3-1-0.9-1-1.5v-8.9c0-2.7,6-24.7,10.2-25.5
			c3.7-0.7,11.1,7.1,12.4,12.1c1.4,5.3-13.4,18.2-19.8,23.5C145.5,35.9,145.2,36,144.8,36z M154,3.4c-2.1,2.5-7.6,18.4-7.6,22.1v5.2
			c9.2-8,16.2-15.8,15.9-17.7C161.3,9,155.8,4,154,3.4z M154.2,3.2"/>
	</g>
	<g>
		<path style="fill:#C4CCBF;" d="M143.4,25.4c0,0-0.3-20,1.3-20.8s7.2,1.8,7.2,1.8L143.4,25.4z"/>
		<path style="fill:#C4CCBF;" d="M143.4,27c-0.1,0-0.2,0-0.3,0c-0.8-0.2-1.3-0.8-1.3-1.6C141.4,4.3,143,3.5,144,3
			c2.1-1,6.3,0.7,8.7,1.8c0.8,0.4,1.2,1.4,0.8,2.2L145,26C144.7,26.7,144.1,27,143.4,27z M145.9,6c-0.4,1.6-0.7,6.3-0.7,11.5
			l4.6-10.3C148.2,6.6,146.7,6.1,145.9,6z"/>
	</g>
	<g>
		<path style="fill:#C4CCBF;" d="M126.8,56.8c0,0-3.3-5.2-3.6-7.1c-0.5-3,0.2-9.1,2.1-8.2c1.9,0.8,4.8,6,4,8.9
			S126.8,56.8,126.8,56.8z"/>
		<path style="fill:#C4CCBF;" d="M126.8,58.5c-0.6,0-1.1-0.3-1.4-0.8c-0.6-0.9-3.5-5.6-3.8-7.8c-0.3-1.9-0.4-8,1.9-9.7
			c0.7-0.6,1.7-0.7,2.5-0.3c2.5,1.1,6,7.1,4.9,10.9c-0.9,3-2.5,6.6-2.6,6.7c-0.3,0.6-0.8,0.9-1.4,1
			C126.9,58.5,126.8,58.5,126.8,58.5z M125.3,43.5c-0.4,1.3-0.7,3.9-0.4,5.9c0.1,0.6,0.8,2.1,1.7,3.7c0.4-1,0.8-2.2,1.1-3.2
			C128.2,48.1,126.5,44.8,125.3,43.5z"/>
	</g>
	<g>
		<path style="fill:#C4CCBF;" d="M181.2,82.3c0,0,1-7.8,2.3-8.5c1.3-0.7,5.1-3.4,5.7-2c0.6,1.4-1.3,6.9-3.2,8.1
			C183.9,81.1,181.2,82.3,181.2,82.3z"/>
		<path style="fill:#C4CCBF;" d="M181.2,84c-0.4,0-0.7-0.1-1-0.3c-0.5-0.4-0.7-1-0.6-1.6c1.1-8.6,2.6-9.4,3.2-9.8
			c0.2-0.1,0.5-0.3,0.8-0.5c2.3-1.4,4.2-2.5,5.8-2c0.7,0.2,1.2,0.7,1.5,1.3c1,2.3-1.4,8.6-3.9,10.2c-2.1,1.3-4.9,2.5-5,2.5
			C181.6,83.9,181.4,84,181.2,84z M184.5,75.1c-0.3,0.5-0.8,2.2-1.2,4.3c0.6-0.3,1.2-0.6,1.7-1c1-0.6,2.2-3.4,2.5-5.1
			c-0.8,0.4-1.8,1-2.3,1.3C184.9,74.9,184.7,75,184.5,75.1z M184.5,75.1"/>
	</g>
	<g>
		<path style="fill:#C4CCBF;" d="M108.2,96.7c0,0-12.3-11.9-12.9-16.9c-0.6-5,2.3-8.8,4.6-9.8c2.3-1,5.2,4.4,6.1,9.2
			C106.8,84,108.2,96.7,108.2,96.7z"/>
		<path style="fill:#C4CCBF;" d="M108.2,98.4c-0.4,0-0.8-0.2-1.2-0.5c-2.1-2.1-12.8-12.6-13.4-17.9c-0.7-5.9,2.8-10.3,5.6-11.6
			c0.9-0.4,2-0.4,2.9,0.1c2.7,1.4,4.8,6.2,5.5,10.3c0.8,4.8,2.3,17.1,2.3,17.6c0.1,0.7-0.3,1.4-0.9,1.7
			C108.7,98.3,108.5,98.4,108.2,98.4z M100.4,71.5c-1.6,0.8-4,3.9-3.5,8.1c0.3,2.5,4.9,8,9,12.4c-0.5-4.1-1.2-9.8-1.7-12.6
			C103.5,75.2,101.3,71.7,100.4,71.5z"/>
	</g>
	<g>
		<path style="fill:#C4CCBF;" d="M108.2,96.7c-1.9,2,13.8-8.8,14.6-16.5c0.6-5.4-1.3-5.8-1.3-5.8s-7.9-5.6-8.7-5.6
			s-1.9,14.2-2.3,15.5S108.2,96.7,108.2,96.7z"/>
		<path style="fill:#C4CCBF;" d="M108.1,98.6c-0.6,0-1.2-0.3-1.5-0.9c-0.2-0.3-0.4-0.9,0-1.7c0.4-2.6,1.9-11.2,2.3-12.4
			c0.1-0.4,0.4-2.9,0.6-4.9c1.1-10.3,1.3-11.7,3.3-11.7c0.5,0,1.4,0,9.5,5.8c1,0.5,2.8,2,2.2,7.5c-0.9,7.8-14.6,17.9-16.1,18.2
			C108.3,98.6,108.2,98.6,108.1,98.6z M108.2,96.7l1.2,1.2c0,0,0,0,0,0L108.2,96.7z M108.2,96.7L108.2,96.7L108.2,96.7z M113.8,71.2
			c-0.3,2.1-0.7,5.7-1,7.9c-0.4,3.7-0.6,5.1-0.8,5.6c-0.2,0.6-0.9,4.4-1.6,8.6c3.9-3.1,10.2-9,10.7-13.3c0.3-3-0.2-3.9-0.3-4.1
			c-0.1,0-0.2-0.1-0.3-0.2C118.2,74.1,115.5,72.2,113.8,71.2z M121.1,76C121.1,76,121.1,76,121.1,76C121.1,76,121.1,76,121.1,76z
			 M121.1,76C121.1,76,121.1,76,121.1,76C121.1,76,121.1,76,121.1,76z M121.1,76C121.1,76,121.1,76,121.1,76
			C121.1,76,121.1,76,121.1,76z"/>
	</g>
	<g>
		<path style="fill:#C4CCBF;" d="M112.1,71.4c0,0-3-1.4-4-1.5c-1-0.1-4.3,3.1-4.3,3.1l4.5,16.1L112.1,71.4z"/>
		<path style="fill:#C4CCBF;" d="M108.2,90.7c-0.8,0-1.4-0.5-1.6-1.2l-4.5-16.1c-0.2-0.6,0-1.2,0.5-1.7c3.9-3.8,5.2-3.6,5.7-3.5
			c1.1,0.1,3.5,1.2,4.5,1.7c0.7,0.3,1.1,1.1,0.9,1.9l-3.9,17.6C109.7,90.1,109,90.7,108.2,90.7C108.3,90.7,108.2,90.7,108.2,90.7z
			 M105.7,73.5L108,82l2.1-9.7c-0.9-0.4-1.7-0.7-2.1-0.8C107.6,71.8,106.6,72.6,105.7,73.5z M108.2,71.5L108.2,71.5L108.2,71.5z"/>
	</g>
	<g>
		<path style="fill:#C4CCBF;" d="M172.5,72.9c0,0-10-15.9-10-17.1s0-2.3,0-2.3s0.4-3.6,5-6.3c4.6-2.7,7.1,2.3,6.7,5
			C173.8,54.9,172.5,72.9,172.5,72.9z"/>
		<path style="fill:#C4CCBF;" d="M172.5,74.6c-0.6,0-1.1-0.3-1.4-0.8c-10.3-16.3-10.3-17.5-10.3-18v-2.3c0-0.1,0-0.1,0-0.2
			c0-0.2,0.6-4.4,5.8-7.5c3-1.8,5.2-0.8,6.3-0.1c2.3,1.5,3.3,4.7,2.9,6.8c-0.3,2.1-1.2,14.4-1.7,20.6c-0.1,0.7-0.6,1.3-1.3,1.5
			C172.8,74.6,172.7,74.6,172.5,74.6z M164.2,55.6c0.5,1.2,3.6,6.5,7,12.1c0.4-5.6,1-13.8,1.3-15.7c0.2-1.1-0.4-2.8-1.5-3.5
			c-0.3-0.2-1.1-0.7-2.7,0.2c-3.4,2-4.1,4.5-4.2,5V55.6z"/>
	</g>
	<g>
		<path style="fill:#C4CCBF;" d="M174.3,72.9c0,0,16.9-12.1,13.3-17.3c-3.6-5.2-8.8-10.3-10.2-9.1C175.9,47.6,174.3,72.9,174.3,72.9
			z"/>
		<path style="fill:#C4CCBF;" d="M174.3,74.6c-0.3,0-0.6-0.1-0.8-0.2c-0.6-0.3-0.9-0.9-0.9-1.6c1.7-26,3.1-27.2,3.7-27.7
			c0.4-0.3,1.1-0.7,2.1-0.5c3.1,0.4,8.1,6.2,10.6,10c4.2,6.1-9.5,16.6-13.7,19.7C174.9,74.5,174.6,74.6,174.3,74.6z M178.4,48.2
			c-0.7,2.9-1.6,12-2.3,21.1c6.2-5,11.3-10.8,10-12.8C183.3,52.3,180,49.1,178.4,48.2z"/>
	</g>
	<g>
		<path style="fill:#C4CCBF;" d="M123.5,116.9c0,0-5.5-3.1-3-7.9c2.6-4.8,6.3-3.1,6.1,0C126.4,112.1,123.5,116.9,123.5,116.9z"/>
		<path style="fill:#C4CCBF;" d="M123.5,118.6c-0.3,0-0.6-0.1-0.8-0.2c-2.4-1.4-6.3-5.2-3.6-10.2c1.9-3.5,4.5-4.3,6.3-3.8
			c1.9,0.5,3.1,2.5,3,4.7c-0.2,3.4-3.1,8.2-3.4,8.7C124.6,118.3,124.1,118.6,123.5,118.6z M124.2,107.6c-0.6,0-1.4,0.6-2.2,2.1
			c-1.1,2-0.1,3.6,1,4.6c0.9-1.7,1.9-4,2-5.5c0-0.6-0.2-1.1-0.6-1.2C124.3,107.6,124.3,107.6,124.2,107.6z"/>
	</g>
	<g>
		<path style="fill:#C4CCBF;" d="M113.9,167.9c0,0-6.3-9.2-5.6-11.7c0.6-2.5,2.3-5.6,3.9-5.6c1.6,0,4.3,7.7,4.3,11.3
			S113.9,167.9,113.9,167.9z"/>
		<path style="fill:#C4CCBF;" d="M113.9,169.6c-0.1,0-0.1,0-0.2,0c-0.5,0-1-0.3-1.2-0.7c-2.5-3.7-6.6-10.2-5.9-13.1
			c0.6-2.4,2.5-6.9,5.5-6.9c3.6,0,6,10.4,6,13c0,4.2-2.9,7.1-3,7.2C114.7,169.4,114.3,169.6,113.9,169.6z M111.8,152.5
			c-0.5,0.6-1.5,2.2-2,4.1c-0.1,0.9,1.7,4.5,4,8.3c0.4-0.8,0.8-1.9,0.8-3.1C114.7,159.2,112.9,154.1,111.8,152.5z"/>
	</g>
	<g>
		<path style="fill:#C4CCBF;" d="M164,136.8c0,0-0.5-7.4,1.6-9.9c2.1-2.5,4.5-2.8,3.8,0.6C168.8,130.8,164,136.8,164,136.8z"/>
		<path style="fill:#C4CCBF;" d="M164,138.5c-0.2,0-0.3,0-0.5-0.1c-0.7-0.2-1.1-0.8-1.2-1.5c-0.1-1.4-0.4-8.3,2-11.1
			c1.8-2.1,3.8-3,5.3-2.3c0.8,0.4,2,1.4,1.5,4.2c-0.7,3.6-5.2,9.5-5.7,10.1C165,138.3,164.5,138.5,164,138.5z M167.8,127.1
			c-0.3,0.2-0.6,0.5-0.9,0.9c-0.5,0.6-0.8,1.8-1,3.3C166.8,129.7,167.6,128.2,167.8,127.1C167.8,127.1,167.8,127.1,167.8,127.1z"/>
	</g>
	<g>
		<path style="fill:#C4CCBF;" d="M179,141.6c0,0,0.4-12.1,3.3-14c2.9-1.9,5.6,0,5.7,3.3c0.1,3.3-2.3,6.9-4.5,8.8
			C181.3,141.6,179,141.6,179,141.6z"/>
		<path style="fill:#C4CCBF;" d="M179,143.3c-0.5,0-0.9-0.2-1.2-0.5s-0.5-0.8-0.5-1.2c0.1-3,0.7-13.2,4.1-15.4
			c1.8-1.2,3.8-1.3,5.4-0.5c1.7,0.9,2.8,2.8,2.9,5.2c0.2,3.9-2.5,7.9-5.1,10.1C182,143.2,179.3,143.3,179,143.3z M184.6,128.6
			c-0.5,0-1,0.2-1.4,0.5c-1,0.7-2.1,5.3-2.4,10.4c0.5-0.2,1.1-0.5,1.6-1c2-1.7,4-4.8,3.9-7.4c0-1.1-0.5-2-1.1-2.3
			C185.1,128.6,184.9,128.6,184.6,128.6z"/>
	</g>
	<g>
		<path style="fill:#C4CCBF;" d="M147.7,113.1c-0.4,0-0.7-0.1-1-0.4c-0.7-0.6-0.9-1.6-0.3-2.4c6.2-8,18.6-24.1,20.5-27.9
			c1.6-3,2.9-6,3.7-8c0.7-1.6,0.9-2.1,1.1-2.5c0.5-0.8,1.6-1,2.3-0.5c0.8,0.5,1,1.5,0.5,2.3c-0.1,0.2-0.5,1.1-0.9,2
			c-0.9,2-2.2,5.1-3.8,8.3c-2.6,4.9-20.1,27.4-20.8,28.4C148.7,112.9,148.2,113.1,147.7,113.1z"/>
	</g>
	<g>
		<path style="fill:#C4CCBF;" d="M156.1,103.3c-0.7,0-1.3-0.4-1.6-1.1c-0.3-0.9,0.1-1.8,1-2.2c0.1,0,8.8-3.2,13.5-5.9
			c3.7-2.1,9.5-10.2,11.4-13.2c0.5-0.8,1.5-1,2.3-0.5c0.8,0.5,1,1.6,0.5,2.3c-0.3,0.5-7.4,11.4-12.6,14.3c-4.9,2.7-13.7,5.9-14,6.1
			C156.5,103.3,156.3,103.3,156.1,103.3z"/>
	</g>
	<g>
		<path style="fill:#C4CCBF;" d="M146.1,87c-0.4,0-0.9-0.2-1.2-0.5c-0.5-0.5-11.8-12.5-14.4-15.5c-2.7-3.2-5.1-12.6-5.4-13.7
			c-0.2-0.9,0.3-1.8,1.2-2c0.9-0.2,1.8,0.3,2,1.2c0.7,2.7,2.8,10.1,4.7,12.4c2.4,2.9,14.1,15.2,14.2,15.4c0.6,0.7,0.6,1.7-0.1,2.4
			C146.9,86.8,146.5,87,146.1,87z"/>
	</g>
	<g>
		<path style="fill:#C4CCBF;" d="M146.1,169.6c-0.6,0-1.1-0.3-1.4-0.8l-27.4-44.3c-4.2-6.8-10.4-26.5-10.6-27.3
			c-0.3-0.9,0.2-1.8,1.1-2.1c0.9-0.3,1.8,0.2,2.1,1.1c0.1,0.2,6.2,20.1,10.3,26.5l4.2,6.7l23.3,37.6c0.5,0.8,0.2,1.8-0.5,2.3
			C146.7,169.5,146.4,169.6,146.1,169.6z"/>
	</g>
	<g>
		<path style="fill:#C4CCBF;" d="M145.6,179.9c-0.3,0-0.6-0.1-0.9-0.3c-0.8-0.5-1-1.6-0.5-2.3c0.3-0.5,8.1-12.1,11.9-16
			c3.7-3.7,21-20.2,21.7-20.9c0.7-0.6,1.7-0.6,2.4,0.1c0.6,0.7,0.6,1.7-0.1,2.4c-0.2,0.2-18,17.2-21.6,20.8
			c-3.6,3.6-11.4,15.3-11.5,15.5C146.7,179.6,146.2,179.9,145.6,179.9z"/>
	</g>
	<g>
		<path style="fill:#C4CCBF;" d="M161.1,159.8c-0.1,0-0.1,0-0.2,0c-0.9-0.1-1.6-1-1.4-1.9l3-22.3c0.1-0.9,1-1.6,1.9-1.4
			c0.9,0.1,1.6,1,1.4,1.9l-3,22.3C162.6,159.2,161.9,159.8,161.1,159.8z"/>
	</g>
	<g>
		<path style="fill:#C4CCBF;" d="M142.2,216.6c-0.7,0-1.3-0.4-1.6-1.1c-1.1-2.8-9.5-10.4-14.5-14.9c-3.8-3.4-5.9-5.4-6.7-6.4
			c-2.1-2.9-6.4-22.1-7.3-25.9c-0.2-0.9,0.4-1.8,1.3-2c0.9-0.2,1.8,0.4,2,1.3c2.4,10.9,5.6,23.1,6.7,24.6c0.6,0.8,3.4,3.4,6.2,5.9
			c7.9,7.2,14.1,12.9,15.4,16.2c0.3,0.9-0.1,1.8-1,2.2C142.6,216.6,142.4,216.6,142.2,216.6z"/>
	</g>
	<g>
		<path style="fill:#C4CCBF;" d="M123.1,132.5c-0.9,0-1.7-0.7-1.7-1.6l-0.3-13.6c0-0.9,0.7-1.7,1.6-1.7c0.9,0,1.7,0.7,1.7,1.6
			l0.3,13.6C124.8,131.7,124.1,132.5,123.1,132.5C123.1,132.5,123.1,132.5,123.1,132.5z"/>
	</g>
	<g>
		<path style="fill:#C4CCBF;" d="M140.3,234.3c-0.1,0-0.2,0-0.3,0c-0.9-0.2-1.5-1-1.4-2c1.7-9,7-57.7,7.4-92.8
			c0.2-25.5-2.6-71.3-4-93.3c-0.3-5.1-0.6-8.9-0.7-11c0-0.9,0.7-1.7,1.6-1.8c0.9-0.1,1.7,0.7,1.8,1.6c0.1,2.1,0.4,5.9,0.7,11
			c1.4,22,4.3,67.9,4,93.5c-0.3,35.3-5.8,84.3-7.4,93.4C141.8,233.7,141.1,234.3,140.3,234.3z"/>
	</g>
</g>
</svg>
