<?xml version="1.0" encoding="utf-8"?>
<!-- Generator: Adobe Illustrator 23.0.1, SVG Export Plug-In . SVG Version: 6.00 Build 0)  -->
<svg version="1.1" id="Layer_1" xmlns="http://www.w3.org/2000/svg" xmlns:xlink="http://www.w3.org/1999/xlink" x="0px" y="0px"
	 viewBox="0 0 606.2 252.7" style="enable-background:new 0 0 606.2 252.7;" xml:space="preserve">
<g>
	<path style="fill:#9EA69B;" d="M138.4,207.7h2.7v13.6c2-2.9,5.2-4.7,8.8-4.7c6.7,0,11.3,5.3,11.3,13.2c0,8.1-4.6,13.2-11.3,13.2
		c-3.8,0-7-2-8.8-4.6v4h-2.7V207.7z M149.4,240.6c5.6,0,8.8-4.6,8.8-10.7s-3.2-10.8-8.8-10.8c-3.5,0-6.8,2.2-8.3,4.6v12.5
		C142.6,238.6,145.9,240.6,149.4,240.6z"/>
	<path style="fill:#9EA69B;" d="M178.8,216.7c7.7,0,11.9,6.1,11.9,13.3v0.7h-21c0.3,5.5,3.9,10,9.8,10c3.2,0,6.1-1.2,8.2-3.5
		l1.4,1.8c-2.5,2.6-5.7,4.1-9.8,4.1c-7.3,0-12.6-5.5-12.6-13.2C166.7,222.6,171.8,216.7,178.8,216.7z M169.6,228.6h18.3
		c-0.1-4.3-2.9-9.6-9.2-9.6C172.8,219,169.8,224.2,169.6,228.6z"/>
	<path style="fill:#9EA69B;" d="M212.6,239.5c-2.2,2.4-5.1,3.6-8.5,3.6c-4.3,0-8.8-3-8.8-8.4c0-5.5,4.4-8.3,8.8-8.3
		c3.5,0,6.4,1.1,8.5,3.6v-5.1c0-3.8-3-5.8-6.8-5.8c-3.1,0-5.6,1.1-7.9,3.7l-1.5-1.9c2.6-2.8,5.5-4.2,9.7-4.2c5.1,0,9.2,2.4,9.2,8.1
		v17.7h-2.7V239.5z M212.6,232c-1.8-2.3-4.6-3.5-7.6-3.5c-4.2,0-6.9,2.7-6.9,6.3c0,3.5,2.7,6.2,6.9,6.2c3,0,5.8-1.1,7.6-3.4V232z"/>
	<path style="fill:#9EA69B;" d="M239.8,238.8c-2.1,2.3-5.4,4.3-9.1,4.3c-5.2,0-7.9-2.4-7.9-8.1v-17.7h2.7v17.1
		c0,4.9,2.4,6.3,6.1,6.3c3.2,0,6.5-1.9,8.2-4.2v-19.2h2.7v25.2h-2.7V238.8z"/>
	<path style="fill:#9EA69B;" d="M252.4,237.6v-17.9h-4.2v-2.4h4.2v-6.9h2.8v6.9h5.1v2.4h-5.1v17.5c0,2,0.8,3.4,2.6,3.4
		c1.2,0,2.2-0.6,2.8-1.2l1,2.1c-1,0.9-2.2,1.6-4.3,1.6C254.1,243.1,252.4,241.1,252.4,237.6z"/>
	<path style="fill:#9EA69B;" d="M269.2,250.2c1.7,0,2.8-0.7,3.8-3.1l2-4.5l-10.6-25.4h3l9.2,22l9.1-22h3.1l-13,30.7
		c-1.4,3.2-3.5,4.7-6.5,4.7c-0.8,0-2-0.2-2.7-0.4l0.5-2.5C267.6,250.1,268.6,250.2,269.2,250.2z"/>
	<path style="fill:#9EA69B;" d="M305.3,237.6v-17.9h-4.2v-2.4h4.2v-6.9h2.8v6.9h5.1v2.4h-5.1v17.5c0,2,0.8,3.4,2.6,3.4
		c1.2,0,2.2-0.6,2.8-1.2l1,2.1c-1,0.9-2.2,1.6-4.3,1.6C306.9,243.1,305.3,241.1,305.3,237.6z"/>
	<path style="fill:#9EA69B;" d="M336.1,225.3c0-4.8-2.4-6.2-6.1-6.2c-3.2,0-6.6,2-8.2,4.3v19h-2.7v-34.7h2.7v13.4
		c1.8-2.2,5.4-4.4,9.1-4.4c5.1,0,7.9,2.4,7.9,8.1v17.7h-2.7L336.1,225.3L336.1,225.3z"/>
	<path style="fill:#9EA69B;" d="M355.9,216.7c7.7,0,11.9,6.1,11.9,13.3v0.7h-21c0.3,5.5,3.9,10,9.8,10c3.2,0,6.1-1.2,8.2-3.5
		l1.4,1.8c-2.5,2.6-5.7,4.1-9.8,4.1c-7.3,0-12.6-5.5-12.6-13.2C343.8,222.6,348.9,216.7,355.9,216.7z M346.7,228.6H365
		c-0.1-4.3-2.9-9.6-9.2-9.6C349.9,219,347,224.2,346.7,228.6z"/>
	<path style="fill:#9EA69B;" d="M373.8,217.3h2.7v4.3c2.1-2.8,5-4.8,8.5-4.8v3c-0.5-0.1-0.8-0.1-1.4-0.1c-2.6,0-6,2.3-7.1,4.5v18.3
		h-2.7V217.3z"/>
	<path style="fill:#9EA69B;" d="M406.3,239.5c-2.2,2.4-5.1,3.6-8.5,3.6c-4.3,0-8.8-3-8.8-8.4c0-5.5,4.4-8.3,8.8-8.3
		c3.5,0,6.4,1.1,8.5,3.6v-5.1c0-3.8-3-5.8-6.8-5.8c-3.1,0-5.6,1.1-7.9,3.7l-1.5-1.9c2.6-2.8,5.5-4.2,9.7-4.2c5.1,0,9.2,2.4,9.2,8.1
		v17.7h-2.7L406.3,239.5L406.3,239.5z M406.3,232c-1.8-2.3-4.6-3.5-7.6-3.5c-4.2,0-6.9,2.7-6.9,6.3c0,3.5,2.7,6.2,6.9,6.2
		c3,0,5.8-1.1,7.6-3.4V232z"/>
	<path style="fill:#9EA69B;" d="M416.4,252.1v-34.7h2.7v4c1.8-2.6,5-4.6,8.8-4.6c6.7,0,11.3,5.1,11.3,13.2c0,8-4.5,13.2-11.3,13.2
		c-3.5,0-6.7-1.8-8.8-4.7v13.6H416.4z M427.4,219.1c-3.5,0-6.8,2.1-8.3,4.5v12.5c1.5,2.4,4.8,4.6,8.3,4.6c5.6,0,8.8-4.7,8.8-10.8
		S433,219.1,427.4,219.1z"/>
	<path style="fill:#9EA69B;" d="M448.1,250.2c1.7,0,2.8-0.7,3.8-3.1l2-4.5l-10.6-25.4h3l9.2,22l9.1-22h3.1l-13,30.7
		c-1.4,3.2-3.5,4.7-6.5,4.7c-0.8,0-2-0.2-2.7-0.4l0.5-2.5C446.5,250.1,447.5,250.2,448.1,250.2z"/>
</g>
<g>
	<path style="fill:#9EA69B;" d="M0,55.8c3.3-3.1,50.5-26.4,101.3-34.1c55.4-8.4,108.3-7.1,125.6,7.1s10.8,30.9,0,38.8
		s-35.7,22.7-99.9,42.5c-36.1,11.2-61.2,18-59.7,17.9c1.6-0.1,44,8.9,70.9,17.2c32.9,10.1,74.8,27.9,75.9,35.9
		c1.1,8-21.5-2.7-23.6-4s-55.8-22-64.5-24.6c-11.9-3.6-47.6-13.7-52.3-14.7c-4.7-1-17.6-4.6-16.9-9.4c0.8-4.8,10.6-8.7,19.1-11.4
		S165,87.8,177.6,82.9c12.6-5,51.3-20.6,51.3-35.8c0-12-14.8-16.9-26.9-18.8s-44.9-5.9-93.2,0.4C86.9,31.5,52.6,38.5,4.1,65.3
		C1,67.1,0,55.8,0,55.8z"/>
	<path style="fill:#9EA69B;" d="M122.5,0.8c2.3-1.8,9.4-0.5,9.3,3.1s-17,66-26,86.5s-31.6,78.2-33,79.6c-1.5,1.4-7,0.8-7.2-1.9
		s35-91.5,37.8-97.8c2.8-6.4,16.3-51.6,17.1-55.1S122.5,0.8,122.5,0.8z"/>
	<path style="fill:#9EA69B;" d="M218.8,117.1c0,0-4.9,5.5-3.9,6.2s1.9,1.2,8.6-1c9.5-3.1,16.2-13.3,17-15s2-8.1,0.2-9.8
		s-4.5-3.3-8.1-2.1c-4.2,1.4-13.7,8.1-17.3,12.5s-13,18.5-9.4,24.9s8.1,13.9,28.5,9.3c12.4-2.8,35.6-14.4,38.2-16
		c2.1-1.3,9.8-5.2,10.2-6.7s3.7-9.1,1.5-8.1s-25.5,15.4-40.1,20.2c-12.4,4-25.7,7.5-29.4,3.2c-4.4-4.9-2.2-8.5-1.4-9.8
		s8.9-13.4,10.7-15.3c2.8-2.9,11.2-7.1,10.4-6.2c-0.8,1-5.4,7-7.2,9C225.5,114.4,218.8,117.1,218.8,117.1z"/>
	<path style="fill:#9EA69B;" d="M375.3,124.6c0,0-4.9,5.5-3.9,6.2s1.9,1.2,8.6-1c9.5-3.1,16.2-13.3,17-15s2-8.1,0.2-9.8
		c-1.8-1.7-4.5-3.3-8.1-2.1c-4.2,1.4-13.7,8.1-17.3,12.5c-3.6,4.4-13,18.5-9.4,24.9c3.6,6.4,8.1,13.9,28.5,9.3
		c12.4-2.8,35.6-14.4,38.2-16c2.1-1.3,12.9-7.4,13.4-8.9s0.6-7-1.6-6s-25.5,15.4-40.1,20.2c-12.4,4-25.7,7.5-29.4,3.2
		c-4.4-4.9-2.2-8.5-1.4-9.8c0.8-1.3,8.9-13.4,10.7-15.3c2.8-2.9,11.2-7.1,10.4-6.2c-0.8,1-5.4,7-7.2,9
		C382,121.9,375.3,124.6,375.3,124.6z"/>
	<path style="fill:#9EA69B;" d="M276.2,184.7c-1-0.7-5.5-5.9-4.5-16.6c1-10.7,9.7-55.5,11.8-61.3c2.2-5.8,3.3-6.2,2.1-7.1
		c-1.2-0.8-20.1,4.5-21.1,4.7s-2.6-1.5-2.7-3.5c-0.1-1.9,1.5-3.8,4-4.1c2.5-0.3,22.9-6.5,22.9-6.5s10.6-25.6,13.6-32
		s17.5-33.8,21.4-36.8c3.8-3.1,6.7-6.8,13.5-3.7c6,2.7,10.8,9.4,10,14.9s-0.6,5.9-3.1,5.3c-4.6-1.3-3.6-6-5.3-8.7s-3.2-5.2-6.1-4
		c-3.6,1.4-10.8,13.1-15.9,22.3c-6,10.8-18,40.8-18,40.8s9.1-1.6,13.4-2.4c5.4-1,12.5-0.6,15.7,0.8c1.1,0.5,1.5,4.7-1.4,4.8
		c-17.6,0.9-28.5,3.7-30,5.6s-9.5,24.5-11.3,34.2s-6.6,32.4-5.9,39.7s3.2,12.9,2.5,13.4C280.1,185.8,276.2,184.7,276.2,184.7z"/>
	<path style="fill:#9EA69B;" d="M319.9,143.5c-0.2,0.5-1.9,2.4,0.9,4.1c2.8,1.7,5.6,1.9,6.2,1.6s1.7-2.9,2.1-4s2.7-8.2,5-11.6
		c2.3-3.4,6.7-9.8,10.4-13.4c4.7-4.7,12.5-10.6,15.4-10.8s7,0.2,6.7-0.6c-0.2-0.7-0.5-1.8-4-3.3c-4.9-2-9.1-0.5-14.2,1.8
		c-4,1.8-10.9,8.1-10.9,8.1s1.4-10.6,1.5-11.3c0.1-0.7-1.7-3-3.1-3.8c-1.6-0.9-3.5-1.9-4.9-0.9c-1.3,1-1.4,7.2-2.1,11.2
		c-0.4,2.3-3.7,20.2-5.1,22.9C322.6,136.2,319.9,143.5,319.9,143.5z"/>
	<path style="fill:#9EA69B;" d="M472.3,110.7c1.2-0.5,1.2-3.8-0.6-6.4c-1.8-2.6-1.8-3.5-5.4-2.8s-15.7,3.5-23.2,8.8
		c-7.4,5.3-5.9,8.4-5.2,9.5c0.7,1.1,0.4,5,5.3,7c4.9,2,17.7,5.7,17.7,5.7s6.7,2.7,7.7,4.5s1.3,5.6-3.1,9.5S451.9,158,444.1,160
		s-12.4,3-13.3,1.1c-0.6-1.4,3.2-4.9,6.4-7.2c3.2-2.3,21.2-13.4,27.2-15.8c6.1-2.4,12.9-5.1,17.7-6.5c5.9-1.7,24.2-5.6,25.1-6.3
		s1.3-3.9,0.3-4.3s-10.2,1.5-16.2,2.7c-5.6,1.1-15.2,3.7-21.7,5.5c-4.2,1.2-15.5,6.3-18.3,7.7c-2.8,1.5-22.9,11.9-25.2,17.1
		c-2.3,5.1-1.1,10,1.2,11.8c2.5,2,5.8,3.3,14.7,1c8.9-2.3,19.3-6.8,24.5-11.7s8.5-9.4,9.1-13.2c0.6-3.9-2.2-9.5-3.5-10.6
		c-1.4-1.1-5.3-4.8-8.9-5.6c-3.6-0.8-19.4-4.7-19.2-5.4c0.3-0.8,0.4-2.2,5.2-4.5s13.9-5.8,15.7-6
		C468.1,109.1,472.3,110.7,472.3,110.7z"/>
	<path style="fill:#9EA69B;" d="M537.3,10.8c-0.2,1.2-1.1,13.5-4.2,24.3S518.7,81.8,515.6,90c-3,8.1-14,34.6-14.6,40.5
		c-0.6,5.9-2.5,11.2-2.5,12.2s1.1,4.6,4.2,5.9c3.1,1.3,6.7,1.8,9.6-2.9c2.9-4.7,14.5-20,18-23.9c2.2-2.5,5.8-4.6,6.5-4.9
		s2.3-2.8,3.7,2.3c1.4,5,2.1,15.2,7.4,19.5c5.3,4.3,12.6,9.2,23.3,7.2c16-3,28.7-15.6,31.1-18.4s3.8-3.6,3.8-5.1s-0.6-2.3-2-3
		c-1.4-0.6-2.9-0.7-4.7,1.2c-1.8,1.9-13.2,12.5-21.4,15.8s-17.8,6.6-22.1,2.4c-4.5-4.3-5.7-11.5-7.6-19.9c-1.8-7.7-9.5-9.1-11.4-9.2
		c-5.2-0.3-13.3,6.2-19.1,12.6c-4.9,5.6-7.2,9.5-7.3,8.3c-0.2-2.6,13.8-39.1,16.7-46.2s18.1-58.3,18.2-62s0-8-1.7-9.5
		s-3.5-2.9-4.3-2.9C537.1,9.9,537.3,10.8,537.3,10.8z"/>
</g>
</svg>
