<?xml version="1.0" encoding="utf-8"?>
<!-- Generator: Adobe Illustrator 23.0.1, SVG Export Plug-In . SVG Version: 6.00 Build 0)  -->
<svg version="1.1" id="transition-logo" xmlns="http://www.w3.org/2000/svg" xmlns:xlink="http://www.w3.org/1999/xlink" x="0px"
	 y="0px" viewBox="0 0 455.8 387.9" style="enable-background:new 0 0 455.8 387.9;" xml:space="preserve">
<g>
	<g>
		<path style="fill:#AAB5A3;" d="M104,354h2v10.3c1.5-2.2,3.9-3.5,6.6-3.5c5.1,0,8.5,4,8.5,9.9c0,6.1-3.4,9.9-8.5,9.9
			c-2.8,0-5.2-1.5-6.6-3.5v3h-2V354z M112.3,378.8c4.2,0,6.6-3.5,6.6-8.1s-2.4-8.1-6.6-8.1c-2.6,0-5.1,1.6-6.2,3.4v9.4
			C107.2,377.2,109.7,378.8,112.3,378.8z"/>
		<path style="fill:#AAB5A3;" d="M134.4,360.8c5.8,0,8.9,4.6,8.9,10v0.5h-15.8c0.2,4.1,2.9,7.5,7.4,7.5c2.4,0,4.6-0.9,6.2-2.6
			l1.1,1.3c-1.9,2-4.3,3.1-7.4,3.1c-5.5,0-9.5-4.1-9.5-9.9C125.3,365.2,129.2,360.8,134.4,360.8z M127.5,369.8h13.7
			c0-3.2-2.2-7.2-6.9-7.2C129.9,362.5,127.7,366.5,127.5,369.8z"/>
		<path style="fill:#AAB5A3;" d="M159.9,377.9c-1.7,1.8-3.8,2.7-6.4,2.7c-3.3,0-6.6-2.2-6.6-6.3c0-4.1,3.3-6.3,6.6-6.3
			c2.6,0,4.8,0.9,6.4,2.7v-3.8c0-2.8-2.3-4.3-5.1-4.3c-2.3,0-4.2,0.8-5.9,2.8l-1.1-1.4c2-2.1,4.2-3.2,7.3-3.2c3.8,0,6.9,1.8,6.9,6.1
			v13.3h-2V377.9z M159.9,372.3c-1.3-1.7-3.4-2.6-5.7-2.6c-3.1,0-5.2,2-5.2,4.7c0,2.7,2,4.7,5.2,4.7c2.3,0,4.4-0.9,5.7-2.6V372.3z"
			/>
		<path style="fill:#AAB5A3;" d="M180.3,377.4c-1.6,1.7-4.1,3.3-6.8,3.3c-3.9,0-6-1.8-6-6.1v-13.3h2v12.8c0,3.7,1.8,4.7,4.6,4.7
			c2.4,0,4.9-1.4,6.1-3.1v-14.4h2v18.9h-2V377.4z"/>
		<path style="fill:#AAB5A3;" d="M189.8,376.5v-13.5h-3.1v-1.8h3.1v-5.2h2.1v5.2h3.8v1.8h-3.8v13.2c0,1.5,0.6,2.6,2,2.6
			c0.9,0,1.7-0.4,2.1-0.9l0.8,1.6c-0.7,0.7-1.6,1.2-3.2,1.2C191,380.6,189.8,379.1,189.8,376.5z"/>
		<path style="fill:#AAB5A3;" d="M202.4,386c1.3,0,2.1-0.5,2.9-2.3l1.5-3.4l-8-19.1h2.3l6.9,16.5l6.8-16.5h2.3l-9.8,23.1
			c-1,2.4-2.6,3.5-4.9,3.5c-0.6,0-1.5-0.1-2-0.3l0.4-1.9C201.2,385.9,202,386,202.4,386z"/>
		<path style="fill:#AAB5A3;" d="M229.6,376.5v-13.5h-3.1v-1.8h3.1v-5.2h2.1v5.2h3.8v1.8h-3.8v13.2c0,1.5,0.6,2.6,2,2.6
			c0.9,0,1.7-0.4,2.1-0.9l0.8,1.6c-0.7,0.7-1.6,1.2-3.2,1.2C230.8,380.6,229.6,379.1,229.6,376.5z"/>
		<path style="fill:#AAB5A3;" d="M252.7,367.3c0-3.6-1.8-4.7-4.6-4.7c-2.4,0-4.9,1.5-6.1,3.3v14.3h-2V354h2v10.1
			c1.4-1.6,4.1-3.3,6.8-3.3c3.8,0,6,1.8,6,6.1v13.3h-2V367.3z"/>
		<path style="fill:#AAB5A3;" d="M267.6,360.8c5.8,0,8.9,4.6,8.9,10v0.5h-15.8c0.2,4.1,2.9,7.5,7.4,7.5c2.4,0,4.6-0.9,6.2-2.6
			l1.1,1.3c-1.9,2-4.3,3.1-7.4,3.1c-5.5,0-9.5-4.1-9.5-9.9C258.5,365.2,262.4,360.8,267.6,360.8z M260.7,369.8h13.7
			c0-3.2-2.2-7.2-6.9-7.2C263.1,362.5,260.9,366.5,260.7,369.8z"/>
		<path style="fill:#AAB5A3;" d="M281,361.3h2v3.3c1.6-2.1,3.8-3.6,6.4-3.6v2.2c-0.4-0.1-0.6-0.1-1-0.1c-1.9,0-4.5,1.7-5.4,3.4v13.8
			h-2V361.3z"/>
		<path style="fill:#AAB5A3;" d="M305.5,377.9c-1.7,1.8-3.8,2.7-6.4,2.7c-3.3,0-6.6-2.2-6.6-6.3c0-4.1,3.3-6.3,6.6-6.3
			c2.6,0,4.8,0.9,6.4,2.7v-3.8c0-2.8-2.3-4.3-5.1-4.3c-2.3,0-4.2,0.8-5.9,2.8l-1.1-1.4c2-2.1,4.2-3.2,7.3-3.2c3.8,0,6.9,1.8,6.9,6.1
			v13.3h-2V377.9z M305.5,372.3c-1.3-1.7-3.4-2.6-5.7-2.6c-3.1,0-5.2,2-5.2,4.7c0,2.7,2,4.7,5.2,4.7c2.3,0,4.4-0.9,5.7-2.6V372.3z"
			/>
		<path style="fill:#AAB5A3;" d="M313.1,387.4v-26.1h2v3c1.3-1.9,3.8-3.4,6.6-3.4c5.1,0,8.5,3.8,8.5,9.9c0,6-3.4,9.9-8.5,9.9
			c-2.7,0-5.1-1.4-6.6-3.5v10.3H313.1z M321.4,362.6c-2.6,0-5.1,1.6-6.2,3.4v9.4c1.1,1.8,3.6,3.4,6.2,3.4c4.2,0,6.6-3.5,6.6-8.1
			S325.6,362.6,321.4,362.6z"/>
		<path style="fill:#AAB5A3;" d="M336.9,386c1.3,0,2.1-0.5,2.9-2.3l1.5-3.4l-8-19.1h2.3l6.9,16.5l6.8-16.5h2.3l-9.8,23.1
			c-1,2.4-2.6,3.5-4.9,3.5c-0.6,0-1.5-0.1-2-0.3l0.4-1.9C335.7,385.9,336.4,386,336.9,386z"/>
	</g>
	<g>
		<g>
			<path style="fill:#AAB5A3;" d="M279.7,179.9c-0.1,0-0.3,0-0.4-0.1c-0.7-0.2-1-0.9-0.8-1.6c0.2-0.6,20.3-65,20.5-87.7
				c0.3-22.5-15.3-56.7-15.4-57c-0.3-0.6,0-1.4,0.6-1.7c0.6-0.3,1.4,0,1.7,0.6c0.6,1.4,15.9,35,15.6,58.1
				c-0.3,23-19.8,85.7-20.6,88.4C280.7,179.6,280.2,179.9,279.7,179.9z"/>
		</g>
		<g>
			<path style="fill:#AAB5A3;" d="M285,33.7c0,0,0.8-6-2.5-9.1c-3.3-3.1-4.2-1.9-4.9-1.3c-2.1,1.9-0.6,3.9,0.8,6S285,33.7,285,33.7z
				"/>
			<path style="fill:#AAB5A3;" d="M285,35c-0.2,0-0.3,0-0.5-0.1c-0.6-0.2-5.6-2.4-7.1-4.8l-0.2-0.3c-1.3-2.1-3.2-4.9-0.3-7.4
				c1.8-1.7,3.8-1.3,6.6,1.4c3.7,3.5,2.9,9.9,2.9,10.2c-0.1,0.4-0.3,0.7-0.6,0.9C285.4,34.9,285.2,35,285,35z M279.1,23.9
				c-0.3,0-0.4,0.1-0.5,0.2l-0.1,0.1c-1,0.9-0.8,1.7,0.8,4.1l0.2,0.3c0.6,1,2.6,2.2,4.3,3.1c0-1.8-0.4-4.5-2.2-6.2
				C280.2,24.3,279.5,23.9,279.1,23.9z"/>
		</g>
		<g>
			<path style="fill:#AAB5A3;" d="M291.5,46.7c0,0,6.3-5.5,6.5-8c0.3-2.5,0.1-6.5-1.3-7.1c-1.4-0.6-4.3,2.3-4.3,6
				C292.5,41.3,291.5,46.7,291.5,46.7z"/>
			<path style="fill:#AAB5A3;" d="M291.5,48c-0.2,0-0.4-0.1-0.6-0.2c-0.5-0.3-0.7-0.8-0.6-1.3c0-0.1,1-5.3,0.9-8.9
				c-0.1-3.1,1.7-5.7,3.3-6.7c1-0.6,2-0.8,2.8-0.5c2.7,1.2,2.1,7.7,2.1,8.4c-0.3,2.8-5.4,7.5-7,8.8C292.1,47.9,291.8,48,291.5,48z
				 M296.2,32.8c-0.7,0.2-2.6,2-2.5,4.8c0,1.8-0.2,3.9-0.4,5.7c1.9-1.9,3.4-3.8,3.5-4.7C297.1,35.8,296.7,33.3,296.2,32.8z"/>
		</g>
		<g>
			<path style="fill:#AAB5A3;" d="M290.2,46.6c0,0-6.6,1.7-8.8,0.5s-5.5-3.6-5.2-5.1s4.3-2.3,7.4-0.2S290.2,46.6,290.2,46.6z"/>
			<path style="fill:#AAB5A3;" d="M284,48.7c-1.2,0-2.4-0.2-3.2-0.6c-0.7-0.3-6.4-3.5-5.8-6.4c0.2-0.9,0.8-1.6,1.9-2
				c1.8-0.7,4.9-0.7,7.4,1c3,2.1,6.6,4.8,6.7,4.8c0.4,0.3,0.6,0.8,0.5,1.3c-0.1,0.5-0.5,0.9-0.9,1C289.7,48,286.7,48.7,284,48.7z
				 M277.5,42.2c0.2,0.7,2,2.4,4.5,3.7c0.9,0.5,3.1,0.3,5.2,0c-1.3-0.9-2.8-2.1-4.3-3.1C280.6,41.2,278,41.8,277.5,42.2z"/>
		</g>
		<g>
			<path style="fill:#AAB5A3;" d="M298,67.1c0,0,7.1-5.2,7.9-7.9c0.8-2.8,1.5-7.2,0.1-8.1c-1.4-1-5.3,1.6-6,5.7
				C299.2,60.8,298,67.1,298,67.1z"/>
			<path style="fill:#AAB5A3;" d="M298,68.3c-0.2,0-0.5-0.1-0.7-0.2c-0.4-0.3-0.7-0.8-0.6-1.3c0-0.1,1.3-6.3,2-10.3
				c0.6-3.4,3-5.8,5-6.6c1.2-0.5,2.2-0.5,3,0.1c2.7,1.8,0.6,8.8,0.4,9.6c-0.9,3-7.2,7.7-8.4,8.6C298.5,68.3,298.2,68.3,298,68.3z
				 M305.3,52c0,0-0.5,0-1.2,0.5c-1.1,0.7-2.5,2.3-2.9,4.4c-0.4,2.2-0.9,4.9-1.3,7c2.2-1.9,4.5-4,4.8-5.2
				C305.7,55.6,305.7,52.5,305.3,52z"/>
		</g>
		<g>
			<path style="fill:#AAB5A3;" d="M296.8,66.9c0,0-8.8-0.4-11-2.2c-2.2-1.8-5.2-5.2-4.6-6.7s5.3-1.6,8.2,1.4
				C292.2,62.4,296.8,66.9,296.8,66.9z"/>
			<path style="fill:#AAB5A3;" d="M296.8,68.2C296.8,68.2,296.7,68.2,296.8,68.2c-1.6-0.1-9.4-0.5-11.8-2.5c-0.6-0.5-6.2-5.1-5-8.2
				c0.3-0.9,1.2-1.5,2.4-1.7c2.1-0.4,5.5,0.3,7.8,2.7c2.9,3,7.4,7.4,7.4,7.5c0.4,0.4,0.5,0.9,0.3,1.4
				C297.7,67.9,297.3,68.2,296.8,68.2z M283.7,58.2C283.7,58.2,283.6,58.2,283.7,58.2c-1,0-1.3,0.2-1.4,0.3
				c-0.1,0.6,1.7,3.1,4.3,5.2c0.9,0.8,4,1.3,6.9,1.6c-1.5-1.5-3.5-3.5-5-5.1C287,58.8,285,58.2,283.7,58.2z"/>
		</g>
		<g>
			<path style="fill:#AAB5A3;" d="M300.8,87c0,0,8.4-4.4,9.7-7.2c1.3-2.8,2.7-7.4,1.4-8.7c-1.3-1.2-5.9,0.8-7.4,5.1
				S300.8,87,300.8,87z"/>
			<path style="fill:#AAB5A3;" d="M300.8,88.3c-0.3,0-0.6-0.1-0.8-0.3c-0.4-0.3-0.5-0.9-0.4-1.4c0-0.1,2.4-6.5,3.8-10.7
				c1.2-3.5,4.1-5.6,6.3-6.2c1.3-0.3,2.4-0.1,3.1,0.5c2.5,2.4-1,9.8-1.2,10.2c-1.5,3-8.8,7-10.3,7.8C301.2,88.2,301,88.3,300.8,88.3
				z M310.9,72.1c-0.2,0-0.6,0-1.2,0.3c-1.3,0.5-3.2,2-4,4.4c-0.8,2.3-1.9,5.3-2.7,7.6c2.7-1.6,5.6-3.7,6.3-5
				c1.6-3.4,2.1-6.6,1.7-7.2C311.1,72.1,311,72.1,310.9,72.1z"/>
		</g>
		<g>
			<path style="fill:#AAB5A3;" d="M299.5,86.7c0,0-9.3-1.8-11.4-4.1s-4.8-6.3-3.8-7.9c0.9-1.6,5.9-0.9,8.5,2.8
				S299.5,86.7,299.5,86.7z"/>
			<path style="fill:#AAB5A3;" d="M299.5,87.9c-0.1,0-0.2,0-0.2,0c-1.6-0.3-9.8-2-12.1-4.5c-0.2-0.3-5.8-6.4-4-9.4
				c0.5-0.8,1.5-1.3,2.8-1.4c2.3-0.1,5.7,1.1,7.8,4.1c2.6,3.6,6.7,9.1,6.7,9.2c0.3,0.4,0.3,1,0.1,1.4
				C300.4,87.7,300,87.9,299.5,87.9z M286.3,75.1c-0.6,0-0.9,0.1-0.9,0.2c-0.2,0.6,1.2,3.6,3.7,6.4c1,1,4.3,2.2,7.4,3
				c-1.4-1.9-3.3-4.5-4.7-6.5c-1.4-2-3.6-2.9-5.1-3C286.6,75.1,286.4,75.1,286.3,75.1z"/>
		</g>
		<g>
			<path style="fill:#AAB5A3;" d="M298,110.1c0,0,11.7-0.9,14.1-3.6s5.4-7.5,4.4-9.3c-1.1-1.8-6.9-0.9-9.9,3.4
				C303.6,105,298,110.1,298,110.1z"/>
			<path style="fill:#AAB5A3;" d="M298,111.3c-0.5,0-1-0.3-1.2-0.8c-0.2-0.5-0.1-1.1,0.3-1.4c0.1,0,5.5-5,8.4-9.2
				c2.4-3.4,6.3-4.9,8.9-4.8c1.5,0,2.6,0.6,3.1,1.5c2,3.4-4.2,10.4-4.5,10.7C310.4,110.3,300.1,111.2,298,111.3
				C298,111.3,298,111.3,298,111.3z M314.1,97.6C314.1,97.6,314.1,97.6,314.1,97.6c-2,0-4.8,1.2-6.6,3.7c-1.7,2.5-4.2,5.2-6.1,7.1
				c4.1-0.6,8.5-1.5,9.6-2.8c3-3.4,4.6-7.1,4.2-7.8C315.3,97.8,314.9,97.6,314.1,97.6z"/>
		</g>
		<g>
			<path style="fill:#AAB5A3;" d="M297.6,110.7c0,0-9.8-5-11.4-8.2s-3.3-8.6-1.8-10.1c1.5-1.5,6.9,0.9,8.6,5.8
				C294.7,103.2,297.6,110.7,297.6,110.7z"/>
			<path style="fill:#AAB5A3;" d="M297.6,111.9c-0.2,0-0.4,0-0.6-0.1c-1-0.5-10.3-5.3-12-8.8c-0.2-0.4-4.3-8.8-1.5-11.5
				c0.8-0.7,2-1,3.4-0.6c2.5,0.6,5.9,3,7.3,7c1.7,4.9,4.6,12.3,4.6,12.4c0.2,0.5,0.1,1-0.3,1.4C298.2,111.8,297.9,111.9,297.6,111.9
				z M285.6,93.2c-0.2,0-0.4,0-0.4,0.1c-0.6,0.6,0,4.5,2,8.6c0.8,1.6,4.6,4.1,7.9,6c-1-2.6-2.4-6.4-3.4-9.3c-1-2.9-3.5-4.8-5.3-5.3
				C286.1,93.2,285.8,93.2,285.6,93.2z"/>
		</g>
		<g>
			<path style="fill:#AAB5A3;" d="M293.6,130.9c0,0,12.7-1.6,15.7-4.5c3-2.9,6.9-8.1,5.9-10.3c-1.1-2.2-7.8-1.7-11.7,3
				S293.6,130.9,293.6,130.9z"/>
			<path style="fill:#AAB5A3;" d="M293.6,132.2c-0.5,0-0.9-0.3-1.1-0.7c-0.2-0.5-0.2-1,0.2-1.4c0.1-0.1,6-7.1,9.8-11.7
				c3-3.7,7.5-5,10.5-4.7c1.6,0.2,2.8,0.9,3.3,1.9c1.9,3.9-5.8,11.4-6.1,11.8c-3.2,3.1-15,4.7-16.4,4.9
				C293.8,132.2,293.7,132.2,293.6,132.2z M312.1,116.2c-2.3,0-5.5,1.2-7.6,3.8c-2.4,2.9-5.6,6.7-7.7,9.2c4.6-0.8,10.1-2.2,11.6-3.7
				c3.6-3.5,6.1-7.8,5.6-8.8c-0.1-0.2-0.5-0.4-1.3-0.5C312.5,116.2,312.3,116.2,312.1,116.2z"/>
		</g>
		<g>
			<path style="fill:#AAB5A3;" d="M292.2,129.9c0,0-10.9-6.6-12.5-10.5c-1.6-3.9-3-10.2-1.1-11.8c1.9-1.5,7.8,1.7,9.4,7.5
				C289.6,121,292.2,129.9,292.2,129.9z"/>
			<path style="fill:#AAB5A3;" d="M292.2,131.2c-0.2,0-0.5-0.1-0.7-0.2c-1.2-0.7-11.3-7-13-11.1c-0.2-0.4-4.2-10.4-0.8-13.2
				c0.9-0.7,2.2-0.9,3.8-0.4c2.8,0.9,6.4,4,7.7,8.6c1.6,5.8,4.1,14.6,4.2,14.7c0.1,0.5,0,1-0.4,1.4
				C292.8,131.1,292.5,131.2,292.2,131.2z M279.9,108.5c-0.2,0-0.4,0-0.5,0.1c-0.9,0.7-0.4,5.6,1.5,10.3c0.8,2,5.3,5.5,9.1,8.1
				c-0.9-3.1-2.3-7.9-3.2-11.5c-0.9-3.5-3.7-6.1-6-6.8C280.4,108.5,280.1,108.5,279.9,108.5z"/>
		</g>
		<g>
			<path style="fill:#AAB5A3;" d="M287.8,152.8c0,0,12.7-1.6,15.7-4.5c3-2.9,6.9-8.1,5.9-10.3c-1.1-2.2-7.8-1.7-11.7,3
				C293.8,145.8,287.8,152.8,287.8,152.8z"/>
			<path style="fill:#AAB5A3;" d="M287.8,154.1c-0.5,0-0.9-0.3-1.1-0.7c-0.2-0.5-0.2-1,0.2-1.4c0.1-0.1,6-7.1,9.8-11.7
				c3-3.7,7.5-5,10.5-4.7c1.6,0.2,2.8,0.9,3.3,1.9c1.9,3.9-5.8,11.4-6.1,11.8c-3.2,3.1-15,4.7-16.4,4.9
				C287.9,154.1,287.9,154.1,287.8,154.1z M306.2,138c-2.3,0-5.5,1.2-7.6,3.8c-2.4,2.9-5.6,6.7-7.7,9.2c4.6-0.8,10.1-2.2,11.6-3.7
				c3.6-3.5,6.1-7.8,5.6-8.8c-0.1-0.2-0.5-0.4-1.3-0.5C306.7,138,306.5,138,306.2,138z"/>
		</g>
		<g>
			<path style="fill:#AAB5A3;" d="M287.4,152.7c0,0-11.9-7.6-13.5-11.4s-3-10.2-1.1-11.8c1.9-1.5,7.8,1.7,9.4,7.5
				C283.8,142.9,287.4,152.7,287.4,152.7z"/>
			<path style="fill:#AAB5A3;" d="M287.4,154c-0.2,0-0.5-0.1-0.7-0.2c-1.3-0.8-12.3-7.9-14-12c-0.2-0.4-4.2-10.4-0.8-13.2
				c0.9-0.7,2.2-0.9,3.8-0.4c2.8,0.9,6.4,4,7.7,8.6c1.5,5.8,5.1,15.5,5.1,15.6c0.2,0.5,0,1.1-0.4,1.4C288,153.9,287.7,154,287.4,154
				z M274.1,130.3c-0.2,0-0.4,0-0.5,0.1c-0.9,0.7-0.4,5.5,1.5,10.3c0.8,2,5.6,5.8,9.8,8.7c-1.2-3.4-2.9-8.5-3.9-12.2
				c-0.9-3.5-3.7-6.1-6-6.8C274.6,130.4,274.3,130.3,274.1,130.3z"/>
		</g>
		<g>
			<path style="fill:#AAB5A3;" d="M171,61.4c0,0,2.2-11.3,6.1-7.8C180.9,57,171,61.4,171,61.4z"/>
			<path style="fill:#AAB5A3;" d="M171,62.7c-0.3,0-0.6-0.1-0.8-0.3c-0.4-0.3-0.5-0.8-0.5-1.2c0.4-1.9,1.9-8.3,5-9.4
				c0.8-0.3,1.9-0.3,3.2,0.8c1.3,1.2,1.4,2.4,1.3,3.2c-0.6,3.4-6.5,6.2-7.7,6.7C171.4,62.6,171.2,62.7,171,62.7z M175.6,54.2
				C175.6,54.2,175.5,54.2,175.6,54.2c-0.9,0.3-2,2.4-2.7,4.8c1.8-1.1,3.6-2.5,3.8-3.5c0-0.1,0.1-0.4-0.5-0.9
				C175.9,54.2,175.7,54.2,175.6,54.2z"/>
		</g>
		<g>
			<path style="fill:#AAB5A3;" d="M177.3,73.4c0,0,3.6-7.8,5.5-3.9S177.3,73.4,177.3,73.4z"/>
			<path style="fill:#AAB5A3;" d="M177.3,74.6c-0.4,0-0.8-0.2-1.1-0.6c-0.2-0.4-0.3-0.8-0.1-1.2c0.8-1.7,2.9-5.7,5.3-5.7
				c0.7,0,1.7,0.3,2.5,1.8c0.8,1.5,0.4,2.7,0,3.3C182.5,74.5,178.2,74.6,177.3,74.6C177.3,74.6,177.3,74.6,177.3,74.6z M181.4,69.6
				c-0.3,0.1-1.1,1-1.9,2.3c1-0.2,2-0.5,2.3-1c0-0.1,0.2-0.3-0.1-0.9C181.5,69.7,181.4,69.6,181.4,69.6z"/>
		</g>
		<g>
			<path style="fill:#AAB5A3;" d="M160.2,47.6c0,0-5.5-13.5,1-11.9C167.7,37.3,160.2,47.6,160.2,47.6z"/>
			<path style="fill:#AAB5A3;" d="M160.2,48.9c0,0-0.1,0-0.1,0c-0.5-0.1-0.8-0.4-1-0.8c-0.7-1.6-3.8-9.8-1.3-12.7
				c0.6-0.7,1.7-1.4,3.8-0.9c2.1,0.5,3,1.8,3.3,2.7c1.5,4-3.1,10.4-3.6,11.2C161,48.7,160.6,48.9,160.2,48.9z M160.2,36.9
				c-0.3,0-0.5,0.1-0.6,0.2c-0.8,0.9-0.2,4.4,0.9,7.7c1.3-2.3,2.5-5.2,1.9-6.7c-0.1-0.4-0.4-0.9-1.5-1.1
				C160.6,36.9,160.4,36.9,160.2,36.9z"/>
		</g>
		<g>
			<path style="fill:#AAB5A3;" d="M151.9,51.3c0,0-1.3-9.6-3.7-5.9C145.6,49.2,151.9,51.3,151.9,51.3z"/>
			<path style="fill:#AAB5A3;" d="M151.9,52.6c-0.1,0-0.3,0-0.4-0.1c-0.4-0.1-4.1-1.5-5-4.1c-0.3-0.8-0.4-2.1,0.6-3.6
				c0.9-1.4,1.9-1.5,2.6-1.4c2.1,0.5,3,4.5,3.4,7.8c0.1,0.4-0.1,0.9-0.5,1.1C152.4,52.5,152.1,52.6,151.9,52.6z M149.2,46.1
				C149.2,46.1,149.2,46.1,149.2,46.1c-0.5,0.7-0.4,1.2-0.3,1.5c0.2,0.5,0.7,1,1.3,1.5C149.9,47.7,149.5,46.6,149.2,46.1z
				 M149.5,45.8L149.5,45.8L149.5,45.8z"/>
		</g>
		<g>
			<path style="fill:#AAB5A3;" d="M138.9,51.5c0,0,2.6-10.8-1.1-9.4C134.2,43.5,138.9,51.5,138.9,51.5z"/>
			<path style="fill:#AAB5A3;" d="M138.9,52.7c-0.4,0-0.9-0.2-1.1-0.6c-0.4-0.6-3.5-6-2.4-9.2c0.3-1,1-1.7,2-2
				c1.3-0.5,2.2,0,2.6,0.3c2,1.8,0.8,7.9,0.2,10.5c-0.1,0.5-0.5,0.9-1,1C139,52.7,139,52.7,138.9,52.7z M138.3,43.3
				C138.3,43.3,138.3,43.3,138.3,43.3c-0.3,0.1-0.4,0.3-0.5,0.5c-0.3,0.8,0,2.2,0.5,3.6C138.6,45.4,138.6,43.8,138.3,43.3z"/>
		</g>
		<g>
			<path style="fill:#AAB5A3;" d="M134.3,61.1c0,0-7.1-7.7-8-4.6C125.5,59.7,134.3,61.1,134.3,61.1z"/>
			<path style="fill:#AAB5A3;" d="M134.3,62.4c-0.1,0-0.1,0-0.2,0c-1.1-0.2-6.9-1.2-8.6-3.8c-0.5-0.7-0.6-1.5-0.4-2.4
				c0.2-0.9,0.8-1.5,1.5-1.6c2.3-0.6,6.4,3.3,8.6,5.7c0.4,0.4,0.4,1,0.2,1.5C135.2,62.1,134.7,62.4,134.3,62.4z M127.6,57.1
				C127.6,57.1,127.6,57.1,127.6,57.1c0.4,0.5,1.1,1,2.1,1.4C128.9,57.8,128.1,57.3,127.6,57.1z"/>
		</g>
		<g>
			<path style="fill:#AAB5A3;" d="M141.4,78.6c0,0,3.5-8.2-1.1-6.9S141.4,78.6,141.4,78.6z"/>
			<path style="fill:#AAB5A3;" d="M141.4,79.8c-0.3,0-0.7-0.1-0.9-0.4c-0.6-0.6-3.8-4-3.1-6.6c0.2-0.8,0.8-1.9,2.6-2.4
				c1.7-0.5,2.7,0.1,3.2,0.6c1.7,1.9,0,6.6-0.6,8c-0.2,0.4-0.5,0.7-0.9,0.8C141.5,79.8,141.5,79.8,141.4,79.8z M141.3,72.8
				c0,0-0.2,0-0.6,0.1c-0.3,0.1-0.8,0.3-0.8,0.6c-0.1,0.6,0.4,1.6,1.1,2.6C141.4,74.5,141.5,73.2,141.3,72.8z"/>
		</g>
		<g>
			<path style="fill:#AAB5A3;" d="M133,82.6c0,0-4.8-8.1-6.7-4C124.4,82.8,133,82.6,133,82.6z"/>
			<path style="fill:#AAB5A3;" d="M132.7,83.9c-1.5,0-6-0.2-7.4-2.5c-0.4-0.7-0.8-1.8-0.1-3.3c0.7-1.5,1.7-1.9,2.5-1.9
				c2.8-0.1,5.6,4.4,6.5,5.8c0.2,0.4,0.2,0.9,0,1.3c-0.2,0.4-0.6,0.6-1.1,0.7C132.9,83.9,132.8,83.9,132.7,83.9z M127.8,78.7
				C127.8,78.7,127.8,78.7,127.8,78.7c-0.1,0-0.2,0.1-0.4,0.5c-0.3,0.6-0.1,0.8-0.1,0.9c0.4,0.6,1.7,1,3.2,1.2
				C129.4,79.7,128.3,78.7,127.8,78.7z"/>
		</g>
		<g>
			<path style="fill:#AAB5A3;" d="M168.8,90.7c0,0,4.2-5.1,5.1-1.7C175,92.4,168.8,90.7,168.8,90.7z"/>
			<path style="fill:#AAB5A3;" d="M171.7,92.4c-1.3,0-2.6-0.3-3.2-0.5c-0.4-0.1-0.7-0.4-0.9-0.8c-0.1-0.4,0-0.9,0.2-1.2
				c0.7-0.9,3.2-3.7,5.4-3.3c0.5,0.1,1.5,0.5,2,2c0.4,1.5-0.1,2.4-0.5,2.8C173.9,92.2,172.8,92.4,171.7,92.4z M171.5,89.8
				c0.7,0,1.2,0,1.4-0.2c0,0,0-0.1-0.1-0.3c0-0.1-0.1-0.2-0.1-0.2C172.4,89.1,172,89.4,171.5,89.8z"/>
		</g>
		<g>
			<path style="fill:#AAB5A3;" d="M163.4,85.7c0,0-0.5-7.7,1.8-6S163.4,85.7,163.4,85.7z"/>
			<path style="fill:#AAB5A3;" d="M163.4,87c-0.1,0-0.3,0-0.4-0.1c-0.5-0.2-0.8-0.6-0.8-1.1c-0.3-4.2,0.3-6.7,1.6-7.4
				c0.3-0.2,1.2-0.5,2.2,0.3c0.7,0.5,1.1,1.3,1.2,2.2c0.2,2.4-2.3,5.2-2.8,5.7C164.1,86.8,163.7,87,163.4,87z"/>
		</g>
		<g>
			<path style="fill:#AAB5A3;" d="M165.5,112.3c0,0-2.9-7.3-0.1-7C168.2,105.6,165.5,112.3,165.5,112.3z"/>
			<path style="fill:#AAB5A3;" d="M165.5,113.6C165.5,113.6,165.5,113.6,165.5,113.6c-0.5,0-1-0.3-1.2-0.8c-0.7-1.8-2.2-6.1-0.8-7.9
				c0.5-0.6,1.2-0.9,2.1-0.8c0.8,0.1,1.5,0.5,1.9,1.2c1.2,2.1-0.3,6.3-0.8,7.5C166.5,113.2,166,113.6,165.5,113.6z"/>
		</g>
		<g>
			<path style="fill:#AAB5A3;" d="M174.4,112.6c0,0-2.8-8.7,0.6-7.1S174.4,112.6,174.4,112.6z"/>
			<path style="fill:#AAB5A3;" d="M174.4,113.9c-0.1,0-0.1,0-0.2,0c-0.5-0.1-0.9-0.4-1-0.9c-1-3.1-1.9-7.1-0.3-8.4
				c0.4-0.3,1.3-0.8,2.6-0.2c1,0.5,1.7,1.3,2,2.3c0.7,2.7-1.8,6.3-2.1,6.7C175.2,113.7,174.8,113.9,174.4,113.9z M174.6,106.7
				c0,0.5,0,1.4,0.2,2.5c0.2-0.7,0.4-1.3,0.3-1.8C175.1,107.1,175,106.9,174.6,106.7z"/>
		</g>
		<g>
			<path style="fill:#AAB5A3;" d="M175.5,119.3c0,0,5.4-4.9,6.1-2.1C182.4,120.1,175.5,119.3,175.5,119.3z"/>
			<path style="fill:#AAB5A3;" d="M177.5,120.7c-0.9,0-1.7-0.1-2.1-0.1c-0.5-0.1-0.9-0.4-1.1-0.9c-0.2-0.5,0-1,0.4-1.3
				c1.3-1.2,4.5-3.8,6.6-3.2c0.8,0.2,1.4,0.9,1.6,1.7c0.2,0.9,0.1,1.7-0.5,2.3C181.4,120.4,179.2,120.7,177.5,120.7z M180.4,117.6
				c-0.2,0-0.5,0.2-0.9,0.4C180,117.9,180.3,117.8,180.4,117.6z"/>
		</g>
		<g>
			<path style="fill:#AAB5A3;" d="M147.9,113.5c0,0,0-6.7-2-6.1C143.9,108.1,147.9,113.5,147.9,113.5z"/>
			<path style="fill:#AAB5A3;" d="M147.9,114.8c-0.4,0-0.8-0.2-1-0.5c-1-1.4-3.3-4.8-2.7-6.7c0.2-0.6,0.7-1.1,1.3-1.3
				c0.7-0.2,1.3-0.1,1.9,0.3c1.7,1.2,1.8,5.3,1.8,7c0,0.5-0.3,1-0.9,1.2C148.2,114.8,148.1,114.8,147.9,114.8z"/>
		</g>
		<g>
			<path style="fill:#AAB5A3;" d="M136.9,109.9c0,0,1.8-11.6-2.1-10.1C130.9,101.4,136.9,109.9,136.9,109.9z"/>
			<path style="fill:#AAB5A3;" d="M136.9,111.2c-0.4,0-0.8-0.2-1-0.5c-0.8-1.1-4.5-6.6-3.5-9.9c0.3-1,1-1.7,1.9-2.1
				c1.3-0.5,2.2,0,2.6,0.3c2.4,1.9,1.5,9,1.2,11.1c-0.1,0.5-0.5,0.9-1,1C137.1,111.2,137,111.2,136.9,111.2z M135.4,101
				c0,0-0.1,0-0.2,0.1c-0.3,0.1-0.4,0.3-0.4,0.5c-0.3,0.9,0.3,2.7,1.2,4.4C136.1,103.5,135.9,101.4,135.4,101z"/>
		</g>
		<g>
			<path style="fill:#AAB5A3;" d="M128.5,109.4c0,0-6.7-4.6-6.7-0.9C121.8,112.2,128.5,109.4,128.5,109.4z"/>
			<path style="fill:#AAB5A3;" d="M124.1,111.7c-0.8,0-1.7-0.2-2.3-0.6c-0.6-0.4-1.3-1.2-1.3-2.6c0-1.5,0.8-2.2,1.3-2.4
				c2.1-1.1,5.9,1.2,7.4,2.2c0.4,0.3,0.6,0.7,0.5,1.2c0,0.5-0.3,0.9-0.8,1C128.4,110.8,126.2,111.7,124.1,111.7z M123.1,108.3
				c0,0,0,0.1,0,0.2c0,0.4,0.1,0.4,0.2,0.5c0.4,0.2,1.2,0.2,2.1,0C124.4,108.5,123.5,108.3,123.1,108.3z"/>
		</g>
		<g>
			<path style="fill:#AAB5A3;" d="M144.1,124.9c0,0-2.4-6.2-4.5-4.3C137.5,122.5,144.1,124.9,144.1,124.9z"/>
			<path style="fill:#AAB5A3;" d="M144.1,126.1c-0.1,0-0.3,0-0.4-0.1c-1.6-0.6-5.3-2.1-5.7-4.2c-0.1-0.5-0.1-1.4,0.8-2.2
				c0.7-0.6,1.5-0.8,2.3-0.6c2.2,0.5,3.8,4.2,4.2,5.4c0.2,0.5,0.1,1-0.3,1.3C144.8,126,144.4,126.1,144.1,126.1z M140.6,121.6
				c0.1,0.1,0.2,0.2,0.3,0.3C140.8,121.7,140.7,121.6,140.6,121.6z M140.4,121.5C140.4,121.5,140.4,121.5,140.4,121.5
				C140.4,121.5,140.4,121.5,140.4,121.5C140.4,121.5,140.4,121.5,140.4,121.5z"/>
		</g>
		<g>
			<path style="fill:#AAB5A3;" d="M138.6,130.3c0,0-7.5-7.9-7.4-3.2S138.6,130.3,138.6,130.3z"/>
			<path style="fill:#AAB5A3;" d="M136.1,131.8c-1.5,0-3.3-0.3-4.6-1.3c-1-0.8-1.6-2-1.6-3.4c0-1.7,0.7-2.4,1.4-2.6
				c2.1-0.9,5.7,2.2,8.3,4.9c0.3,0.3,0.4,0.8,0.3,1.2c-0.1,0.4-0.5,0.8-0.9,0.9C138.6,131.6,137.5,131.8,136.1,131.8z M132.5,126.9
				c0,0,0,0.1,0,0.2c0,0.9,0.4,1.2,0.6,1.5c0.6,0.5,1.6,0.7,2.6,0.7C134.4,128.1,133.1,127.2,132.5,126.9z"/>
		</g>
		<g>
			<path style="fill:#AAB5A3;" d="M147.5,136.1c0,0-6.7,1.4-4.6,3.4C145.1,141.5,147.5,136.1,147.5,136.1z"/>
			<path style="fill:#AAB5A3;" d="M144,141.2c-0.7,0-1.3-0.3-1.9-0.8c-0.9-0.9-0.9-1.8-0.7-2.3c0.5-1.9,3.9-2.9,5.9-3.3
				c0.5-0.1,1,0.1,1.3,0.4c0.3,0.4,0.4,0.9,0.2,1.3c-0.3,0.7-2,4.1-4.2,4.5C144.3,141.2,144.1,141.2,144,141.2z M144.2,138.6
				C144.2,138.6,144.2,138.6,144.2,138.6C144.2,138.6,144.2,138.6,144.2,138.6z"/>
		</g>
		<g>
			<path style="fill:#AAB5A3;" d="M162.6,137.1c-0.2,0-0.4,0-0.6-0.1c-0.6-0.3-0.9-1.1-0.6-1.7l6.4-13l5.4-10.3
				c0.3-0.6,1.1-0.9,1.7-0.5c0.6,0.3,0.9,1.1,0.5,1.7l-5.4,10.2l-6.4,12.9C163.5,136.8,163.1,137.1,162.6,137.1z"/>
		</g>
		<g>
			<path style="fill:#AAB5A3;" d="M169,124.1c-0.5,0-0.9-0.3-1.1-0.7c-1.4-2.8-3.5-10.5-3.6-10.8c-0.2-0.7,0.2-1.4,0.9-1.6
				c0.7-0.2,1.4,0.2,1.6,0.9c0,0.1,2.1,7.7,3.4,10.3c0.3,0.6,0.1,1.4-0.6,1.7C169.4,124.1,169.2,124.1,169,124.1z"/>
		</g>
		<g>
			<path style="fill:#AAB5A3;" d="M163.6,139.9c-0.4,0-0.8-0.2-1-0.5c-1.5-2.2-6.8-3.7-10.2-4.8c-2.9-0.9-7.7-1.9-13.9-3
				c-0.7-0.1-1.1-0.8-1-1.5c0.1-0.7,0.8-1.1,1.5-1c6.4,1.1,11.2,2.2,14.2,3.1c4.2,1.3,9.5,2.9,11.6,5.7c0.4,0.6,0.3,1.4-0.3,1.8
				C164.1,139.8,163.9,139.9,163.6,139.9z"/>
		</g>
		<g>
			<path style="fill:#AAB5A3;" d="M148.1,133.4c-0.4,0-0.9-0.2-1.1-0.7l-4-7.3c-0.3-0.6-0.1-1.4,0.5-1.7c0.6-0.3,1.4-0.1,1.7,0.5
				l4,7.3c0.3,0.6,0.1,1.4-0.5,1.7C148.5,133.4,148.3,133.4,148.1,133.4z"/>
		</g>
		<g>
			<path style="fill:#AAB5A3;" d="M176.4,176.1c-0.5,0-1-0.3-1.2-0.8c-0.8-2.3-20.7-55.9-21.4-65.2c-0.4-5.2-2.3-31.6-0.7-36.2
				c1.3-3.8,5.8-26.2,5.9-26.5c0.1-0.7,0.8-1.1,1.5-1c0.7,0.1,1.1,0.8,1,1.5c-0.2,0.9-4.6,22.8-5.9,26.7c-1,3.1-0.3,20.4,0.8,35.3
				c0.7,9,21.1,64,21.3,64.5c0.2,0.7-0.1,1.4-0.7,1.6C176.7,176.1,176.6,176.1,176.4,176.1z"/>
		</g>
		<g>
			<path style="fill:#AAB5A3;" d="M154.6,104.6c-0.3,0-0.7-0.1-0.9-0.4c-0.9-0.9-8.6-8.7-10-10.7c-0.9-1.4-7.6-6.8-11.5-9.8
				c-0.6-0.4-0.6-1.2-0.2-1.8c0.4-0.6,1.2-0.6,1.8-0.2c1.1,0.8,10.6,8.3,12,10.4c1.1,1.6,7.4,8,9.7,10.4c0.5,0.5,0.5,1.3,0,1.8
				C155.3,104.4,154.9,104.6,154.6,104.6z"/>
		</g>
		<g>
			<path style="fill:#AAB5A3;" d="M143,91.9c-0.6,0-1.2-0.5-1.3-1.1l-1.7-12.1c-0.1-0.7,0.4-1.3,1.1-1.4c0.7-0.1,1.3,0.4,1.4,1.1
				l1.7,12.1c0.1,0.7-0.4,1.3-1.1,1.4C143.2,91.9,143.1,91.9,143,91.9z"/>
		</g>
		<g>
			<path style="fill:#AAB5A3;" d="M153.8,82.5c-0.5,0-1-0.3-1.2-0.8c0-0.1-4-10.5-7.4-14.7c-3.2-4-5.3-9.5-6.8-13.5
				c-0.2-0.6-0.4-1.1-0.6-1.6c-0.3-0.7,0.1-1.4,0.7-1.6c0.6-0.3,1.4,0.1,1.6,0.7c0.2,0.5,0.4,1,0.6,1.6c1.5,3.9,3.5,9.1,6.4,12.8
				c3.6,4.5,7.6,14.9,7.8,15.4c0.3,0.7-0.1,1.4-0.7,1.6C154.1,82.5,153.9,82.5,153.8,82.5z"/>
		</g>
		<g>
			<path style="fill:#AAB5A3;" d="M144.7,65.4c-0.1,0-0.2,0-0.4-0.1l-10.4-3.1c-0.7-0.2-1.1-0.9-0.9-1.6c0.2-0.7,0.9-1.1,1.6-0.9
				l10.4,3.1c0.7,0.2,1.1,0.9,0.9,1.6C145.7,65,145.2,65.4,144.7,65.4z"/>
		</g>
		<g>
			<path style="fill:#AAB5A3;" d="M157.3,61.8c-0.4,0-0.9-0.2-1.1-0.6l-5.4-9.2c-0.4-0.6-0.2-1.4,0.4-1.7c0.6-0.4,1.4-0.2,1.7,0.4
				l5.4,9.2c0.4,0.6,0.2,1.4-0.4,1.7C157.7,61.7,157.5,61.8,157.3,61.8z"/>
		</g>
		<g>
			<path style="fill:#AAB5A3;" d="M155.2,75.2c-0.5,0-1-0.3-1.2-0.9c-0.2-0.7,0.1-1.4,0.8-1.6l10.3-3.5l4.8-8.5
				c0.3-0.6,1.1-0.8,1.7-0.5c0.6,0.3,0.8,1.1,0.5,1.7L167,71c-0.2,0.3-0.4,0.5-0.7,0.6l-10.8,3.6C155.4,75.2,155.3,75.2,155.2,75.2z
				"/>
		</g>
		<g>
			<path style="fill:#AAB5A3;" d="M177.3,74.6c-0.1,0-0.2,0-0.3,0l-11.4-3c-0.7-0.2-1.1-0.9-0.9-1.6c0.2-0.7,0.9-1.1,1.6-0.9l11.4,3
				c0.7,0.2,1.1,0.9,0.9,1.6C178.4,74.3,177.9,74.6,177.3,74.6z"/>
		</g>
		<g>
			<path style="fill:#AAB5A3;" d="M154.5,102c-0.2,0-0.5-0.1-0.7-0.2c-0.6-0.4-0.8-1.2-0.4-1.7c1.3-2,4.7-7.7,5.4-9.3
				c0.9-2.3,3.5-5.6,3.6-5.8c0.4-0.6,1.2-0.7,1.8-0.2c0.6,0.4,0.7,1.2,0.2,1.8c0,0-2.5,3.2-3.2,5.2c-0.9,2.2-5.4,9.4-5.6,9.7
				C155.3,101.8,154.9,102,154.5,102z"/>
		</g>
		<g>
			<path style="fill:#AAB5A3;" d="M158.9,94.5c-0.6,0-1.1-0.4-1.2-0.9c-0.2-0.7,0.2-1.4,0.9-1.5l9.9-2.6c0.7-0.2,1.4,0.2,1.5,0.9
				c0.2,0.7-0.2,1.4-0.9,1.5l-9.9,2.6C159.1,94.5,159,94.5,158.9,94.5z"/>
		</g>
		<g>
			<path style="fill:#AAB5A3;" d="M156.7,121.1c-0.2,0-0.4-0.1-0.6-0.2c-0.3-0.2-0.8-0.5-1.4-0.8c-3-1.8-9.4-5.4-11.9-6.2
				c-3.1-0.9-13.7-3.3-13.8-3.3c-0.7-0.1-1.1-0.8-1-1.5c0.1-0.7,0.8-1.1,1.5-1c0.4,0.1,10.8,2.4,14,3.3c2.8,0.9,9.1,4.5,12.4,6.4
				c0.6,0.4,1.1,0.6,1.4,0.8c0.6,0.3,0.8,1.1,0.5,1.7C157.5,120.8,157.1,121.1,156.7,121.1z"/>
		</g>
		<g>
			<path style="fill:#AAB5A3;" d="M175.5,120.6C175.5,120.6,175.5,120.6,175.5,120.6l-4-0.1c-0.7,0-1.3-0.6-1.2-1.3
				c0-0.7,0.5-1.2,1.3-1.2l4,0.1c0.7,0,1.3,0.6,1.2,1.3C176.8,120,176.2,120.6,175.5,120.6z"/>
		</g>
		<g>
			<path style="fill:#AAB5A3;" d="M147.5,137.4c-0.4,0-0.8-0.2-1-0.5c-0.4-0.6-0.3-1.4,0.3-1.8l4.2-3c0.6-0.4,1.4-0.3,1.8,0.3
				c0.4,0.6,0.3,1.4-0.3,1.8l-4.2,3C148,137.3,147.8,137.4,147.5,137.4z"/>
		</g>
		<g>
			<path style="fill:#AAB5A3;" d="M214.2,5.6c0,2.6,4.2,10.8,6.6,14.4s7.3,6.4,7.3,6.4s-0.2-13.7-1.1-16.7c-1.1-3.9-2.1-8-5.4-7.5
				C218.4,2.5,214.2,3,214.2,5.6z"/>
			<path style="fill:#AAB5A3;" d="M228.1,27.6c-0.2,0-0.4-0.1-0.6-0.2c-0.2-0.1-5.2-3-7.7-6.8c-2-3.1-6.8-11.9-6.8-15.1
				c0-3.6,4.7-4.2,8.1-4.7l0.5-0.1c4.3-0.6,5.7,4.4,6.7,8.4c0.9,3.2,1.1,15.7,1.1,17.1c0,0.5-0.2,0.9-0.6,1.1
				C228.5,27.5,228.3,27.6,228.1,27.6z M222.1,3.3c-0.1,0-0.2,0-0.3,0l-0.5,0.1c-2.3,0.3-5.9,0.8-5.9,2.2c0,2,3.7,9.7,6.4,13.7
				c1.3,1.9,3.4,3.6,4.9,4.7c-0.1-4.6-0.4-12-1-14C224.7,5.9,223.8,3.3,222.1,3.3z"/>
		</g>
		<g>
			<path style="fill:#AAB5A3;" d="M229.4,25.8c0,0,15.4-12.8,14.4-16.4S237.7,1,236,1.3c-1.7,0.3-6.6,14.8-6.6,17.9
				S229.4,25.8,229.4,25.8z"/>
			<path style="fill:#AAB5A3;" d="M229.4,27.1c-0.2,0-0.4,0-0.5-0.1c-0.4-0.2-0.7-0.7-0.7-1.1v-6.7c0-2.1,4.5-18.6,7.6-19.1
				c2.8-0.5,8.3,5.4,9.3,9.1c1,4-10,13.7-14.9,17.7C230,27,229.7,27.1,229.4,27.1z M236.4,2.6c-1.6,1.9-5.7,13.8-5.7,16.6v3.9
				c6.9-6,12.2-11.9,12-13.3C241.8,6.7,237.7,3,236.4,2.6z M236.5,2.4"/>
		</g>
		<g>
			<path style="fill:#AAB5A3;" d="M228.4,19.1c0,0-0.3-15,1-15.7c1.3-0.6,5.4,1.4,5.4,1.4L228.4,19.1z"/>
			<path style="fill:#AAB5A3;" d="M228.4,20.3c-0.1,0-0.2,0-0.3,0c-0.6-0.1-1-0.6-1-1.2c-0.3-15.8,1-16.5,1.7-16.8
				c1.6-0.8,4.8,0.5,6.5,1.4c0.6,0.3,0.9,1,0.6,1.7l-6.4,14.3C229.3,20,228.9,20.3,228.4,20.3z M230.2,4.5c-0.3,1.2-0.5,4.7-0.6,8.6
				l3.5-7.7C232,4.9,230.8,4.6,230.2,4.5z"/>
		</g>
		<g>
			<path style="fill:#AAB5A3;" d="M215.9,42.7c0,0-2.5-3.9-2.7-5.4c-0.3-2.3,0.2-6.8,1.6-6.2c1.4,0.6,3.6,4.5,3,6.7
				C217.1,40.1,215.9,42.7,215.9,42.7z"/>
			<path style="fill:#AAB5A3;" d="M215.9,44c-0.4,0-0.8-0.2-1.1-0.6c-0.4-0.7-2.6-4.2-2.9-5.9c-0.2-1.4-0.3-6,1.4-7.3
				c0.6-0.4,1.3-0.5,1.9-0.2c1.9,0.9,4.5,5.3,3.7,8.2c-0.6,2.3-1.9,4.9-2,5.1C216.8,43.7,216.4,44,215.9,44
				C215.9,44,215.9,44,215.9,44z M214.8,32.7c-0.3,1-0.5,3-0.3,4.5c0.1,0.5,0.6,1.6,1.2,2.7c0.3-0.8,0.6-1.6,0.8-2.4
				C216.9,36.2,215.7,33.7,214.8,32.7z"/>
		</g>
		<g>
			<path style="fill:#AAB5A3;" d="M256.8,61.9c0,0,0.7-5.8,1.7-6.4s3.8-2.6,4.3-1.5c0.5,1.1-0.9,5.2-2.4,6.1S256.8,61.9,256.8,61.9z
				"/>
			<path style="fill:#AAB5A3;" d="M256.8,63.1c-0.3,0-0.5-0.1-0.8-0.3c-0.4-0.3-0.5-0.7-0.5-1.2c0.8-6.5,2-7.1,2.4-7.3
				c0.2-0.1,0.4-0.2,0.6-0.4c1.8-1.1,3.2-1.9,4.4-1.5c0.5,0.2,0.9,0.5,1.1,1c0.8,1.8-1,6.5-2.9,7.7c-1.6,1-3.7,1.8-3.8,1.9
				C257.1,63.1,256.9,63.1,256.8,63.1z M259.3,56.5c-0.2,0.4-0.6,1.7-0.9,3.2c0.4-0.2,0.9-0.5,1.3-0.7c0.7-0.5,1.6-2.6,1.9-3.8
				c-0.6,0.3-1.4,0.8-1.7,1C259.6,56.3,259.4,56.4,259.3,56.5z M259.3,56.4"/>
		</g>
		<g>
			<path style="fill:#AAB5A3;" d="M201.9,72.7c0,0-9.3-8.9-9.7-12.7s1.7-6.6,3.5-7.4s3.9,3.3,4.6,6.9
				C200.8,63.1,201.9,72.7,201.9,72.7z"/>
			<path style="fill:#AAB5A3;" d="M201.9,74c-0.3,0-0.6-0.1-0.9-0.4c-1.6-1.5-9.6-9.5-10.1-13.5c-0.6-4.4,2.1-7.7,4.2-8.7
				c0.7-0.3,1.5-0.3,2.2,0.1c2,1.1,3.6,4.7,4.1,7.7c0.6,3.6,1.7,12.9,1.7,13.3c0.1,0.5-0.2,1-0.7,1.3C202.3,73.9,202.1,74,201.9,74z
				 M196.1,53.8c-1.2,0.6-3,2.9-2.6,6.1c0.2,1.9,3.6,6,6.8,9.3c-0.4-3.1-0.9-7.3-1.3-9.4C198.4,56.5,196.7,53.9,196.1,53.8z"/>
		</g>
		<g>
			<path style="fill:#AAB5A3;" d="M201.9,72.7c-1.4,1.5,10.3-6.6,11-12.4c0.5-4.1-1-4.4-1-4.4s-5.9-4.2-6.6-4.2
				c-0.6,0-1.4,10.7-1.7,11.6C203.3,64.2,201.9,72.7,201.9,72.7z"/>
			<path style="fill:#AAB5A3;" d="M201.8,74.2c-0.5,0-0.9-0.2-1.1-0.7c-0.1-0.2-0.3-0.7,0-1.3c0.3-1.9,1.4-8.4,1.7-9.3
				c0.1-0.3,0.3-2.2,0.4-3.7c0.8-7.8,1-8.8,2.5-8.8c0.4,0,1,0,7.2,4.4c0.8,0.3,2.1,1.5,1.6,5.7c-0.7,5.9-11,13.5-12.1,13.7
				C202,74.2,201.9,74.2,201.8,74.2z M201.9,72.7l0.9,0.9c0,0,0,0,0,0L201.9,72.7z M201.9,72.7L201.9,72.7L201.9,72.7z M206.1,53.5
				c-0.3,1.6-0.5,4.3-0.7,6c-0.3,2.8-0.4,3.8-0.6,4.2c-0.1,0.4-0.7,3.3-1.2,6.4c3-2.3,7.7-6.8,8-10c0.2-2.2-0.2-3-0.3-3.1
				c-0.1,0-0.1-0.1-0.2-0.1C209.4,55.7,207.4,54.3,206.1,53.5z M211.6,57.1C211.6,57.1,211.6,57.1,211.6,57.1
				C211.6,57.1,211.6,57.1,211.6,57.1z M211.6,57.1C211.6,57.1,211.6,57.1,211.6,57.1C211.6,57.1,211.6,57.1,211.6,57.1z
				 M211.6,57.1C211.6,57.1,211.6,57.1,211.6,57.1C211.6,57.1,211.6,57.1,211.6,57.1z"/>
		</g>
		<g>
			<path style="fill:#AAB5A3;" d="M204.8,53.7c0,0-2.3-1.1-3-1.2s-3.2,2.3-3.2,2.3l3.4,12.1L204.8,53.7z"/>
			<path style="fill:#AAB5A3;" d="M201.9,68.2c-0.6,0-1.1-0.4-1.2-0.9l-3.4-12.1c-0.1-0.4,0-0.9,0.3-1.3c2.9-2.8,3.9-2.7,4.3-2.7
				c0.8,0.1,2.7,0.9,3.4,1.3c0.5,0.2,0.8,0.8,0.7,1.4l-2.9,13.2C203,67.8,202.5,68.2,201.9,68.2C201.9,68.2,201.9,68.2,201.9,68.2z
				 M200,55.2l1.8,6.4l1.6-7.3c-0.7-0.3-1.2-0.5-1.6-0.6C201.4,54,200.7,54.6,200,55.2z M201.9,53.8L201.9,53.8L201.9,53.8z"/>
		</g>
		<g>
			<path style="fill:#AAB5A3;" d="M250.3,54.8c0,0-7.5-11.9-7.5-12.9s0-1.7,0-1.7s0.3-2.7,3.8-4.7s5.3,1.7,5,3.8
				S250.3,54.8,250.3,54.8z"/>
			<path style="fill:#AAB5A3;" d="M250.3,56.1c-0.4,0-0.8-0.2-1.1-0.6c-7.7-12.3-7.7-13.2-7.7-13.6v-1.7c0,0,0-0.1,0-0.1
				c0-0.1,0.4-3.3,4.4-5.7c2.3-1.3,3.9-0.6,4.7-0.1c1.7,1.1,2.5,3.5,2.2,5.1c-0.2,1.6-0.9,10.8-1.2,15.5c0,0.5-0.4,1-1,1.1
				C250.5,56.1,250.4,56.1,250.3,56.1z M244,41.8c0.3,0.9,2.7,4.9,5.3,9.1c0.3-4.2,0.8-10.4,1-11.8c0.1-0.8-0.3-2.1-1.1-2.7
				c-0.2-0.1-0.8-0.5-2,0.2c-2.6,1.5-3.1,3.4-3.1,3.7V41.8z"/>
		</g>
		<g>
			<path style="fill:#AAB5A3;" d="M251.6,54.8c0,0,12.7-9.1,10-13s-6.6-7.8-7.7-6.9S251.6,54.8,251.6,54.8z"/>
			<path style="fill:#AAB5A3;" d="M251.6,56.1c-0.2,0-0.4-0.1-0.6-0.2c-0.4-0.2-0.7-0.7-0.7-1.2c1.3-19.6,2.3-20.4,2.8-20.8
				c0.3-0.2,0.8-0.5,1.5-0.4c2.3,0.3,6.1,4.7,8,7.5c3.1,4.6-7.1,12.5-10.3,14.8C252.1,56,251.8,56.1,251.6,56.1z M254.7,36.2
				c-0.5,2.2-1.2,9-1.7,15.9c4.6-3.7,8.5-8.2,7.5-9.6C258.4,39.3,255.9,36.9,254.7,36.2z"/>
		</g>
		<g>
			<path style="fill:#AAB5A3;" d="M213.4,87.9c0,0-4.2-2.4-2.2-6c1.9-3.6,4.7-2.4,4.6,0S213.4,87.9,213.4,87.9z"/>
			<path style="fill:#AAB5A3;" d="M213.4,89.2c-0.2,0-0.4-0.1-0.6-0.2c-1.8-1-4.7-3.9-2.7-7.7c1.4-2.7,3.4-3.2,4.7-2.8
				c1.4,0.4,2.4,1.8,2.3,3.5c-0.2,2.6-2.3,6.1-2.5,6.5C214.3,88.9,213.8,89.2,213.4,89.2z M214,80.9c-0.4,0-1.1,0.5-1.7,1.6
				c-0.8,1.5,0,2.7,0.7,3.5c0.6-1.2,1.4-3,1.5-4.2c0-0.4-0.1-0.8-0.4-0.9C214,80.9,214,80.9,214,80.9z"/>
		</g>
		<g>
			<path style="fill:#AAB5A3;" d="M206.2,126.3c0,0-4.7-6.9-4.2-8.8c0.5-1.9,1.7-4.2,2.9-4.2c1.2,0,3.2,5.8,3.2,8.5
				C208,124.4,206.2,126.3,206.2,126.3z"/>
			<path style="fill:#AAB5A3;" d="M206.2,127.5c0,0-0.1,0-0.1,0c-0.4,0-0.7-0.2-0.9-0.5c-1.9-2.8-5-7.7-4.4-9.8
				c0.4-1.8,1.9-5.2,4.1-5.2c2.7,0,4.5,7.8,4.5,9.7c0,3.2-2.2,5.4-2.3,5.4C206.8,127.4,206.5,127.5,206.2,127.5z M204.6,114.7
				c-0.4,0.4-1.1,1.6-1.5,3.1c-0.1,0.7,1.3,3.4,3,6.2c0.3-0.6,0.6-1.4,0.6-2.3C206.8,119.7,205.4,115.8,204.6,114.7z"/>
		</g>
		<g>
			<path style="fill:#AAB5A3;" d="M243.9,102.9c0,0-0.4-5.6,1.2-7.5c1.6-1.9,3.4-2.1,2.9,0.4C247.5,98.3,243.9,102.9,243.9,102.9z"
				/>
			<path style="fill:#AAB5A3;" d="M243.9,104.1c-0.1,0-0.3,0-0.4-0.1c-0.5-0.2-0.9-0.6-0.9-1.1c-0.1-1-0.3-6.2,1.5-8.4
				c1.3-1.6,2.8-2.2,4-1.7c0.6,0.3,1.5,1,1.1,3.2c-0.5,2.7-3.9,7.1-4.3,7.6C244.6,104,244.3,104.1,243.9,104.1z M246.7,95.5
				c-0.2,0.2-0.4,0.4-0.7,0.7c-0.4,0.5-0.6,1.4-0.8,2.5C246,97.5,246.5,96.4,246.7,95.5C246.7,95.6,246.7,95.6,246.7,95.5z"/>
		</g>
		<g>
			<path style="fill:#AAB5A3;" d="M255.1,106.5c0,0,0.3-9.1,2.5-10.5c2.2-1.4,4.2,0,4.3,2.5c0.1,2.5-1.7,5.2-3.4,6.6
				C256.9,106.5,255.1,106.5,255.1,106.5z"/>
			<path style="fill:#AAB5A3;" d="M255.1,107.7c-0.3,0-0.7-0.1-0.9-0.4c-0.2-0.2-0.4-0.6-0.4-0.9c0.1-2.3,0.5-9.9,3.1-11.5
				c1.3-0.9,2.8-1,4-0.4c1.3,0.7,2.1,2.1,2.2,3.9c0.1,2.9-1.8,5.9-3.9,7.6C257.4,107.7,255.4,107.7,255.1,107.7z M259.4,96.7
				c-0.4,0-0.7,0.2-1,0.4c-0.8,0.5-1.6,4-1.8,7.8c0.4-0.2,0.8-0.4,1.2-0.8c1.5-1.3,3-3.6,3-5.6c0-0.8-0.4-1.5-0.8-1.7
				C259.7,96.7,259.5,96.7,259.4,96.7z"/>
		</g>
		<g>
			<path style="fill:#AAB5A3;" d="M231.6,85c-0.3,0-0.5-0.1-0.8-0.3c-0.6-0.4-0.6-1.2-0.2-1.8c4.7-6,14-18.1,15.4-21
				c1.2-2.3,2.2-4.5,2.8-6.1c0.5-1.2,0.7-1.6,0.9-1.9c0.4-0.6,1.2-0.7,1.8-0.4c0.6,0.4,0.7,1.2,0.4,1.7c-0.1,0.2-0.4,0.8-0.7,1.5
				c-0.7,1.5-1.7,3.9-2.9,6.2c-1.9,3.7-15.1,20.6-15.7,21.4C232.4,84.9,232,85,231.6,85z"/>
		</g>
		<g>
			<path style="fill:#AAB5A3;" d="M237.9,77.7c-0.5,0-1-0.3-1.2-0.8c-0.2-0.7,0.1-1.4,0.8-1.6c0.1,0,6.6-2.4,10.2-4.4
				c2.8-1.5,7.1-7.7,8.6-9.9c0.4-0.6,1.2-0.8,1.8-0.4c0.6,0.4,0.8,1.2,0.4,1.8c-0.2,0.3-5.6,8.6-9.5,10.7
				c-3.7,2.1-10.3,4.5-10.5,4.6C238.2,77.7,238.1,77.7,237.9,77.7z"/>
		</g>
		<g>
			<path style="fill:#AAB5A3;" d="M230.4,65.4c-0.3,0-0.7-0.1-0.9-0.4c-0.4-0.4-8.9-9.4-10.8-11.7c-2-2.4-3.8-9.5-4-10.3
				c-0.2-0.7,0.2-1.4,0.9-1.5c0.7-0.2,1.4,0.2,1.5,0.9c0.5,2,2.1,7.6,3.5,9.3c1.8,2.2,10.6,11.5,10.7,11.6c0.5,0.5,0.5,1.3,0,1.8
				C231,65.3,230.7,65.4,230.4,65.4z"/>
		</g>
		<g>
			<path style="fill:#AAB5A3;" d="M230.4,127.5c-0.4,0-0.8-0.2-1.1-0.6l-20.6-33.3c-3.2-5.1-7.8-19.9-8-20.6
				c-0.2-0.7,0.2-1.4,0.8-1.6c0.7-0.2,1.4,0.2,1.6,0.8c0,0.2,4.7,15.1,7.7,20l3.1,5l17.5,28.3c0.4,0.6,0.2,1.4-0.4,1.7
				C230.9,127.5,230.6,127.5,230.4,127.5z"/>
		</g>
		<g>
			<path style="fill:#AAB5A3;" d="M230.1,135.3c-0.2,0-0.5-0.1-0.7-0.2c-0.6-0.4-0.7-1.2-0.4-1.8c0.2-0.4,6.1-9.1,8.9-12
				c2.8-2.8,15.8-15.2,16.3-15.7c0.5-0.5,1.3-0.5,1.8,0c0.5,0.5,0.5,1.3,0,1.8c-0.1,0.1-13.5,12.9-16.3,15.7
				c-2.7,2.7-8.6,11.5-8.6,11.6C230.9,135.1,230.5,135.3,230.1,135.3z"/>
		</g>
		<g>
			<path style="fill:#AAB5A3;" d="M241.6,120.1c-0.1,0-0.1,0-0.2,0c-0.7-0.1-1.2-0.7-1.1-1.4l2.2-16.8c0.1-0.7,0.7-1.2,1.4-1.1
				c0.7,0.1,1.2,0.7,1.1,1.4l-2.2,16.8C242.8,119.7,242.3,120.1,241.6,120.1z"/>
		</g>
		<g>
			<path style="fill:#AAB5A3;" d="M227.5,162.9c-0.5,0-1-0.3-1.2-0.8c-0.8-2.1-7.1-7.8-10.9-11.2c-2.8-2.6-4.5-4-5-4.8
				c-1.6-2.1-4.8-16.6-5.5-19.5c-0.2-0.7,0.3-1.4,1-1.5c0.7-0.1,1.4,0.3,1.5,1c1.8,8.2,4.2,17.4,5.1,18.5c0.4,0.6,2.6,2.5,4.7,4.4
				c6,5.4,10.6,9.7,11.6,12.2c0.2,0.7-0.1,1.4-0.7,1.6C227.8,162.8,227.6,162.9,227.5,162.9z"/>
		</g>
		<g>
			<path style="fill:#AAB5A3;" d="M213.1,99.6c-0.7,0-1.3-0.5-1.3-1.2l-0.2-10.2c0-0.7,0.5-1.3,1.2-1.3c0.7,0,1.3,0.5,1.3,1.2
				l0.2,10.2C214.4,99,213.8,99.6,213.1,99.6C213.1,99.6,213.1,99.6,213.1,99.6z"/>
		</g>
		<g>
			<path style="fill:#AAB5A3;" d="M226,176.1c-0.1,0-0.2,0-0.2,0c-0.7-0.1-1.1-0.8-1-1.5c1.2-6.8,5.3-43.4,5.5-69.8
				c0.2-19.2-2-53.6-3-70.2c-0.2-3.8-0.4-6.7-0.5-8.3c0-0.7,0.5-1.3,1.2-1.3c0.7,0,1.3,0.5,1.3,1.2c0.1,1.6,0.3,4.5,0.5,8.3
				c1,16.6,3.2,51.1,3,70.3c-0.3,26.5-4.3,63.4-5.6,70.2C227.2,175.7,226.6,176.1,226,176.1z"/>
		</g>
	</g>
	<g>
		<path style="fill:#AAB5A3;" d="M0,239.8c2.5-2.3,38-19.9,76.2-25.6c41.7-6.3,81.5-5.3,94.4,5.4c13,10.7,8.2,23.2,0,29.2
			c-8.2,6-26.8,17.1-75.1,32c-27.2,8.4-46,13.5-44.9,13.4c1.2-0.1,33.1,6.7,53.3,12.9c24.7,7.6,56.3,21,57.1,27c0.8,6-16.2-2-17.8-3
			c-1.6-1-42-16.5-48.5-18.5c-8.9-2.7-35.8-10.3-39.3-11.1s-13.3-3.5-12.7-7.1c0.6-3.6,7.9-6.5,14.4-8.6c6.4-2.1,66.8-22,76.3-25.7
			s38.6-15.5,38.6-26.9c0-9-11.1-12.7-20.2-14.1s-33.8-4.4-70.1,0.3c-16.4,2.1-42.2,7.4-78.6,27.6C0.8,248.3,0,239.8,0,239.8z"/>
		<path style="fill:#AAB5A3;" d="M92.1,198.5c1.7-1.4,7.1-0.4,7,2.3s-12.8,49.6-19.5,65s-23.7,58.8-24.8,59.8s-5.2,0.6-5.4-1.4
			c-0.2-2,26.3-68.8,28.4-73.6c2.1-4.8,12.2-38.8,12.9-41.4C91.2,206.7,92.1,198.5,92.1,198.5z"/>
		<path style="fill:#AAB5A3;" d="M164.5,285.9c0,0-3.7,4.1-2.9,4.7c0.7,0.6,1.4,0.9,6.5-0.7c7.2-2.3,12.2-10,12.8-11.3
			c0.6-1.3,1.5-6.1,0.1-7.3c-1.4-1.3-3.4-2.5-6.1-1.6c-3.2,1-10.3,6.1-13,9.4s-9.7,13.9-7,18.7s6.1,10.5,21.4,7
			c9.3-2.1,26.7-10.8,28.7-12c1.6-1,7.4-3.9,7.7-5.1c0.3-1.1,2.8-6.9,1.1-6.1s-19.2,11.6-30.2,15.2c-9.3,3-19.3,5.6-22.1,2.4
			c-3.3-3.7-1.7-6.4-1.1-7.4c0.6-1,6.7-10.1,8.1-11.5c2.1-2.2,8.4-5.4,7.8-4.6c-0.6,0.7-4,5.3-5.4,6.7S164.5,285.9,164.5,285.9z"/>
		<path style="fill:#AAB5A3;" d="M282.2,291.5c0,0-3.7,4.1-2.9,4.7s1.4,0.9,6.5-0.7c7.1-2.3,12.2-10,12.8-11.3
			c0.6-1.3,1.5-6.1,0.1-7.3c-1.4-1.3-3.4-2.5-6.1-1.6c-3.2,1-10.3,6.1-13,9.4s-9.7,13.9-7,18.7c2.7,4.8,6.1,10.5,21.4,7
			c9.3-2.1,26.7-10.8,28.7-12c1.6-1,9.7-5.5,10.1-6.7c0.3-1.1,0.4-5.2-1.2-4.5c-1.7,0.8-19.2,11.6-30.2,15.2
			c-9.3,3-19.3,5.6-22.1,2.4c-3.3-3.7-1.7-6.4-1.1-7.4c0.6-1,6.7-10.1,8.1-11.5c2.1-2.2,8.4-5.4,7.8-4.6c-0.6,0.7-4,5.3-5.4,6.7
			C287.2,289.5,282.2,291.5,282.2,291.5z"/>
		<path style="fill:#AAB5A3;" d="M207.7,336.8c-0.8-0.5-4.1-4.4-3.4-12.5s7.3-41.7,8.9-46.1c1.6-4.4,2.5-4.7,1.5-5.3
			c-0.9-0.6-15.1,3.4-15.8,3.5s-2-1.2-2.1-2.6c-0.1-1.5,1.1-2.8,3-3.1c1.9-0.2,17.2-4.9,17.2-4.9s8-19.3,10.2-24.1
			c2.2-4.8,13.2-25.4,16.1-27.7s5-5.1,10.2-2.8c4.5,2,8.1,7.1,7.5,11.2c-0.6,4.1-0.5,4.5-2.3,4c-3.5-1-2.7-4.5-4-6.5
			c-1.3-2-2.4-3.9-4.6-3c-2.7,1-8.1,9.9-12,16.7c-4.5,8.1-13.6,30.7-13.6,30.7s6.9-1.2,10.1-1.8c4.1-0.7,9.4-0.5,11.8,0.6
			c0.8,0.4,1.1,3.5-1,3.6c-13.2,0.6-21.4,2.8-22.6,4.2c-1.1,1.4-7.1,18.4-8.5,25.7s-5,24.4-4.4,29.9s2.4,9.7,1.9,10.1
			C210.6,337.6,207.7,336.8,207.7,336.8z"/>
		<path style="fill:#AAB5A3;" d="M240.6,305.7c-0.1,0.3-1.4,1.8,0.7,3.1c2.1,1.3,4.2,1.5,4.7,1.2c0.5-0.3,1.3-2.2,1.5-3
			c0.3-0.8,2-6.1,3.8-8.7c1.8-2.6,5.1-7.4,7.8-10.1c3.5-3.5,9.4-8,11.6-8.1c2.1-0.2,5.3,0.1,5.1-0.4c-0.2-0.6-0.4-1.4-3-2.5
			c-3.7-1.5-6.8-0.4-10.7,1.4c-3,1.4-8.2,6.1-8.2,6.1s1.1-8,1.1-8.5c0.1-0.5-1.3-2.3-2.4-2.9c-1.2-0.7-2.7-1.4-3.7-0.7
			c-1,0.7-1.1,5.4-1.6,8.4c-0.3,1.8-2.8,15.2-3.8,17.2C242.5,300.2,240.6,305.7,240.6,305.7z"/>
		<path style="fill:#AAB5A3;" d="M355.1,281.1c0.9-0.3,0.9-2.9-0.5-4.8c-1.4-2-1.3-2.6-4.1-2.1c-2.8,0.5-11.8,2.7-17.4,6.6
			c-5.6,4-4.4,6.3-3.9,7.2c0.5,0.8,0.3,3.8,4,5.2c3.7,1.5,13.3,4.3,13.3,4.3s5,2,5.8,3.4c0.8,1.4,1,4.2-2.3,7.1
			c-3.3,2.9-10.2,8.7-16.1,10.2s-9.3,2.2-10,0.8c-0.5-1.1,2.4-3.7,4.8-5.4c2.4-1.8,15.9-10.1,20.5-11.9s9.7-3.8,13.3-4.9
			c4.4-1.3,18.2-4.2,18.9-4.7s1-2.9,0.2-3.2s-7.7,1.1-12.2,2c-4.2,0.9-11.4,2.8-16.3,4.1c-3.1,0.9-11.6,4.7-13.7,5.8
			s-17.3,9-19,12.8c-1.7,3.9-0.8,7.5,0.9,8.9c1.9,1.5,4.4,2.5,11,0.7c6.7-1.7,14.5-5.1,18.4-8.8c3.9-3.7,6.4-7,6.8-9.9
			c0.4-2.9-1.6-7.2-2.6-8s-4-3.6-6.7-4.2c-2.7-0.6-14.6-3.5-14.4-4.1c0.2-0.6,0.3-1.6,3.9-3.4c3.6-1.8,10.4-4.4,11.8-4.5
			C352,279.9,355.1,281.1,355.1,281.1z"/>
		<path style="fill:#AAB5A3;" d="M404,206c-0.1,0.9-0.8,10.2-3.1,18.3c-2.3,8.1-10.8,35.1-13.1,41.2c-2.3,6.1-10.5,26-11,30.4
			c-0.5,4.4-1.9,8.4-1.8,9.2c0,0.8,0.8,3.5,3.2,4.4s5.1,1.4,7.2-2.2s10.9-15,13.5-18c1.7-1.9,4.4-3.5,4.9-3.7
			c0.5-0.3,1.8-2.1,2.8,1.7c1.1,3.8,1.6,11.4,5.6,14.6c4,3.2,9.4,6.9,17.5,5.4c12-2.3,21.6-11.8,23.4-13.9c1.8-2.1,2.9-2.7,2.9-3.8
			s-0.5-1.8-1.5-2.2c-1-0.5-2.2-0.5-3.5,0.9c-1.4,1.4-9.9,9.4-16.1,11.9s-13.4,4.9-16.6,1.8c-3.4-3.3-4.3-8.7-5.7-15
			c-1.3-5.8-7.1-6.8-8.6-6.9c-3.9-0.2-10,4.6-14.3,9.5c-3.7,4.2-5.4,7.1-5.5,6.3c-0.2-2,10.4-29.4,12.5-34.7s13.6-43.9,13.7-46.6
			s0-6-1.3-7.1c-1.3-1.1-2.6-2.2-3.2-2.2C403.9,205.3,404,206,404,206z"/>
	</g>
</g>
</svg>
