<?xml version="1.0" encoding="utf-8"?>
<!-- Generator: Adobe Illustrator 23.0.1, SVG Export Plug-In . SVG Version: 6.00 Build 0)  -->
<svg version="1.1" id="treatment-eyebrow" xmlns="http://www.w3.org/2000/svg" xmlns:xlink="http://www.w3.org/1999/xlink" x="0px"
	 y="0px" viewBox="0 0 476 412.6" style="enable-background:new 0 0 476 412.6;" xml:space="preserve">
<path style="fill:#707070;" d="M474.7,89.4c2.1-3.2,1.7-7.4-1-10l-28.5-28.5C405,10.7,347.8-7.3,291.9,2.7L26.7,50.3
	c-13,2.3-23.3,12.3-26,25.3c-2.7,12.9,2.7,26.2,13.7,33.5l1.1,0.7c7.3,4.8,16.2,6.5,24.8,4.7l249.7-54c40.4-8.7,82.5-5.2,120.9,10.1
	L465,92.4C468.6,93.8,472.6,92.5,474.7,89.4z M416.9,55.9C375.5,39.3,330.2,35.5,286.6,45L36.9,99c-4.3,0.9-8.9,0.1-12.6-2.4
	l-1.1-0.7c-5.6-3.7-8.3-10.4-7-17s6.6-11.6,13.1-12.8l265.2-47.6c50.7-9.1,102.7,7.2,139.2,43.6l1,1L416.9,55.9z"/>
<path style="fill:#707070;" d="M380.1,412.6H428c4.4,0,8-3.6,8-8V108.9c0-3-1.7-5.8-4.4-7.2l-47.9-24c-2.5-1.2-5.4-1.1-7.8,0.4
	s-3.8,4-3.8,6.8v92.9l-25,29.2c-13.2,15.4-29.3,27.9-47.4,37l-1.4,0.7c-21.1,10.5-44.3,16-67.8,16h-24.3
	c-47.8,0-92.7-22.5-121.4-60.7l-3.6-4.8c-10.6-14.1-27.2-22.3-44.7-22.4v16c12.6,0,24.4,5.9,32,16l3.6,4.8c1,1.3,2.1,2.5,3.1,3.8
	l-2.6,5.1c-6.3,12.6-17.3,22.2-30.7,26.6l5,15.2c17.1-5.7,31.3-17.9,39.5-33.9c6.6,6.8,13.8,13,21.5,18.6
	c-5.1,18.7-14.9,35.7-28.6,49.4l-0.7,0.7l11.3,11.3l0.7-0.7c14.4-14.5,25.2-32.2,31.3-51.7c8.3,4.8,17,8.9,26,12.2
	c-0.7,17.9-5.2,35.5-13.1,51.5l-1.7,3.4l14.3,7.1l1.7-3.4c8.3-16.8,13.3-35,14.7-53.7c12.9,3.4,26.1,5.2,39.3,5.4l-6.9,55.1l15.9,2
	l7.1-56.9h11.2c4.9,0,9.7-0.3,14.6-0.7l7.2,57.6l15.9-2l-7.2-57.8c8.8-1.6,17.5-4,26-7c4,19.4,11.6,37.8,22.6,54.2l13.3-8.9
	c-10-15-16.9-31.7-20.4-49.4l-0.4-2.2c1.2-0.6,2.4-1.1,3.6-1.7l1.4-0.7c6.8-3.5,13.4-7.4,19.7-11.8c5.5,18.3,17.2,34.2,33.1,44.8
	l8.9-13.3c-13.8-9.2-23.6-23.2-27.6-39.2l-0.7-2.7c6.8-5.7,13.2-11.9,19-18.6l12.9-15.1v202.2C372.1,409,375.7,412.6,380.1,412.6z
	 M388.1,396.6V172.9h32v223.7L388.1,396.6L388.1,396.6z M388.1,140.9h32v16h-32V140.9z M420.1,113.9v11h-32v-27L420.1,113.9z"/>
</svg>
