<?xml version="1.0" encoding="utf-8"?>
<!-- Generator: Adobe Illustrator 23.0.1, SVG Export Plug-In . SVG Version: 6.00 Build 0)  -->
<svg version="1.1" id="massage-icon" xmlns="http://www.w3.org/2000/svg" xmlns:xlink="http://www.w3.org/1999/xlink" x="0px"
	 y="0px" viewBox="0 0 480 440" style="enable-background:new 0 0 480 440;" xml:space="preserve">
<g>
	<g>
		<path style="fill:#707070;" d="M472,360h-8.9c22.1-21.5,22.6-56.9,1.1-79c-3.4-3.5-7.3-6.5-11.5-9c16.9-10.1,27.3-28.3,27.3-48
			c0-30.9-25.1-56-56-56h-72v-56c0-4.4-3.6-8-8-8c-0.4,0-0.8,0-1.2,0.1L248,118.7v-7.5c18.6-3.8,32-20.2,32-39.2
			c0-34.9-32.9-68.3-34.3-69.7c-3.1-3.1-8.2-3.1-11.3,0C232.9,3.7,200,37.1,200,72c0,19,13.4,35.4,32,39.2v9.9l-97.2,15
			c-3.9,0.6-6.8,4-6.8,7.9v89.1c-5.8-6.3-12.6-11.7-20-16c-2.5-1.4-5.5-1.4-8,0c-23.6,13.7-39.6,37.6-43.2,64.7
			c-5.5-1.1-11.2-1.7-16.8-1.8c-3.5,0-7.1,0.2-10.6,0.7c-2.8,0.3-5.3,2.2-6.4,4.8C6.7,323.7,19.4,368.2,53.5,392H0v16h19.1
			l13.8,27.6c1.4,2.7,4.1,4.4,7.2,4.4h304c4.4,0,8-3.6,8-8v-24h51.1l13.8,27.6c1.4,2.7,4.1,4.4,7.2,4.4h32c4.4,0,8-3.6,8-8v-24h8
			c4.4,0,8-3.6,8-8v-32C480,363.6,476.4,360,472,360z M464,320c0,22.1-17.9,40-40,40H280c-22.1,0-40-17.9-40-40s17.9-40,40-40h104
			c13.3,0,24,10.7,24,24s-10.7,24-24,24h-80c-4.4,0-8-3.6-8-8s3.6-8,8-8h56v-16h-56c-13.3,0-24,10.7-24,24s10.7,24,24,24h80
			c22.1,0,40-17.9,40-40c0-8.7-2.9-17.1-8.2-24h8.2C446.1,280,464,297.9,464,320z M400,184c13.3,0,24,10.7,24,24s-10.7,24-24,24h-80
			c-4.4,0-8-3.6-8-8s3.6-8,8-8h56v-16h-56c-13.3,0-24,10.7-24,24c0,13.3,10.7,24,24,24h80c22.1,0,40-17.9,40-40
			c0-8.3-2.6-16.3-7.4-23c21.5,4.9,35,26.3,30.2,47.9c-4.1,18.1-20.2,31-38.8,31.1h-40h-72c-22.1,0-40-17.9-40-40s17.9-40,40-40
			L400,184L400,184z M216,72c0-20.5,15.4-41.7,24-52c8.6,10.3,24,31.5,24,52c0,10.1-6.4,19.2-16,22.5V80h-16v14.5
			C222.4,91.1,216,82.1,216,72z M104,233.4c17.9,12,29.4,31.4,31.6,52.8c-11.9,4.8-22.7,12.1-31.5,21.4
			c-8.9-9.3-19.7-16.6-31.6-21.3C74.5,264.9,86.1,245.5,104,233.4z M144.1,300.1c7.7-2.7,15.7-4.1,23.9-4.1c1.3,0,2.6,0,3.9,0.1
			c13.2,37.5-6.5,78.6-44.1,91.8c-7.7,2.7-15.7,4.1-23.9,4.1c-1.3,0-2.6,0-3.9-0.1C86.9,354.3,106.6,313.2,144.1,300.1z M32,320
			c0-8.1,1.4-16.2,4.1-23.9c1.4-0.1,2.7-0.1,3.9-0.1c20.7-0.1,40.4,8.9,54,24.5c-13.1,20.2-17.3,44.9-11.4,68.2
			C52.5,379.4,32,351.5,32,320z M163.1,424H44.9l-8-16h134.1L163.1,424z M240,424h-59.1l8-16H208v-16h-53.6
			c34.1-23.8,46.8-68.3,30.5-106.5c-1.1-2.6-3.6-4.5-6.4-4.8c-9.1-1.2-18.3-0.8-27.3,1c-1.2-8.9-3.9-17.6-7.7-25.7h0.5V150.9
			l192-29.5V168h-24c-30.9,0-56,25-56,55.9c0,15.3,6.3,30,17.4,40.6c-30.7,3.6-52.6,31.4-49,62.1c1.5,12.7,7.3,24.5,16.5,33.5H232
			c-4.4,0-8,3.6-8,8v32c0,4.4,3.6,8,8,8h8V424z M275.1,424H256v-16h27.1L275.1,424z M336,424h-43.1l8-16H336V424z M448,424h-19.1
			l-8-16H448V424z M464,392H240v-16h224V392z"/>
	</g>
</g>
<g>
	<g>
		<rect x="160" y="168" style="fill:#707070;" width="16" height="64"/>
	</g>
</g>
<g>
	<g>
		<rect x="160" y="248" style="fill:#707070;" width="16" height="16"/>
	</g>
</g>
</svg>
