<?xml version="1.0" encoding="utf-8"?>
<!-- Generator: Adobe Illustrator 23.0.1, SVG Export Plug-In . SVG Version: 6.00 Build 0)  -->
<svg version="1.1" id="wax-treatment" xmlns="http://www.w3.org/2000/svg" xmlns:xlink="http://www.w3.org/1999/xlink" x="0px"
	 y="0px" viewBox="0 0 512 512" style="enable-background:new 0 0 512 512;" xml:space="preserve">
<g>
	<g>
		<path style="fill:#707070;" d="M469.3,0H128c-11.3,0-22.2,4.5-30.2,12.5S85.3,31.3,85.3,42.7V128c0,14.1,11.5,25.6,25.6,25.6
			c14.1-0.1,25.5-11.5,25.6-25.6c0-2.3,0.9-4.5,2.6-6.1c1.6-1.6,3.8-2.4,6-2.4s4.4,1,6,2.6s2.5,3.7,2.4,5.9v51.2
			c0,14.1,11.5,25.6,25.6,25.6c14.1-0.1,25.5-11.5,25.6-25.6V128c0-4.7,3.8-8.5,8.5-8.5c2.3,0,4.5,0.9,6.1,2.6
			c1.6,1.6,2.5,3.7,2.4,5.9v111c-2.8,0-5.7-0.1-8.5-0.1C107.3,238.9,0,259.5,0,298.7C0,416.5,95.5,512,213.3,512
			s213.3-95.5,213.3-213.3c0-33.9-77.9-51.8-153.6-57.5V96c0-3.6,0.3-7.1,0.7-10.7h195.6c23.6,0,42.7-19.1,42.7-42.7
			S492.9,0,469.3,0z M213.3,494.9C115.1,494.8,32,422.1,18.9,324.8c35.4,22.1,115.3,33.6,194.5,33.6c13.3,0,25.4-0.3,37-0.9
			c59.3-2.6,125.7-12.7,157.5-32.5C394.5,422.3,311.5,494.8,213.3,494.9z M409.6,298.7c0,14.2-57,37.2-160.1,41.8
			c-11.3,0.6-23.2,0.8-36.2,0.8C93.5,341.3,17,316,17,298.6S93.5,256,213.3,256c2.9,0,5.7,0,8.5,0v17c0,14.1,11.5,25.6,25.6,25.6
			c14.1-0.1,25.5-11.5,25.6-25.6v-14.8C362.2,265.2,409.6,285.8,409.6,298.7z M271.1,41.6C261,57.9,255.7,76.8,256,96v177.1
			c0,2.3-0.9,4.5-2.6,6.1c-1.6,1.6-3.7,2.5-5.9,2.5c-4.7,0-8.5-3.8-8.5-8.5V128c-0.1-14.1-11.5-25.5-25.6-25.6
			c-14.1,0-25.6,11.5-25.6,25.6v51.2c0,2.3-0.9,4.5-2.6,6.1c-1.6,1.6-3.7,2.5-5.9,2.4c-4.7,0-8.5-3.8-8.5-8.5V128
			c0.1-6.8-2.6-13.2-7.4-18c-10.1-9.7-26-9.8-36.1-0.2c-4.9,4.8-7.7,11.3-7.6,18.2c0,2.3-0.9,4.5-2.6,6.1c-1.6,1.6-3.7,2.5-5.9,2.4
			c-4.7,0-8.5-3.8-8.5-8.5V42.7c0-6.8,2.7-13.3,7.5-18.1s11.3-7.5,18.1-7.5h160c-2.6,6-6.2,11.5-10.7,16.2
			C275,35.9,272.9,38.6,271.1,41.6z M469.3,68.3H277.5c1.9-6.2,4.6-12.1,8.1-17.7c1.3-2.1,2.7-4,4.4-5.8c7.5-7.8,13-17.3,16-27.7
			h163.5c14.1,0,25.6,11.5,25.6,25.6S483.5,68.3,469.3,68.3z"/>
	</g>
</g>
</svg>
