<?xml version="1.0" encoding="utf-8"?>
<!-- Generator: Adobe Illustrator 23.0.1, SVG Export Plug-In . SVG Version: 6.00 Build 0)  -->
<svg version="1.1" id="makeup-icon" xmlns="http://www.w3.org/2000/svg" xmlns:xlink="http://www.w3.org/1999/xlink" x="0px"
	 y="0px" viewBox="0 0 512 511.9" style="enable-background:new 0 0 512 511.9;" xml:space="preserve">
<g>
	<g>
		<path style="fill:#707070;" d="M479.7,29.8C459.8,10.6,433.7,0,406,0c-27.6,0-53.8,10.6-73.6,29.8l-1.3,1.3
			c-32.3,31.2-41.4,79.7-22.5,120.5l33.4,72.3v243.5c0,24.6,20,44.7,44.7,44.7h34.7c24.6,0,44.7-20,44.7-44.7V223.9l35.1-71.2
			C521.4,111.3,512.8,61.9,479.7,29.8z M445.9,467.3c0,13.6-11.1,24.7-24.7,24.7h-34.7c-13.6,0-24.7-11.1-24.7-24.7V315h44v64.4
			c0,5.5,4.5,10,10,10c5.5,0,10-4.5,10-10V315h20L445.9,467.3L445.9,467.3z M361.9,295v-63.6h15.2c0,0,0,0,0,0c0,0,0,0,0,0h56.4
			c0,0,0,0,0,0c0,0,0,0,0,0h12.3V295H361.9z M483.1,143.8l-33.3,67.5h-4.4l8.1-48.4c0.9-5.4-2.8-10.6-8.2-11.5
			c-5.4-0.9-10.6,2.8-11.5,8.2l-8.6,51.6h-11.2v-50c0-5.5-4.5-10-10-10c-5.5,0-10,4.5-10,10v50h-8.3l-8.6-51.6
			c-0.9-5.4-6.1-9.1-11.5-8.2c-5.4,0.9-9.1,6.1-8.2,11.5l8.1,48.3h-7.1l-31.5-68.2c-15.3-33.1-7.9-72.4,18.3-97.7l1.3-1.3
			c33.5-32.4,85.9-32.4,119.4,0C492.7,70.2,499.6,110.2,483.1,143.8z"/>
	</g>
</g>
<g>
	<g>
		<path style="fill:#707070;" d="M134,320.1V276c0-8.2-4.9-15.2-12-18.3v-61.8c0-11.1-6.1-21.2-15.8-26.4l-32-17.1
			c-9.4-5-20.4-4.8-29.6,0.7c-9.1,5.5-14.6,15.1-14.6,25.7v78.9c-7.1,3.1-12,10.1-12,18.3v44.1c-10.1,1-18,9.5-18,19.9v142
			c0,16.5,13.5,30,30,30h92c16.5,0,30-13.5,30-30V340C152,329.6,144.1,321.1,134,320.1z M50,178.7c0-5.1,3.4-7.7,4.9-8.6
			c1.5-0.9,5.3-2.6,9.9-0.2l32,17.1c3.3,1.7,5.3,5.1,5.3,8.8V256H50V178.7z M38,276h2h72h2v44H38L38,276L38,276z M132,481.9
			c0,5.5-4.5,10-10,10h-18v-76c0-5.5-4.5-10-10-10c-5.5,0-10,4.5-10,10v76H30c-5.5,0-10-4.5-10-10V340h112V481.9z"/>
	</g>
</g>
<g>
	<g>
		<path style="fill:#707070;" d="M101.1,370.9c-1.9-1.9-4.4-2.9-7.1-2.9c-2.6,0-5.2,1.1-7.1,2.9c-1.9,1.9-2.9,4.4-2.9,7.1
			s1.1,5.2,2.9,7.1c1.9,1.9,4.4,2.9,7.1,2.9c2.6,0,5.2-1.1,7.1-2.9c1.9-1.9,2.9-4.4,2.9-7.1C104,375.3,102.9,372.7,101.1,370.9z"/>
	</g>
</g>
<g>
	<g>
		<path style="fill:#707070;" d="M294,246h-46v-98h17c5.5,0,10-4.5,10-10s-4.5-10-10-10h-17v-12h17c5.5,0,10-4.5,10-10
			s-4.5-10-10-10h-17V84h17c5.5,0,10-4.5,10-10s-4.5-10-10-10h-17V52h17c5.5,0,10-4.5,10-10s-4.5-10-10-10h-17V20h17
			c5.5,0,10-4.5,10-10s-4.5-10-10-10h-54c-5.5,0-10,4.5-10,10s4.5,10,10,10h17v12h-17c-5.5,0-10,4.5-10,10s4.5,10,10,10h17v12h-17
			c-5.5,0-10,4.5-10,10s4.5,10,10,10h17v12h-17c-5.5,0-10,4.5-10,10s4.5,10,10,10h17v12h-17c-5.5,0-10,4.5-10,10s4.5,10,10,10h17v98
			h-46c-5.5,0-10,4.5-10,10v111.7c0,49.2,13.5,97.4,39,139.5c1.8,3,5.1,4.8,8.6,4.8h36.9c3.5,0,6.7-1.8,8.6-4.8
			c25.5-42.1,39-90.3,39-139.5V256C304,250.4,299.5,246,294,246z M284,367.7c0,43.7-11.5,86.5-33.2,124.3h-25.5
			c-21.8-37.8-33.2-80.6-33.2-124.3V310h60.3c5.5,0,10-4.5,10-10s-4.5-10-10-10H192v-24h92L284,367.7L284,367.7z"/>
	</g>
</g>
<g>
	<g>
		<path style="fill:#707070;" d="M423,407.3c-1.9-1.9-4.4-2.9-7.1-2.9s-5.2,1.1-7.1,2.9c-1.9,1.9-2.9,4.4-2.9,7.1
			c0,2.6,1.1,5.2,2.9,7.1c1.9,1.9,4.4,2.9,7.1,2.9s5.2-1.1,7.1-2.9c1.9-1.9,2.9-4.4,2.9-7.1C425.9,411.8,424.9,409.2,423,407.3z"/>
	</g>
</g>
</svg>
