<?xml version="1.0" encoding="utf-8"?>
<!-- Generator: Adobe Illustrator 23.0.1, SVG Export Plug-In . SVG Version: 6.00 Build 0)  -->
<svg version="1.1" id="treatment-formen" xmlns="http://www.w3.org/2000/svg" xmlns:xlink="http://www.w3.org/1999/xlink" x="0px"
	 y="0px" viewBox="0 0 384 384" style="enable-background:new 0 0 384 384;" xml:space="preserve">
<path style="fill:#707070;" d="M383.8,13.9c-0.2-1.4-0.5-2.7-1-4V9.8l0,0c-0.6-1.3-1.3-2.5-2.2-3.6c-0.2-0.3-0.4-0.5-0.6-0.8
	c-0.9-1-1.9-2-3.1-2.8c0,0-0.1,0-0.1-0.1c-1.1-0.7-2.3-1.3-3.6-1.7c-0.3-0.1-0.6-0.2-1-0.3C370.9,0.3,369.5,0,368,0H256
	c-8.8,0-16,7.2-16,16s7.2,16,16,16h73.4l-95.5,95.5C208.4,107.1,177.1,96,144,96C64.6,96,0,160.6,0,240s64.6,144,144,144
	s144-64.6,144-144c0-33-11.1-64.4-31.5-89.9L352,54.6V128c0,8.8,7.2,16,16,16s16-7.2,16-16V16c0-0.3-0.1-0.7-0.1-1
	C383.9,14.6,383.8,14.3,383.8,13.9z M144,352c-61.8,0-112-50.2-112-112s50.2-112,112-112c29.9,0,58.1,11.6,79.2,32.7
	c21.1,21.2,32.8,49.4,32.8,79.3C256,301.8,205.8,352,144,352z"/>
</svg>
