<?xml version="1.0" encoding="utf-8"?>
<!-- Generator: Adobe Illustrator 23.0.1, SVG Export Plug-In . SVG Version: 6.00 Build 0)  -->
<svg version="1.1" id="facial-icon" xmlns="http://www.w3.org/2000/svg" xmlns:xlink="http://www.w3.org/1999/xlink" x="0px"
	 y="0px" viewBox="0 0 401.4 512" style="enable-background:new 0 0 401.4 512;" xml:space="preserve">
<g>
	<g>
		<path style="fill:#707070;" d="M215.8,232c-4.1,0-7.5,3.4-7.5,7.5v8.7c0,4.2-3.4,7.6-7.6,7.6c-4.2,0-7.6-3.4-7.6-7.6v-8.7
			c0-4.1-3.4-7.5-7.5-7.5s-7.5,3.4-7.5,7.5v8.7c0,12.5,10.1,22.6,22.6,22.6c12.5,0,22.6-10.1,22.6-22.6v-8.7
			C223.3,235.3,219.9,232,215.8,232z"/>
	</g>
</g>
<g>
	<g>
		<path style="fill:#707070;" d="M291.9,206.5c-2.7-3.2-7.4-3.6-10.6-0.9c-11.8,9.9-29.1,9.9-41,0c-3.2-2.7-7.9-2.2-10.6,0.9
			c-2.7,3.2-2.2,7.9,0.9,10.6c17.4,14.6,42.8,14.6,60.2,0C294.1,214.4,294.6,209.6,291.9,206.5z"/>
	</g>
</g>
<g>
	<g>
		<path style="fill:#707070;" d="M171.6,206.5c-2.7-3.2-7.4-3.6-10.6-0.9c-11.8,9.9-29.1,9.9-41,0c-3.2-2.7-7.9-2.2-10.6,0.9
			c-2.7,3.2-2.2,7.9,0.9,10.6c8.4,7.1,19.1,10.9,30.1,10.9s21.7-3.9,30.1-10.9C173.8,214.4,174.2,209.6,171.6,206.5z"/>
	</g>
</g>
<g>
	<g>
		<path style="fill:#707070;" d="M201.2,282.4c-10.3,0-18.7,8.4-18.7,18.7v7.9c0,10.3,8.4,18.7,18.7,18.7c10.3,0,18.7-8.4,18.7-18.7
			v-7.9C219.9,290.8,211.5,282.4,201.2,282.4z M204.9,309c0,2.1-1.7,3.7-3.7,3.7s-3.7-1.7-3.7-3.7v-7.9c0-2.1,1.7-3.7,3.7-3.7
			s3.7,1.7,3.7,3.7V309z"/>
	</g>
</g>
<g>
	<g>
		<path style="fill:#707070;" d="M388.4,438.5c-4.3-15.7-15.1-29.1-29.6-36.7c-5.6-3-11.4-5.8-17.2-8.4
			c25.9-59.5,47.3-140.5,42.4-205c7.7-16.4,18.2-26.7,17.3-46.4c0-0.1-2.3-47.5-2.3-47.6c-0.4-10.1-3.9-19.8-9.9-27.9
			c-1.7-2.3-2.6-5.2-2.6-8.2v-41c0-9.5-7.8-17.3-17.3-17.3H328c-10.8,0-19.5,8.7-19.5,19.5v18.3c-8.2-6.5-16.9-12.2-26-17.2
			c-3.6-2-8.2-0.6-10.2,3c-2,3.6-0.6,8.2,3,10.2c11.9,6.4,23,14.4,33.1,23.7V71c-7.9,10.9-7,17.8-9.3,22.3
			c-5.3,10.4-17.4,19.8-26.3,26c-14.4,10.4-12.6,26.4-2.6,35.5c-34.1-15.1-72.4-39.7-97.9-67.3c-4.4-4.8-12.3-3.9-15.5,1.8
			c-3.2,5.6-11.6,19.1-25.7,32.3c-4.1-3.7-27.8-18.4-30.6-33.4C99.5,82,96.5,75.9,92.9,71V57.5c42.5-39.1,99.8-51.2,151.3-36.4
			c4,1.1,8.1-1.2,9.3-5.1c1.1-4-1.2-8.1-5.1-9.3C195.8-8.4,138.1,2,92.9,37.8V19.5C92.9,8.8,84.1,0,73.4,0H32.2
			c-9.5,0-17.3,7.8-17.3,17.3c-0.8,39.2,1.9,43.3-2.6,49.3c-6.1,8.2-9.5,17.8-9.9,28c-0.2,4.1,3.1,7.6,7.2,7.8
			c4.1,0.2,7.6-3.1,7.8-7.2c0.7-18.7,12.5-19.7,12.5-36.9v-41c0-1.3,1-2.3,2.3-2.3h41.2c2.4,0,4.5,2.1,4.5,4.5
			c0,67.7-1.8,52.2,4.5,62.8c4.9,8.2,2.4,9.9,6.4,17.8c7.7,15.1,25.6,27.8,30.9,31.4c0.5,0.4,2.6,1.7,3.7,3.9
			c1.4,3.1-0.7,6.2-0.7,6.1c-1,1.7-2.4,2.8-3.9,3.4c-4.5,1.9-8.3-0.1-12.3-2.1c-14.4-7.9-21.1-16.1-29.7-24.6
			c-8.1-8.2-22-4.6-25.3,5.1l-5.7,16.8c-5.6,12.5,0.5,19.4,13.8,59.5c1.5,4.4-0.5,9.2-4.7,11.2c-3.8,1.8-8.3,0.3-10.3-3.4
			l-13.1-24.2v0c-9.5-19.5-17.2-26.3-16.5-40.5l0.6-11.6c0.2-4.1-3-7.7-7.1-7.9c-4.1-0.2-7.7,3-7.9,7.1L0.1,142
			c-1,19.7,9.6,30.1,17.3,46.4c-4.9,64.4,16.5,145.4,42.4,205c-5.8,2.6-11.6,5.4-17.2,8.4c-14.5,7.7-25.3,21.1-29.6,36.7L1.3,480.9
			c-2.1,7.5-0.6,15.3,4.1,21.4c4.7,6.2,11.8,9.7,19.6,9.7h235.9c4.1,0,7.5-3.4,7.5-7.5s-3.4-7.5-7.5-7.5H79.4v-36.7
			c0-4.1-3.4-7.5-7.5-7.5s-7.5,3.4-7.5,7.5V497H24.9c-6.3,0-10.9-6-9.2-12.1l11.7-42.3c3.2-11.7,11.3-21.7,22.2-27.5
			c34.4-18.2,74.6-28.8,92.2-32.9c0,0.1,0,6.3,0,6.2c0,4.7,1.2,9.3,3.1,13.2c4,7.9,20.7,27.7,39.1,40.9c9.9,7.1,23.3,7.1,33.3,0
			c14.1-10.1,27-23.4,36.7-37c5.4-7.5,5.7-14.3,5.5-23.3c29.9,7,64.7,18.4,92.2,32.9c10.8,5.8,18.9,15.8,22.2,27.5l11.7,42.3
			c1.7,6.1-2.9,12.1-9.2,12.1H337v-36.7c0-4.1-3.4-7.5-7.5-7.5s-7.5,3.4-7.5,7.5V497h-26.1c-4.1,0-7.5,3.4-7.5,7.5s3.4,7.5,7.5,7.5
			h80.5c16.2,0,28-15.5,23.7-31.1L388.4,438.5z M281.6,131.5c13.4-9,30.5-24,33.7-39.8c2.3-11.4,8.1-12.7,8.1-18.1v-54
			c0-2.4,2.1-4.5,4.5-4.5h41.2c1.3,0,2.3,1,2.3,2.3v41c0,17.6,11.1,16.3,12.5,37.1c0.1,1,0.1,0.9,0.1,0.7c0.1,2.3,0.5,12.2,2.2,46.7
			c0.3,6-1.1,11.9-3.9,17.2l-25.7,47.5c-2,3.7-6.5,5.2-10.3,3.4c-4.2-2-6.3-6.8-4.7-11.2l14.6-41.7c2.1-6,1.7-12.4-0.7-17.8
			c0-0.1-5.8-17.1-6-17.6c-4.5-9.7-17.4-12-25-4.3c-5.6,5.7-5.4,5.4-5.6,5.7c-12.3,13.7-26.8,20.4-27.4,20.6
			c-4.8,2.2-10.8,1.6-13.5-4.1C276.9,137.8,281.2,132,281.6,131.5z M334,176.2c-3.3-2.5-17.4-3.1-49.4-15.5
			c4.6,0.3,9.1-0.7,13.1-2.5c1.8-0.8,18.1-8.5,32.2-24.1c4.2-3.9,5.2-6,5.8-5.3l5.6,16.5c0.3,0.9,2,3.8,0.7,7.7L334,176.2z
			 M59.9,145.3l5.6-16.5c1.2-1.1,6.7,8.4,20.9,18.9c-9,2.7-13.3,2.7-15.1,3.5c-9.1,3.9-6.4,14.2-6.9,16.4
			C57.8,148.9,57.9,151.3,59.9,145.3z M141.8,366.7c-11.9,2.6-39.2,9.3-68.2,20.9C48.8,330.8,33.1,266.1,31.7,215
			c6.2,10.9,20.9,15.4,32.7,7.7c1.3,7.8-8.8,63.1,39.8,109.8c11.1,10.7,23.8,19.3,37.6,25.7L141.8,366.7L141.8,366.7z M238.6,401.1
			c-8.5,10.9-18.8,21.1-30,29.2c-4.4,3.2-10.3,3.4-14.9,0.6c-10.9-6.6-31-28-35.2-35.7c-2.3-4.2-1.7-5-1.7-31
			c27.8,9,59.2,9.3,87.8,0C244.6,394.5,246,391.6,238.6,401.1z M198,355.9c0,0-0.1,0-0.1,0v0c-0.1,0-0.1,0-0.2,0v0
			c-64.4-1.4-118.4-51.7-118.4-115.9c0-87.1,0-73.4,0-75.3c8-1.5,15.8-3.9,23.3-7.1c21.3,10.3,38.2-7.6,36-22.9
			c13.2-11.7,22.3-24,27.5-32.1c33,34,91.3,69.7,155.8,85.4l0,52C322,306.6,263.8,358,198,355.9z M259.6,366.7v-8.5
			c13.8-6.4,26.5-15,37.6-25.7c48.6-46.8,38.5-101.9,39.8-109.8c11.7,7.7,26.4,3.4,32.7-7.7c-1.4,51-17.1,115.8-41.9,172.6
			C298.7,376,271.4,369.3,259.6,366.7z"/>
	</g>
</g>
</svg>
