<?xml version="1.0" encoding="utf-8"?>
<!-- Generator: Adobe Illustrator 23.0.1, SVG Export Plug-In . SVG Version: 6.00 Build 0)  -->
<svg version="1.1" id="treatment-spraytan" xmlns="http://www.w3.org/2000/svg" xmlns:xlink="http://www.w3.org/1999/xlink" x="0px"
	 y="0px" viewBox="0 0 477.4 511.9" style="enable-background:new 0 0 477.4 511.9;" xml:space="preserve">
<path style="fill:#707070;" d="M466.7,70.6h-32.1c0-5.9-4.8-10.7-10.7-10.7H311.6c-5.9,0-10.7,4.8-10.7,10.7h-44.4V62
	c0-5.9-4.8-10.7-10.7-10.7h-33.1V40.1c0-10.3,8.4-18.7,18.7-18.7h14.4c5.9,0,10.7-4.8,10.7-10.7S251.7,0,245.8,0h-14.4
	c-22.1,0-40.1,18-40.1,40.1v11.2h-141C22.6,51.3,0,73.9,0,101.7v0.8c0,27.8,22.6,50.4,50.4,50.4h24.5l-13.7,59.4
	c-2.8,12-0.6,19.3,1.1,25.2c1.4,4.7,2.3,7.8,0.8,14.4s-3.7,9-7,12.6c-4.1,4.5-9.2,10.2-12,22.2c-0.5,2.1-0.9,4.2-1.1,6.3
	c-0.9,8.4,0.8,14.3,2.1,18.9c1.4,4.7,2.3,7.8,0.8,14.4s-3.7,9-7,12.6l-0.9,1c-4,4.4-8.5,10.1-11,20.9l-14.6,48.9
	c-0.1,0.3-0.2,0.7-0.3,1c-2.5,12.9,0.9,26.1,9.2,36.2c8.4,10.1,20.7,15.9,33.8,15.9h2.1v17.3c0,17.5,14.2,31.8,31.8,31.8h22
	c17.5,0,31.8-14.2,31.8-31.8v-17.3h1.6c24.2,0,43.8-19.7,43.8-43.8V201h14.2c18.7,0,33.9-15.2,33.9-33.9v-14.2h9.6
	c5.9,0,10.7-4.8,10.7-10.7v-7.5H301c0,5.9,4.8,10.7,10.7,10.7h4.4l-11.9,26.7h-22.5c-5.9,0-10.7,4.8-10.7,10.7v185.4
	c0,57,42.8,103.3,95.4,103.3h1.7c52.6,0,95.4-46.3,95.4-103.3V182.8c0-5.9-4.8-10.7-10.7-10.7h-40.1v-26.7h11.2
	c5.9,0,10.7-4.8,10.7-10.7h32.1c5.9,0,10.7-4.8,10.7-10.7V81.3C477.3,75.3,472.6,70.6,466.7,70.6z M121.3,480.2
	c0,5.7-4.7,10.4-10.4,10.4H89c-5.7,0-10.4-4.7-10.4-10.4v-16.3h42.8L121.3,480.2L121.3,480.2z M166.8,419.1
	c0,12.4-10.1,22.5-22.5,22.5H55.1c-6.7,0-13-3-17.3-8.2c-4.2-5.1-5.9-11.6-4.8-18.1l14.5-48.6c0.1-0.2,0.1-0.4,0.2-0.6
	c1.4-6.1,3.4-8.6,6.2-11.7l0.8-0.9c4.1-4.5,9.2-10.2,12-22.2c2.8-12,0.6-19.3-1.1-25.2c-1.1-3.7-1.9-6.4-1.4-10.6
	c0.1-1.2,0.3-2.5,0.7-3.8c1.5-6.6,3.7-9,7-12.6c4.1-4.5,9.2-10.2,12-22.2s0.6-19.3-1.1-25.2c-1.4-4.7-2.3-7.8-0.8-14.4l14.8-64.2
	h69.9L166.8,419.1L166.8,419.1z M214.9,167c0,6.9-5.6,12.6-12.6,12.6h-14.2v-26.7h26.7L214.9,167L214.9,167z M235.2,131.5H50.4
	c-16,0-29-13-29-29v-0.8c0-16,13-29,29-29h184.8L235.2,131.5L235.2,131.5z M300.9,113.3h-44.4V91.9h44.4V113.3z M442.1,193.5v174.7
	c0,45.2-33.2,81.9-74,81.9h-1.7c-40.8,0-74-36.7-74-81.9V193.5H442.1L442.1,193.5z M327.6,172.1l11.9-26.7h51.9v26.7H327.6z
	 M413.2,124h-90.9V81.3h90.9V124z M456,113.3h-21.4V91.9H456V113.3z"/>
</svg>
