<?xml version="1.0" encoding="utf-8"?>
<!-- Generator: Adobe Illustrator 23.0.1, SVG Export Plug-In . SVG Version: 6.00 Build 0)  -->
<svg version="1.1" id="hands-feet-icon" xmlns="http://www.w3.org/2000/svg" xmlns:xlink="http://www.w3.org/1999/xlink" x="0px"
	 y="0px" viewBox="0 0 409.5 512" style="enable-background:new 0 0 409.5 512;" xml:space="preserve">
<path style="fill:#707070;" d="M170.5,65.7C169.2,29.1,139.1,0,102.4,0S35.6,29.1,34.3,65.7C13.4,75.5,0,96.5,0,119.5v375.4
	c0,9.4,7.6,17.1,17.1,17.1h170.6c9.4,0,17.1-7.6,17.1-17.1V119.5C204.7,96.5,191.4,75.5,170.5,65.7z M51.2,68.4
	c0-28.3,22.9-51.2,51.2-51.2s51.2,22.9,51.2,51.2v93.8c0,4.3-0.6,8.7-1.7,12.9c-0.4-0.4-0.8-1-1.2-1.4c-13-13-30.8-20.2-49.2-20
	c-18.4,0.3-35.9,8-48.6,21.4c-1.1-4.2-1.7-8.5-1.7-12.9V68.4z M143.9,192.1c-9.6,13.4-25,21.3-41.5,21.3c-16.5,0-31.9-7.9-41.5-21.3
	c8.7-12.2,22.4-19.9,37.3-21.2c15-1.2,29.7,4.2,40.3,14.8C140.5,187.7,142.3,189.8,143.9,192.1z M187.7,494.9H17.1V119.5
	c0-13.4,6.3-26.1,17.1-34.1v76.8c0,12.3,3.3,24.3,9.7,34.8c0.1,0.1,0.1,0.2,0.1,0.2c12.3,20.6,34.5,33.2,58.4,33.2
	s46.2-12.6,58.4-33.2l0.1-0.2c6.4-10.5,9.7-22.6,9.7-34.9V85.4c10.8,8,17.1,20.7,17.1,34.1V494.9z"/>
<path style="fill:#707070;" d="M136.5,392.6H68.3c-4.7,0-8.5,3.8-8.5,8.5c0,4.7,3.8,8.5,8.5,8.5h68.3c4.7,0,8.5-3.8,8.5-8.5
	C145,396.4,141.2,392.6,136.5,392.6z"/>
<path style="fill:#707070;" d="M136.5,426.7H68.3c-4.7,0-8.5,3.8-8.5,8.5c0,4.7,3.8,8.5,8.5,8.5h68.3c4.7,0,8.5-3.8,8.5-8.5
	C145,430.5,141.2,426.7,136.5,426.7z"/>
<path style="fill:#707070;" d="M357.9,4.4l-0.2-0.1c-23.5-8.2-49.4-4.5-69.7,9.9c-20.2,14.4-32.2,37.7-32.2,62.6v426.6
	c0,4.7,3.8,8.5,8.5,8.5H401c4.7,0,8.5-3.8,8.5-8.5V76.9C409.5,44.2,388.8,15.2,357.9,4.4z M392.5,401.1h-47.7l47.7-47.7V401.1z
	 M392.5,329.3l-71.8,71.8h-35.6l107.4-107.4V329.3z M392.5,269.6L273,389v-35.6L392.5,234V269.6z M392.5,209.9L273,329.3v-35.6
	l119.4-119.4V209.9z M392.5,150.1L273,269.6V234l119.4-119.4V150.1z M392.5,76.9v13.5L273,209.9v-35.6L389.3,58
	C391.4,64.1,392.4,70.5,392.5,76.9z M381.1,42L273,150.1V106l83.8-83.7C366.5,26.6,374.9,33.4,381.1,42z M332.7,17.2
	c1.6,0,3.2,0.1,4.8,0.2L273,81.9v-5C273,43.9,299.8,17.2,332.7,17.2z M273,494.9v-76.8h119.4v76.8H273z"/>
</svg>
