<?xml version="1.0" standalone="no"?>
<!DOCTYPE svg PUBLIC "-//W3C//DTD SVG 20010904//EN"
 "http://www.w3.org/TR/2001/REC-SVG-20010904/DTD/svg10.dtd">
<svg version="1.0" xmlns="http://www.w3.org/2000/svg"
 width="788.000000pt" height="788.000000pt" viewBox="0 0 788.000000 788.000000"
 preserveAspectRatio="xMidYMid meet">
<metadata>
Created by potrace 1.11, written by Peter Selinger 2001-2013
</metadata>
<g transform="translate(0.000000,788.000000) scale(0.100000,-0.100000)"
fill="#000000" stroke="none">
<path d="M4568 7508 c-13 -13 -33 -37 -43 -55 -20 -31 -20 -31 -60 -17 -46 16
-118 18 -144 4 -19 -10 -42 -56 -46 -93 -1 -12 -3 -26 -4 -32 -1 -5 -15 17
-31 50 -51 105 -124 156 -204 141 -17 -3 -48 -8 -70 -12 -95 -14 -171 -38
-213 -67 -38 -25 -67 -90 -60 -133 24 -152 232 -554 347 -673 30 -31 90 -83
133 -115 l77 -58 1 -57 c1 -31 3 -74 4 -96 1 -22 6 -101 10 -175 4 -74 9 -153
10 -175 6 -97 17 -275 20 -330 2 -33 6 -100 9 -150 3 -49 8 -141 11 -204 4
-63 6 -117 7 -120 2 -24 -8 -19 -49 26 -261 280 -285 307 -313 363 -13 25 -22
45 -20 45 1 0 -4 16 -13 36 -8 19 -26 76 -41 126 l-27 91 25 57 c60 135 63
203 12 309 -24 49 -51 88 -81 114 -42 37 -49 39 -78 31 -64 -18 -89 -80 -90
-224 0 -96 8 -121 93 -276 17 -31 32 -65 35 -76 9 -51 78 -242 105 -292 17
-31 49 -77 71 -101 65 -73 201 -220 239 -260 156 -165 142 -144 146 -218 5
-94 23 -483 29 -642 9 -225 17 -619 18 -790 0 -277 -18 -808 -27 -817 -2 -3
-10 7 -18 21 -12 23 -113 188 -168 276 -14 21 -65 104 -113 182 -48 79 -106
172 -128 207 -21 34 -39 65 -39 67 0 3 -5 10 -11 17 -5 7 -39 58 -73 114 l-63
102 -1 93 c0 51 -1 129 -2 174 -1 74 1 84 30 131 46 73 89 204 84 254 -12 118
-133 161 -223 79 -41 -38 -81 -124 -81 -175 0 -45 26 -107 63 -147 22 -25 24
-36 25 -134 l1 -107 -33 54 c-18 30 -56 110 -85 179 -29 69 -56 134 -61 145
-10 23 -41 109 -106 300 -38 110 -42 130 -29 138 29 16 150 121 211 183 111
112 185 227 199 312 13 79 5 160 -20 198 -15 23 -220 167 -281 197 -48 23 -89
18 -99 -14 -5 -16 -12 -19 -28 -14 -51 17 -102 10 -140 -19 -37 -28 -50 -27
-77 5 -11 13 -50 29 -70 29 -28 0 -78 -27 -110 -59 -65 -65 -102 -157 -101
-250 0 -55 28 -151 43 -151 4 0 8 -5 8 -11 0 -27 151 -217 263 -333 67 -69 96
-108 101 -137 2 -13 5 -25 7 -26 1 -2 2 -6 4 -10 1 -5 4 -15 7 -23 4 -8 22
-62 41 -120 35 -106 80 -228 96 -265 5 -11 15 -36 22 -55 33 -91 111 -240 203
-388 55 -89 106 -170 111 -180 6 -9 34 -55 63 -102 29 -47 59 -94 65 -105 7
-11 24 -39 40 -62 15 -23 27 -46 27 -51 0 -5 7 -16 16 -23 9 -7 19 -20 23 -29
6 -14 95 -162 151 -250 14 -22 48 -76 75 -121 78 -128 87 -143 133 -216 46
-76 44 -52 27 -258 -4 -38 -8 -106 -10 -150 -2 -44 -6 -102 -9 -130 -2 -27 -7
-86 -11 -130 -3 -44 -8 -96 -10 -115 -2 -19 -7 -63 -10 -98 -3 -34 -7 -90 -10
-125 -3 -34 -8 -78 -10 -97 -5 -39 -17 -168 -18 -187 0 -7 -1 -13 -2 -13 -1 0
-55 53 -121 117 -107 106 -167 162 -328 304 -85 76 -128 123 -142 156 -15 36
-109 367 -120 423 -2 8 -7 33 -13 55 -9 36 -20 88 -22 100 0 2 -7 27 -14 55
-8 30 -9 52 -4 56 19 12 58 103 64 150 5 40 -9 146 -28 209 -14 45 -22 66 -43
110 -37 75 -58 96 -104 102 -26 4 -40 2 -40 -6 0 -6 -6 -11 -13 -11 -14 0 -77
-72 -77 -88 0 -5 -8 -24 -17 -43 -24 -48 -21 -123 7 -189 13 -30 26 -57 29
-60 4 -3 17 -25 30 -50 13 -25 36 -63 51 -85 24 -34 67 -185 86 -295 3 -14 8
-34 11 -45 4 -11 8 -24 9 -30 20 -91 76 -289 104 -367 34 -95 29 -89 280 -318
278 -253 392 -376 393 -423 0 -12 -3 -49 -7 -82 -4 -33 -9 -77 -11 -97 -3 -39
-15 -132 -20 -159 -4 -22 -17 -118 -20 -151 -1 -16 5 -34 14 -42 28 -25 78 -7
82 29 0 6 2 19 4 30 2 11 6 38 9 60 2 22 7 54 10 70 2 17 8 59 11 95 4 35 8
67 10 70 1 3 6 37 10 75 3 39 8 84 10 100 6 49 17 147 21 190 2 22 6 56 8 75
5 47 18 176 21 220 13 150 17 191 21 235 3 28 7 70 9 95 2 25 6 88 11 140 4
52 8 109 9 125 1 17 3 38 4 47 0 9 7 23 14 30 6 7 32 42 56 78 166 243 216
299 566 635 109 105 227 218 261 252 44 42 79 66 113 78 82 27 163 105 213
205 62 122 44 254 -40 303 -69 40 -163 16 -207 -53 -14 -23 -35 -76 -46 -118
-18 -72 -23 -106 -33 -225 -4 -42 -21 -77 -48 -98 -4 -3 -87 -81 -184 -175
-97 -93 -181 -171 -186 -173 -6 -2 -8 12 -3 37 3 23 8 58 10 79 1 21 8 72 14
113 6 41 13 93 16 115 3 22 8 62 11 89 5 37 18 65 54 115 120 166 159 287 109
344 -13 14 -35 28 -49 31 -55 9 -129 -46 -162 -121 -23 -53 -25 -61 -33 -160
-8 -107 -15 -173 -21 -203 -5 -26 -10 -69 -19 -155 -3 -27 -7 -61 -10 -75 -7
-35 -17 -118 -19 -157 0 -18 -3 -33 -6 -33 -3 0 -6 -18 -7 -39 -4 -86 -11
-102 -75 -169 -35 -37 -70 -75 -78 -85 -8 -10 -27 -32 -42 -49 -16 -17 -28
-34 -28 -38 0 -4 -11 -20 -25 -36 -14 -16 -40 -50 -58 -76 -17 -27 -35 -48
-39 -48 -3 0 -4 19 -2 43 3 39 8 133 19 362 18 375 22 722 11 1128 l-6 238
102 134 c64 84 110 134 121 135 24 0 272 101 371 151 105 53 166 102 251 203
22 27 50 60 63 75 12 14 32 42 44 61 12 19 24 37 28 40 3 3 18 22 33 43 16 20
51 49 79 63 64 33 103 73 133 138 75 163 37 273 -80 233 -41 -14 -125 -65
-152 -92 -16 -17 -48 -95 -45 -112 1 -2 -4 -17 -9 -35 -6 -18 -12 -57 -14 -87
-5 -54 -32 -104 -97 -183 -13 -15 -34 -42 -48 -60 -85 -112 -182 -180 -360
-252 -36 -15 -73 -31 -83 -37 -16 -9 -17 -8 -6 13 7 13 15 25 19 28 3 3 50 66
103 140 53 74 101 140 107 147 5 7 10 17 10 23 0 5 4 10 10 10 9 0 152 283
164 326 4 12 20 27 36 34 17 7 30 16 30 20 0 4 8 11 19 16 33 16 103 76 201
174 145 143 191 217 192 306 1 47 -4 60 -46 118 -87 123 -226 249 -285 261
-39 7 -71 -13 -90 -56 l-19 -41 -17 25 c-57 88 -184 84 -293 -8 -102 -88 -138
-210 -91 -310 13 -28 36 -72 53 -100 16 -27 34 -59 40 -70 23 -42 150 -250
155 -255 3 -3 12 -16 19 -29 12 -21 10 -32 -19 -100 -63 -147 -183 -357 -211
-369 -5 -2 -8 -10 -8 -18 0 -8 -4 -14 -8 -14 -4 0 -15 -12 -24 -27 -9 -16 -24
-37 -32 -48 -9 -11 -77 -101 -151 -199 -74 -98 -150 -197 -170 -220 l-34 -41
-2 65 c0 36 -2 90 -4 120 -4 62 -15 301 -20 430 -2 47 -6 123 -9 170 -7 111
-19 306 -31 525 -3 50 -7 124 -10 165 -6 80 -14 224 -20 330 -11 212 -17 295
-20 299 -7 7 15 41 27 41 6 0 27 15 47 33 21 17 61 52 90 77 67 57 274 261
325 320 94 110 151 220 140 271 -32 142 -249 369 -354 369 -16 0 -39 -10 -52
-22z"/>
<path d="M6275 6662 c-41 -26 -85 -79 -87 -105 -1 -12 -2 -31 -3 -42 -4 -52
77 -200 131 -240 15 -11 33 -25 39 -32 6 -6 50 -32 98 -58 62 -33 88 -53 95
-73 27 -72 107 -264 120 -286 6 -10 -41 19 -88 55 -103 78 -219 103 -327 69
-79 -24 -106 -87 -69 -158 29 -57 167 -164 244 -190 34 -12 191 -10 272 3 44
7 45 6 58 -27 45 -119 172 -512 172 -531 0 -4 -42 35 -92 87 -111 111 -135
128 -216 155 -100 34 -185 27 -232 -20 -24 -24 -28 -36 -26 -72 5 -80 53 -151
182 -267 39 -36 94 -63 149 -75 85 -19 109 -23 180 -30 67 -6 118 -14 124 -20
2 -2 7 -21 11 -42 4 -21 19 -90 33 -153 14 -63 28 -133 31 -154 4 -21 8 -48
11 -60 2 -12 6 -39 9 -61 3 -22 8 -58 11 -80 l7 -40 -21 22 c-12 12 -21 26
-21 32 0 5 -3 11 -8 13 -6 3 -57 70 -119 158 -112 156 -287 232 -407 175 -79
-38 -68 -151 28 -295 89 -132 164 -186 331 -234 33 -10 71 -22 85 -26 34 -11
80 -22 109 -26 13 -1 26 -6 30 -9 7 -8 8 -225 1 -225 -3 0 -5 -17 -6 -38 -1
-75 -12 -168 -40 -342 -17 -103 -28 -127 -37 -83 -3 15 -11 42 -18 58 -7 17
-13 32 -14 35 -1 3 -4 12 -8 20 -3 8 -22 60 -42 115 -46 127 -74 174 -138 236
-95 92 -230 133 -295 91 -48 -31 -66 -130 -41 -227 5 -22 12 -50 15 -63 8 -39
56 -155 80 -194 44 -70 177 -174 342 -268 l93 -53 -5 -36 c-2 -20 -10 -58 -16
-86 -17 -73 -22 -98 -25 -120 -2 -11 -4 -20 -5 -20 -2 0 -4 -8 -24 -110 -9
-44 -20 -87 -23 -95 -8 -19 -14 -46 -30 -130 -8 -45 3 -78 -112 325 -62 217
-89 273 -171 356 -85 86 -163 127 -240 124 -69 -2 -94 -18 -119 -75 -21 -49
-25 -115 -11 -200 15 -90 19 -105 50 -196 41 -122 76 -169 200 -274 81 -69 70
-60 170 -130 47 -33 90 -63 96 -67 27 -20 50 -34 67 -39 9 -4 17 -12 17 -20 0
-7 -18 -84 -41 -171 -22 -87 -42 -165 -43 -173 -1 -9 -5 -21 -10 -28 -4 -6 -5
-12 -2 -12 3 0 1 -12 -5 -27 -6 -16 -13 -37 -15 -48 -2 -11 -17 -67 -32 -125
l-29 -105 -20 55 c-30 80 -98 293 -123 384 -57 204 -197 352 -362 380 -47 8
-96 -12 -125 -51 -27 -35 -28 -42 -27 -137 1 -56 3 -112 6 -126 7 -32 18 -81
24 -98 2 -7 4 -16 5 -20 2 -11 38 -104 55 -139 20 -43 143 -168 239 -243 44
-34 87 -67 95 -73 8 -7 32 -23 53 -36 21 -12 43 -28 50 -34 6 -7 24 -18 39
-26 15 -8 29 -19 31 -25 3 -6 -9 -56 -24 -111 -16 -55 -32 -109 -35 -120 -3
-11 -6 -24 -8 -30 -2 -5 -6 -23 -11 -40 -4 -16 -16 -58 -27 -93 -11 -34 -21
-68 -22 -75 -4 -22 -28 -101 -39 -132 -7 -16 -12 -35 -13 -40 -1 -6 -25 -87
-54 -180 -28 -94 -52 -180 -52 -192 -1 -33 21 -54 51 -51 31 4 40 21 76 143
15 50 40 133 55 185 16 52 65 223 110 380 45 157 85 292 89 299 8 17 36 26
107 35 27 3 67 10 89 16 22 5 41 9 43 10 1 0 3 0 5 1 1 0 14 2 28 4 14 2 45 9
70 15 24 7 49 13 54 15 6 1 17 5 25 8 8 3 33 11 55 18 95 28 159 70 230 150
123 137 197 268 198 348 2 94 -47 130 -188 143 -17 1 -89 -12 -125 -24 -101
-32 -184 -92 -271 -197 -35 -42 -68 -81 -74 -88 -5 -6 -26 -30 -45 -54 -19
-23 -40 -47 -45 -53 -6 -6 -25 -30 -44 -54 -18 -24 -35 -41 -37 -39 -3 2 14
73 37 158 22 85 42 161 44 169 7 33 78 305 80 308 1 2 53 12 114 22 195 34
345 75 448 121 87 39 266 250 318 374 57 136 -4 227 -153 228 -139 1 -282 -68
-384 -185 -29 -34 -61 -70 -70 -80 -10 -10 -18 -23 -18 -28 0 -5 -3 -10 -8
-10 -4 0 -27 -26 -52 -57 -24 -31 -57 -71 -72 -88 -15 -16 -36 -41 -47 -55
l-20 -25 5 39 c2 21 7 43 10 48 3 4 7 18 9 31 3 12 21 92 40 177 20 85 38 171
41 190 3 19 7 37 9 40 2 3 6 26 10 50 4 25 8 46 9 47 1 1 24 5 51 8 113 13
197 25 217 31 9 3 26 7 39 9 44 9 135 36 169 52 58 26 106 70 161 146 169 232
167 393 -4 402 -131 7 -305 -90 -375 -207 -9 -16 -20 -28 -24 -28 -4 0 -8 -4
-8 -9 0 -12 -38 -57 -123 -145 l-67 -71 5 35 c3 19 8 42 10 50 2 8 7 40 10 70
4 30 8 57 10 60 2 3 6 32 10 65 4 33 9 74 11 90 6 47 16 182 19 275 1 47 3 88
4 92 1 5 101 67 126 77 6 2 12 7 15 10 3 3 38 28 77 55 91 60 162 130 190 187
56 113 88 289 63 353 -35 93 -187 74 -300 -36 -56 -55 -81 -103 -135 -258 -46
-130 -61 -165 -62 -138 -1 53 -35 258 -70 413 -30 134 -31 128 24 170 63 48
172 144 197 174 12 13 28 31 37 40 51 52 91 182 94 310 4 158 -67 222 -184
165 -86 -42 -171 -153 -186 -244 -14 -83 -57 -295 -61 -299 -2 -2 -5 3 -5 12
-1 9 -2 20 -3 25 -8 32 -100 329 -113 362 -3 8 -7 20 -9 25 -1 6 -18 54 -37
108 l-35 98 50 47 c119 110 191 197 221 261 25 57 27 190 3 300 -7 33 -54 91
-74 92 -9 0 -25 2 -34 4 -23 4 -86 -31 -122 -69 -52 -56 -76 -127 -81 -240 -5
-115 -15 -219 -20 -225 -5 -4 -7 2 -55 124 -17 44 -35 88 -40 97 -6 10 -10 25
-10 33 0 8 -4 15 -10 15 -6 0 -9 3 -8 8 1 7 -2 17 -30 82 -8 19 -16 73 -18
119 -6 146 -47 247 -133 328 -81 77 -160 100 -216 65z"/>
<path d="M1545 6154 c-48 -16 -63 -31 -80 -80 -13 -38 -14 -154 -1 -219 10
-49 46 -168 57 -191 11 -20 9 -60 -6 -129 -3 -16 -15 -73 -27 -125 -27 -126
-26 -122 -27 -142 -1 -26 -17 -22 -32 10 -8 15 -40 71 -72 124 -36 62 -60 113
-63 140 -9 69 -46 181 -72 215 -40 54 -87 59 -136 15 -101 -94 -57 -237 94
-310 31 -14 52 -43 135 -182 114 -192 111 -180 71 -350 -8 -36 -18 -79 -21
-97 -3 -18 -10 -44 -15 -59 -6 -15 -9 -29 -6 -31 2 -3 -2 -20 -10 -39 -8 -19
-12 -34 -10 -34 3 0 -1 -18 -9 -40 -8 -22 -12 -40 -8 -40 3 0 1 -6 -5 -12 -11
-14 -12 -18 -12 -45 0 -10 -31 43 -68 117 -74 147 -110 212 -122 220 -4 3 -34
46 -67 95 -66 98 -143 252 -193 385 -17 47 -36 95 -42 106 -6 12 -7 36 -3 55
5 19 9 44 11 56 1 12 5 35 9 53 11 48 8 161 -4 206 -15 56 -43 79 -96 79 -76
0 -129 -58 -127 -139 1 -87 22 -159 77 -266 33 -64 115 -258 115 -272 0 -4 16
-40 35 -79 19 -40 35 -76 35 -81 0 -4 -16 -2 -35 6 -19 8 -35 13 -35 11 0 -2
-16 3 -35 11 -19 8 -36 14 -37 13 -2 -1 -35 8 -73 20 -54 16 -80 30 -110 61
-79 81 -201 162 -249 166 -40 3 -74 -17 -85 -48 -22 -62 -9 -104 44 -151 23
-21 130 -75 160 -80 11 -2 27 -7 35 -10 8 -3 42 -11 75 -17 60 -11 175 -41
250 -65 22 -7 72 -22 110 -34 70 -21 70 -21 132 -109 51 -71 178 -310 225
-422 6 -14 17 -37 25 -52 8 -16 11 -28 8 -28 -3 0 0 -10 7 -22 7 -15 13 -75
14 -161 1 -76 5 -145 8 -152 3 -8 1 -17 -5 -20 -5 -4 -6 -11 -3 -17 4 -6 8
-47 9 -92 2 -44 6 -137 9 -206 l6 -125 -97 101 c-107 111 -145 151 -215 234
-41 48 -47 63 -53 115 -4 33 -8 71 -11 85 -2 14 -7 45 -10 70 -6 46 -9 73 -20
150 -11 78 -11 83 7 131 33 86 43 190 23 237 -17 43 -65 65 -121 58 -52 -6
-109 -45 -124 -84 -21 -55 7 -141 71 -222 27 -34 38 -79 55 -220 3 -28 16
-116 21 -143 2 -10 0 -17 -5 -15 -4 2 -66 50 -138 108 -92 75 -144 125 -178
173 -51 71 -110 129 -159 154 -92 47 -198 -54 -167 -159 10 -32 69 -103 74
-89 1 2 13 -2 27 -9 14 -8 27 -15 30 -15 21 -5 102 -17 132 -19 37 -4 80 -33
228 -156 30 -25 65 -54 79 -65 81 -66 159 -140 189 -179 27 -37 159 -180 281
-304 50 -52 91 -99 92 -105 0 -7 2 -30 3 -52 13 -198 23 -264 57 -394 11 -40
18 -76 15 -78 -3 -3 -20 4 -38 15 -18 10 -58 33 -88 49 -46 25 -91 50 -109 60
-2 2 -5 26 -7 55 -6 150 -35 231 -87 253 -37 16 -79 4 -100 -29 -20 -30 -13
-96 18 -155 l24 -49 -29 14 c-16 8 -38 17 -49 19 -12 3 -29 7 -38 10 -10 2
-53 13 -97 24 -43 11 -80 21 -81 23 -2 2 0 22 5 46 4 24 7 98 5 165 -2 161
-23 213 -96 244 -21 9 -34 7 -67 -7 -105 -47 -108 -172 -11 -357 16 -31 28
-57 26 -59 -11 -11 -244 54 -312 87 -125 62 -208 61 -240 -2 -19 -36 -19 -70
0 -115 29 -69 147 -90 264 -45 54 20 66 19 223 -18 46 -11 96 -22 111 -25 16
-3 43 -10 60 -15 18 -6 43 -12 57 -15 83 -16 194 -53 274 -91 96 -47 208 -106
216 -115 3 -3 16 -11 30 -17 24 -12 140 -78 171 -98 9 -5 30 -57 48 -115 18
-58 34 -112 37 -120 3 -8 5 -17 6 -20 0 -3 5 -18 12 -35 7 -16 14 -33 15 -37
6 -26 10 -38 25 -83 10 -27 20 -61 22 -74 3 -13 9 -32 14 -42 13 -24 13 -29
-5 -29 -8 0 -15 4 -15 10 0 5 -3 9 -7 8 -5 0 -15 1 -23 5 -80 30 -195 69 -216
73 -7 1 -43 11 -80 22 -38 12 -80 23 -94 26 -26 6 -81 98 -190 318 -68 138
-136 193 -202 165 -54 -23 -73 -53 -69 -109 2 -32 60 -85 133 -123 40 -21 78
-45 83 -54 30 -48 86 -154 82 -157 -2 -3 -59 7 -126 20 -101 21 -126 30 -150
53 -72 71 -136 119 -194 145 -48 22 -69 22 -107 3 -48 -25 -58 -110 -23 -180
19 -36 30 -47 68 -67 53 -29 91 -36 187 -35 79 0 184 -11 263 -30 19 -5 66
-14 130 -27 77 -16 78 -16 64 -32 -14 -17 -43 -34 -67 -39 -45 -9 -121 -39
-154 -62 -82 -56 -71 -149 23 -182 47 -16 124 30 174 105 27 41 61 76 108 108
l68 48 102 -32 c128 -41 254 -99 288 -133 14 -15 34 -55 45 -89 10 -35 36
-110 57 -168 21 -58 39 -109 41 -115 7 -29 18 -62 26 -80 5 -11 27 -74 50
-140 23 -66 50 -142 60 -170 10 -27 71 -196 135 -375 132 -365 150 -395 205
-340 23 23 23 25 -33 175 -25 66 -52 140 -60 165 -9 25 -27 77 -42 115 -14 39
-32 88 -40 110 -7 22 -32 92 -55 155 -23 63 -46 126 -50 140 -4 14 -29 84 -55
155 -26 72 -51 146 -57 165 -6 19 -13 40 -16 45 -4 6 -7 15 -9 20 -5 23 -77
234 -94 277 -23 57 -24 87 -3 116 8 12 13 22 9 22 -3 0 5 17 18 37 13 21 25
43 27 48 5 21 125 260 133 263 4 2 7 7 7 12 0 12 15 45 53 115 l32 60 160 2
c192 2 214 6 260 47 38 34 48 65 33 109 -23 66 -93 80 -179 37 -46 -24 -112
-70 -117 -82 -4 -9 -86 -11 -95 -2 -3 3 5 23 17 43 13 20 33 58 45 84 12 26
25 47 29 47 15 0 83 159 89 207 11 109 -78 194 -168 160 -47 -18 -63 -98 -40
-207 16 -76 20 -93 25 -98 9 -8 -147 -302 -156 -296 -5 3 -7 8 -5 11 3 2 -8
40 -24 84 -16 43 -27 79 -24 79 2 0 -3 16 -11 35 -8 19 -11 35 -8 35 4 0 2 6
-3 13 -12 14 -11 23 8 87 19 70 20 72 20 125 0 68 -4 81 -30 109 -29 31 -64
40 -105 26 -78 -26 -81 -114 -11 -330 26 -80 48 -152 50 -160 6 -27 52 -164
69 -205 l17 -41 -91 -182 c-49 -101 -90 -188 -90 -195 0 -25 -21 20 -51 113
-107 327 -179 574 -194 659 -3 19 -8 37 -10 41 -5 8 -14 89 -20 195 -3 50 -8
121 -10 158 l-5 68 82 138 81 138 177 47 c146 39 183 46 215 38 57 -12 127 -7
168 13 77 36 72 160 -9 203 -45 24 -127 -9 -197 -81 -24 -25 -53 -37 -155 -64
-68 -19 -126 -32 -129 -29 -8 8 71 139 110 181 51 54 102 146 111 198 11 61
-45 137 -100 137 -63 0 -93 -60 -100 -194 -4 -81 -7 -96 -34 -134 -17 -23 -30
-47 -30 -52 0 -6 -4 -10 -8 -10 -5 0 -23 -33 -42 -72 -19 -40 -39 -80 -46 -88
-6 -8 -28 -46 -48 -85 -46 -85 -56 -97 -57 -64 0 13 -2 56 -5 94 -6 105 -11
623 -6 677 l4 47 211 70 c117 39 221 69 232 66 11 -2 35 -8 53 -14 18 -5 36
-11 40 -12 4 -1 12 -3 17 -4 19 -5 100 -26 120 -30 82 -19 151 -38 160 -44 25
-19 171 1 235 33 82 41 110 116 70 190 -29 53 -66 71 -133 64 -24 -2 -88 -67
-129 -130 -25 -39 -36 -49 -52 -45 -12 3 -32 8 -45 11 -13 3 -63 16 -110 30
-47 13 -103 28 -123 31 -21 4 -38 13 -38 20 0 7 24 55 53 106 29 52 61 111 72
131 13 25 36 46 70 64 125 68 223 155 242 217 21 69 -17 145 -90 177 -49 22
-95 10 -142 -37 -37 -37 -94 -147 -110 -213 -20 -81 -38 -127 -73 -186 -22
-38 -41 -72 -42 -76 0 -4 -25 -46 -53 -94 l-52 -86 -160 -54 c-88 -30 -166
-54 -173 -54 -9 0 -11 7 -7 20 3 11 8 31 11 44 2 13 18 84 34 157 17 74 40
177 51 229 22 108 23 111 50 240 11 52 22 106 25 120 19 105 31 140 68 203 84
144 111 222 108 315 -3 88 -54 146 -147 168 -42 9 -60 9 -90 -2z"/>
</g>
</svg>
